{"glyphs":{"0":{"ha":853,"x_min":79,"x_max":775,"o":"m 79 496 q 157 128 79 260 q 426 -4 235 -4 q 697 128 618 -4 q 775 496 775 260 q 697 861 775 729 q 426 993 618 993 q 157 862 235 993 q 79 496 79 731 m 650 496 q 633 294 650 375 q 567 164 615 213 q 426 115 518 115 q 288 164 336 115 q 222 294 239 213 q 204 496 204 375 q 222 696 204 615 q 288 824 239 776 q 426 872 336 872 q 567 824 518 872 q 633 696 615 776 q 650 496 650 615 z "},"1":{"ha":399,"x_min":18,"x_max":299,"o":"m 18 861 l 18 979 l 299 979 l 299 0 l 165 0 l 165 861 l 18 861 z "},"2":{"ha":788,"x_min":58,"x_max":732,"o":"m 58 97 q 436 412 294 256 q 578 703 578 568 q 535 837 578 786 q 399 888 493 888 q 251 826 301 888 q 196 656 201 764 l 71 656 q 172 908 81 819 q 408 996 264 996 q 626 922 546 996 q 707 714 707 849 q 635 488 707 603 q 456 276 564 374 q 235 110 349 178 l 732 110 l 732 6 l 58 6 l 58 97 z "},"3":{"ha":818,"x_min":65,"x_max":733,"o":"m 415 1006 q 578 972 510 1006 q 681 881 646 939 q 715 749 715 822 q 662 594 715 657 q 506 519 608 532 l 506 511 q 673 425 613 483 q 733 264 733 367 q 653 67 733 143 q 421 -10 572 -10 q 176 69 269 -10 q 65 299 82 147 l 190 299 q 260 153 203 207 q 417 99 318 99 q 560 147 510 99 q 610 271 610 194 q 538 410 610 363 q 335 458 467 458 l 301 458 l 301 564 l 335 564 q 590 735 590 564 q 543 854 590 810 q 413 899 496 899 q 272 851 329 899 q 206 710 215 803 l 82 710 q 178 927 92 849 q 415 1006 265 1006 z "},"4":{"ha":861,"x_min":43,"x_max":826,"o":"m 43 225 l 43 331 l 546 986 l 682 986 l 682 335 l 826 335 l 826 225 l 682 225 l 682 0 l 554 0 l 554 225 l 43 225 m 563 832 l 176 335 l 563 335 l 563 832 z "},"5":{"ha":856,"x_min":108,"x_max":786,"o":"m 739 879 l 236 879 l 236 551 q 336 626 271 599 q 479 654 401 654 q 652 610 583 654 q 753 495 721 567 q 786 336 786 424 q 701 89 786 185 q 453 -7 617 -7 q 213 73 306 -7 q 108 288 119 153 l 233 288 q 305 153 249 201 q 447 106 361 106 q 608 169 554 106 q 663 338 663 233 q 607 496 663 439 q 450 553 551 553 q 324 522 378 553 q 242 438 269 490 l 119 438 l 119 992 l 739 992 l 739 879 z "},"6":{"ha":863,"x_min":89,"x_max":786,"o":"m 632 718 q 573 853 621 806 q 440 901 525 901 q 262 810 322 901 q 201 519 201 718 l 203 468 q 299 601 224 551 q 475 650 374 650 q 703 563 621 650 q 786 318 786 475 q 750 152 786 226 q 640 34 714 78 q 456 -10 565 -10 q 167 122 246 -10 q 89 481 89 254 q 173 873 89 742 q 447 1004 257 1004 q 663 925 588 1004 q 753 718 739 846 l 632 718 m 217 339 q 276 169 217 238 q 453 100 335 100 q 608 158 550 100 q 667 319 667 215 q 608 491 667 432 q 447 550 550 550 q 336 526 389 550 q 250 455 283 503 q 217 339 217 407 z "},"7":{"ha":703,"x_min":19,"x_max":661,"o":"m 661 888 l 290 0 l 157 0 l 533 875 l 19 875 l 19 985 l 661 985 l 661 888 z "},"8":{"ha":868,"x_min":74,"x_max":796,"o":"m 99 749 q 138 881 99 821 q 253 975 176 940 q 435 1010 329 1010 q 616 975 540 1010 q 731 881 692 940 q 769 749 769 821 q 725 607 769 667 q 590 522 681 547 q 742 431 688 496 q 796 269 796 365 q 697 51 796 131 q 435 -28 599 -28 q 172 51 271 -28 q 74 269 74 131 q 127 431 74 365 q 278 522 181 496 q 143 607 188 547 q 99 749 99 667 m 224 731 q 281 602 224 647 q 435 557 338 557 q 588 602 532 557 q 644 731 644 647 q 588 859 644 814 q 435 904 531 904 q 281 859 339 904 q 224 731 224 814 m 197 276 q 261 130 197 182 q 435 78 325 78 q 607 131 543 78 q 671 276 671 183 q 604 419 671 371 q 435 468 538 468 q 264 419 331 468 q 197 276 197 371 z "},"9":{"ha":844,"x_min":68,"x_max":767,"o":"m 222 275 q 283 140 235 188 q 417 93 332 93 q 593 183 533 93 q 653 469 653 274 q 651 526 653 507 q 557 393 632 443 q 381 343 482 343 q 151 431 235 343 q 68 675 68 518 q 104 842 68 767 q 215 960 140 917 q 399 1004 289 1004 q 688 874 610 1004 q 767 518 767 744 q 686 124 767 260 q 417 -11 606 -11 q 197 69 276 -11 q 103 275 117 149 l 222 275 m 639 656 q 580 825 639 756 q 403 894 521 894 q 247 836 306 894 q 189 674 189 778 q 247 503 189 563 q 407 443 306 443 q 519 467 465 443 q 606 539 572 490 q 639 656 639 588 z "},"\u0000":{"ha":0,"x_min":0,"x_max":0,"o":""},"\r":{"ha":343,"x_min":0,"x_max":0,"o":""}," ":{"ha":343,"x_min":0,"x_max":0,"o":""},"अ":{"ha":1150,"x_min":103,"x_max":1186,"o":"m 1186 1028 l 1186 931 l 1003 931 l 1003 0 l 888 0 l 888 454 l 667 456 q 692 340 692 401 q 615 147 692 219 q 411 74 539 74 q 252 109 322 74 q 142 208 182 144 q 103 356 103 272 l 211 356 q 265 225 211 276 q 403 174 318 174 q 536 223 486 174 q 586 351 586 272 q 554 456 586 411 l 550 456 l 549 464 q 392 528 497 528 l 336 528 l 336 622 l 392 622 q 524 669 476 622 q 571 778 571 715 q 522 898 571 854 q 400 942 474 942 q 272 898 324 942 q 221 783 219 854 l 114 783 q 151 919 114 861 q 252 1008 188 976 q 400 1040 317 1040 q 599 973 522 1040 q 675 794 675 906 q 632 657 675 714 q 507 579 589 600 l 507 576 q 579 551 549 569 l 888 551 l 888 1028 l 1186 1028 z "},"आ":{"ha":1549,"x_min":103,"x_max":1593,"o":"m 1186 1028 l 1186 931 l 1003 931 l 1003 0 l 888 0 l 888 454 l 667 456 q 692 340 692 401 q 615 147 692 219 q 411 74 539 74 q 252 109 322 74 q 142 208 182 144 q 103 356 103 272 l 211 356 q 265 225 211 276 q 403 174 318 174 q 536 223 486 174 q 586 351 586 272 q 554 456 586 411 l 550 456 l 549 464 q 392 528 497 528 l 336 528 l 336 622 l 392 622 q 524 669 476 622 q 571 778 571 715 q 522 898 571 854 q 400 942 474 942 q 272 898 324 942 q 221 783 219 854 l 114 783 q 151 919 114 861 q 252 1008 188 976 q 400 1040 317 1040 q 599 973 522 1040 q 675 794 675 906 q 632 657 675 714 q 507 579 589 600 l 507 576 q 579 551 549 569 l 888 551 l 888 1028 l 1186 1028 m 1294 931 l 1113 931 l 1113 1028 l 1593 1028 l 1593 931 l 1411 931 l 1411 0 l 1294 0 l 1294 931 z "},"इ":{"ha":806,"x_min":-51,"x_max":857,"o":"m 400 678 q 279 653 328 678 q 231 563 231 628 q 272 476 231 503 q 382 449 314 449 l 443 449 q 646 392 564 449 q 728 211 728 336 q 663 47 728 111 q 479 -18 597 -18 q 322 23 381 -18 q 242 110 263 64 l 242 -107 l 132 -107 l 132 249 l 236 249 q 299 119 243 168 q 449 69 354 69 q 574 110 531 69 q 618 214 618 151 q 563 329 618 294 q 422 364 507 364 q 349 365 374 364 q 182 417 250 368 q 114 564 114 467 q 187 716 114 668 q 368 764 260 764 l 533 764 l 533 931 l -51 931 l -51 1028 l 857 1028 l 857 931 l 646 931 l 646 678 l 400 678 z "},"ई":{"ha":806,"x_min":-51,"x_max":992,"o":"m 400 678 q 279 653 328 678 q 231 563 231 628 q 272 476 231 503 q 382 449 314 449 l 443 449 q 646 392 564 449 q 728 211 728 336 q 663 47 728 111 q 479 -18 597 -18 q 322 23 381 -18 q 242 110 263 64 l 242 -107 l 132 -107 l 132 249 l 236 249 q 299 119 243 168 q 449 69 354 69 q 574 110 531 69 q 618 214 618 151 q 563 329 618 294 q 422 364 507 364 q 349 365 374 364 q 182 417 250 368 q 114 564 114 467 q 187 716 114 668 q 368 764 260 764 l 533 764 l 533 931 l -51 931 l -51 1028 l 857 1028 l 857 931 l 646 931 l 646 678 l 400 678 m 535 1131 q 591 1326 535 1253 q 767 1399 647 1399 q 933 1334 874 1399 q 989 1164 992 1269 l 888 1164 q 856 1264 889 1226 q 768 1301 824 1301 q 643 1132 643 1301 l 643 1006 l 535 1006 l 535 1131 z "},"उ":{"ha":799,"x_min":-36,"x_max":836,"o":"m 667 786 q 624 644 667 701 q 513 575 581 586 l 513 572 q 656 478 601 554 q 710 303 710 403 q 673 148 710 215 q 567 42 636 81 q 404 4 499 4 q 232 44 308 4 q 113 154 156 83 q 71 315 71 225 l 182 315 q 210 210 182 257 q 288 135 239 163 q 399 108 338 108 q 544 165 489 108 q 599 313 599 222 q 547 456 599 394 q 389 518 494 518 l 325 518 l 325 621 l 375 621 q 509 669 463 621 q 556 794 556 717 l 556 929 l -36 929 l -36 1028 l 836 1028 l 836 929 l 667 929 l 667 786 z "},"ऊ":{"ha":1201,"x_min":-36,"x_max":1238,"o":"m 667 786 q 624 644 667 701 q 513 575 581 586 l 513 572 l 800 572 q 1033 505 944 572 q 1122 299 1122 438 q 1048 105 1122 171 q 853 39 974 39 q 788 43 821 39 l 788 132 q 835 131 804 131 q 963 172 914 131 q 1011 303 1011 214 q 953 437 1011 394 q 801 479 894 479 l 649 479 q 707 297 707 404 q 671 146 707 213 q 566 42 635 79 q 404 4 497 4 q 232 44 308 4 q 113 154 156 83 q 71 315 71 225 l 182 315 q 210 210 182 257 q 288 135 239 163 q 399 108 338 108 q 544 165 489 108 q 599 313 599 222 q 547 456 599 394 q 389 518 494 518 l 325 518 l 325 621 l 375 621 q 509 669 463 621 q 556 794 556 717 l 556 931 l -36 931 l -36 1028 l 1238 1028 l 1238 931 l 667 931 l 667 786 z "},"ऋ":{"ha":1418,"x_min":-36,"x_max":1456,"o":"m 800 931 l 800 608 l 1049 608 q 1165 713 1165 608 l 1165 793 l 1267 793 l 1267 303 l 1240 303 q 1120 261 1163 303 q 1078 156 1078 219 q 1124 48 1078 83 q 1242 13 1169 13 q 1321 25 1283 13 l 1321 -68 q 1277 -77 1304 -74 q 1228 -81 1250 -81 q 1040 -22 1114 -81 q 967 146 967 36 q 1020 295 967 235 q 1165 372 1074 356 l 1165 547 q 1032 515 1110 515 l 800 515 l 800 0 l 692 0 l 692 383 l 313 0 l 168 0 l 168 7 l 692 504 q 617 635 676 585 q 467 686 557 686 q 285 616 354 686 q 215 428 215 546 l 100 428 q 142 615 100 535 q 260 740 183 696 q 435 785 336 785 q 588 749 524 785 q 692 650 653 714 l 692 931 l -36 931 l -36 1028 l 1456 1028 l 1456 931 l 800 931 z "},"ॠ":{"ha":1360,"x_min":-36,"x_max":1457,"o":"m 800 931 l 800 608 l 1049 608 q 1165 713 1165 608 l 1165 793 l 1267 793 l 1267 300 l 1210 300 q 1117 276 1153 300 q 1081 197 1081 253 q 1118 120 1081 144 q 1217 96 1156 96 l 1282 96 l 1282 8 l 1217 8 q 1118 -16 1157 8 q 1079 -97 1079 -40 q 1119 -176 1079 -151 q 1224 -200 1160 -200 q 1299 -193 1261 -200 q 1358 -178 1336 -186 l 1358 -265 q 1290 -283 1332 -276 q 1207 -290 1249 -290 q 1036 -245 1104 -290 q 968 -107 968 -200 q 1004 -5 968 -46 q 1094 49 1040 36 l 1094 53 q 1003 103 1036 67 q 969 203 969 140 q 1027 326 969 286 q 1165 368 1085 367 l 1165 547 q 1032 515 1110 515 l 800 515 l 800 0 l 692 0 l 692 383 l 313 0 l 168 0 l 168 7 l 692 504 q 617 635 676 585 q 467 686 557 686 q 285 616 354 686 q 215 428 215 546 l 100 428 q 142 615 100 535 q 260 740 183 696 q 435 785 336 785 q 588 749 524 785 q 692 650 653 714 l 692 931 l -36 931 l -36 1028 l 1457 1028 l 1457 931 l 800 931 z "},"ऌ":{"ha":1250,"x_min":-36,"x_max":1286,"o":"m 936 931 l 936 751 q 1095 649 1036 732 q 1154 439 1154 567 q 1132 300 1154 367 l 1121 300 q 990 259 1035 300 q 946 153 946 218 q 992 46 946 81 q 1111 11 1039 11 q 1192 22 1158 11 l 1192 -71 q 1099 -83 1144 -83 q 908 -24 982 -83 q 835 147 835 35 q 889 294 835 233 q 1031 367 943 354 q 1039 440 1039 403 q 993 595 1039 535 q 863 656 947 656 q 724 587 771 656 q 676 401 676 518 l 676 376 l 579 376 l 579 401 q 534 585 579 515 q 401 656 489 656 q 263 595 311 656 q 214 438 214 535 q 272 265 214 329 q 435 201 329 201 q 475 203 460 201 l 475 101 q 428 99 439 99 q 183 192 269 99 q 97 439 97 286 q 133 609 97 538 q 235 719 169 681 q 386 757 300 757 q 545 699 486 757 q 625 556 604 640 l 629 556 q 695 683 647 629 q 824 751 743 738 l 824 931 l -36 931 l -36 1028 l 1286 1028 l 1286 931 l 936 931 z "},"ॡ":{"ha":1263,"x_min":-36,"x_max":1293,"o":"m 936 931 l 936 751 q 1095 649 1036 732 q 1154 439 1154 567 q 1132 300 1154 367 l 1079 300 q 985 276 1022 300 q 949 197 949 253 q 987 121 949 146 q 1086 96 1025 96 l 1150 96 l 1150 8 l 1086 8 q 988 -16 1026 8 q 949 -97 949 -40 q 989 -176 949 -151 q 1092 -200 1029 -200 q 1168 -193 1131 -200 q 1228 -178 1206 -186 l 1228 -265 q 1160 -283 1201 -276 q 1076 -290 1118 -290 q 906 -245 974 -290 q 838 -107 838 -200 q 874 -5 838 -46 q 964 49 910 36 l 964 53 q 872 103 906 67 q 838 203 838 140 q 894 325 838 285 q 1031 368 951 365 q 1039 440 1039 401 q 993 595 1039 535 q 863 656 947 656 q 724 587 771 656 q 676 401 676 518 l 676 376 l 579 376 l 579 401 q 534 585 579 515 q 401 656 489 656 q 263 595 311 656 q 214 438 214 535 q 272 265 214 329 q 435 201 329 201 q 475 203 460 201 l 475 101 q 428 99 439 99 q 183 192 269 99 q 97 439 97 286 q 133 609 97 538 q 235 719 169 681 q 386 757 300 757 q 545 699 486 757 q 625 556 604 640 l 629 556 q 695 683 647 629 q 824 751 743 738 l 824 931 l -36 931 l -36 1028 l 1293 1028 l 1293 931 l 936 931 z "},"ए":{"ha":906,"x_min":-36,"x_max":942,"o":"m 500 593 q 529 592 510 592 q 640 635 607 592 q 674 772 674 678 l 674 931 l 257 931 l 257 376 q 313 192 257 258 q 476 126 368 126 q 628 183 574 126 q 683 344 683 240 l 796 344 q 711 110 796 194 q 478 26 626 26 q 226 122 311 26 q 142 381 142 217 l 142 931 l -36 931 l -36 1028 l 942 1028 l 942 931 l 788 931 l 788 769 q 733 556 788 625 q 553 486 678 486 q 500 489 539 486 l 500 593 z "},"ऐ":{"ha":906,"x_min":-36,"x_max":942,"o":"m 500 593 q 529 592 510 592 q 640 635 607 592 q 674 772 674 678 l 674 931 l 257 931 l 257 376 q 313 192 257 258 q 476 126 368 126 q 628 183 574 126 q 683 344 683 240 l 796 344 q 711 110 796 194 q 478 26 626 26 q 226 122 311 26 q 142 381 142 217 l 142 931 l -36 931 l -36 1028 l 942 1028 l 942 931 l 788 931 l 788 769 q 733 556 788 625 q 553 486 678 486 q 500 489 539 486 l 500 593 m 674 1022 q 555 1188 601 1136 q 465 1253 508 1239 q 346 1268 421 1268 l 288 1268 l 288 1363 l 344 1363 q 506 1342 446 1363 q 628 1250 565 1321 q 783 1022 690 1179 l 674 1022 z "},"ओ":{"ha":1557,"x_min":103,"x_max":1593,"o":"m 1299 1022 q 1180 1188 1226 1136 q 1090 1253 1133 1239 q 971 1268 1046 1268 l 913 1268 l 913 1363 l 969 1363 q 1131 1342 1071 1363 q 1253 1250 1190 1321 q 1408 1022 1315 1179 l 1299 1022 m 1186 1028 l 1186 931 l 1003 931 l 1003 0 l 888 0 l 888 454 l 667 456 q 692 340 692 401 q 615 147 692 219 q 411 74 539 74 q 252 109 322 74 q 142 208 182 144 q 103 356 103 272 l 211 356 q 265 225 211 276 q 403 174 318 174 q 536 223 486 174 q 586 351 586 272 q 554 456 586 411 l 550 456 l 549 464 q 392 528 497 528 l 336 528 l 336 622 l 392 622 q 524 669 476 622 q 571 778 571 715 q 522 898 571 854 q 400 942 474 942 q 272 898 324 942 q 221 783 219 854 l 114 783 q 151 919 114 861 q 252 1008 188 976 q 400 1040 317 1040 q 599 973 522 1040 q 675 794 675 906 q 632 657 675 714 q 507 579 589 600 l 507 576 q 579 551 549 569 l 888 551 l 888 1028 l 1186 1028 m 1294 931 l 1113 931 l 1113 1028 l 1593 1028 l 1593 931 l 1411 931 l 1411 0 l 1294 0 l 1294 931 z "},"औ":{"ha":1557,"x_min":103,"x_max":1593,"o":"m 964 1446 q 1121 1423 1065 1446 q 1240 1313 1176 1400 q 1407 1024 1303 1226 l 1307 1024 q 1176 1117 1222 1090 q 1088 1151 1131 1144 q 964 1158 1046 1158 l 906 1158 l 906 1235 l 961 1235 q 1083 1229 1042 1235 q 1169 1200 1125 1224 q 1281 1121 1214 1176 q 1169 1290 1217 1238 q 1078 1356 1121 1343 q 965 1369 1036 1369 l 906 1369 l 906 1446 l 964 1446 m 1186 1028 l 1186 931 l 1003 931 l 1003 0 l 888 0 l 888 454 l 667 456 q 692 340 692 401 q 615 147 692 219 q 411 74 539 74 q 252 109 322 74 q 142 208 182 144 q 103 356 103 272 l 211 356 q 265 225 211 276 q 403 174 318 174 q 536 223 486 174 q 586 351 586 272 q 554 456 586 411 l 550 456 l 549 464 q 392 528 497 528 l 336 528 l 336 622 l 392 622 q 524 669 476 622 q 571 778 571 715 q 522 898 571 854 q 400 942 474 942 q 272 898 324 942 q 221 783 219 854 l 114 783 q 151 919 114 861 q 252 1008 188 976 q 400 1040 317 1040 q 599 973 522 1040 q 675 794 675 906 q 632 657 675 714 q 507 579 589 600 l 507 576 q 579 551 549 569 l 888 551 l 888 1028 l 1186 1028 m 1294 931 l 1113 931 l 1113 1028 l 1593 1028 l 1593 931 l 1411 931 l 1411 0 l 1294 0 l 1294 931 z "},"ऍ":{"ha":906,"x_min":-36,"x_max":942,"o":"m 500 593 q 529 592 510 592 q 640 635 607 592 q 674 772 674 678 l 674 931 l 257 931 l 257 376 q 313 192 257 258 q 476 126 368 126 q 628 183 574 126 q 683 344 683 240 l 796 344 q 711 110 796 194 q 478 26 626 26 q 226 122 311 26 q 142 381 142 217 l 142 931 l -36 931 l -36 1028 l 942 1028 l 942 931 l 788 931 l 788 769 q 733 556 788 625 q 553 486 678 486 q 500 489 539 486 l 500 593 m 457 1164 q 299 1197 363 1164 q 206 1286 236 1231 q 175 1408 175 1342 l 275 1408 q 321 1298 275 1344 q 457 1251 367 1251 q 592 1298 546 1251 q 639 1408 639 1344 l 739 1408 q 708 1287 739 1342 q 614 1198 678 1232 q 457 1164 550 1164 z "},"ॲ":{"ha":1151,"x_min":103,"x_max":1238,"o":"m 1186 1028 l 1186 931 l 1003 931 l 1003 0 l 888 0 l 888 454 l 667 456 q 692 340 692 401 q 615 147 692 219 q 411 74 539 74 q 252 109 322 74 q 142 208 182 144 q 103 356 103 272 l 211 356 q 265 225 211 276 q 403 174 318 174 q 536 223 486 174 q 586 351 586 272 q 554 456 586 411 l 550 456 l 549 464 q 392 528 497 528 l 336 528 l 336 622 l 392 622 q 524 669 476 622 q 571 778 571 715 q 522 898 571 854 q 400 942 474 942 q 272 898 324 942 q 221 783 219 854 l 114 783 q 151 919 114 861 q 252 1008 188 976 q 400 1040 317 1040 q 599 973 522 1040 q 675 794 675 906 q 632 657 675 714 q 507 579 589 600 l 507 576 q 579 551 549 569 l 888 551 l 888 1028 l 1186 1028 m 956 1167 q 798 1200 861 1167 q 704 1289 735 1233 q 674 1411 674 1344 l 774 1411 q 819 1301 774 1347 q 956 1254 865 1254 q 1091 1301 1044 1254 q 1138 1411 1138 1347 l 1238 1411 q 1207 1290 1238 1344 q 1113 1201 1176 1235 q 956 1167 1049 1167 z "},"ऑ":{"ha":1557,"x_min":103,"x_max":1593,"o":"m 1186 1028 l 1186 931 l 1003 931 l 1003 0 l 888 0 l 888 454 l 667 456 q 692 340 692 401 q 615 147 692 219 q 411 74 539 74 q 252 109 322 74 q 142 208 182 144 q 103 356 103 272 l 211 356 q 265 225 211 276 q 403 174 318 174 q 536 223 486 174 q 586 351 586 272 q 554 456 586 411 l 550 456 l 549 464 q 392 528 497 528 l 336 528 l 336 622 l 392 622 q 524 669 476 622 q 571 778 571 715 q 522 898 571 854 q 400 942 474 942 q 272 898 324 942 q 221 783 219 854 l 114 783 q 151 919 114 861 q 252 1008 188 976 q 400 1040 317 1040 q 599 973 522 1040 q 675 794 675 906 q 632 657 675 714 q 507 579 589 600 l 507 576 q 579 551 549 569 l 888 551 l 888 1028 l 1186 1028 m 1294 931 l 1113 931 l 1113 1028 l 1593 1028 l 1593 931 l 1411 931 l 1411 0 l 1294 0 l 1294 931 m 1153 1164 q 995 1197 1058 1164 q 901 1286 932 1231 q 871 1408 871 1342 l 971 1408 q 1017 1298 971 1344 q 1153 1251 1063 1251 q 1288 1298 1242 1251 q 1335 1408 1335 1344 l 1435 1408 q 1404 1287 1435 1342 q 1310 1198 1374 1232 q 1153 1164 1246 1164 z "},"ा":{"ha":408,"x_min":-36,"x_max":444,"o":"m 146 931 l -36 931 l -36 1028 l 444 1028 l 444 931 l 263 931 l 263 0 l 146 0 l 146 931 z "},"ि":{"ha":408,"x_min":-36,"x_max":1214,"o":"m 681 1383 q 947 1344 825 1383 q 1141 1223 1068 1304 q 1214 1024 1214 1142 l 1214 1000 l 1099 1000 l 1099 1022 q 1036 1176 1099 1117 q 879 1262 974 1236 q 681 1288 785 1288 q 386 1229 508 1288 q 261 1028 264 1171 l 444 1028 l 444 931 l 263 931 l 263 0 l 146 0 l 146 931 l -36 931 l -36 1028 l 146 1028 q 221 1230 147 1150 q 415 1347 294 1310 q 681 1383 535 1383 z "},"ी":{"ha":408,"x_min":-262,"x_max":444,"o":"m 444 1028 l 444 931 l 263 931 l 263 0 l 146 0 l 146 931 l -36 931 l -36 1028 l 149 1028 l 149 1086 q 116 1228 149 1172 q 1 1285 83 1285 q -115 1228 -81 1285 q -149 1086 -149 1171 l -149 1001 l -262 1001 l -262 1082 q -199 1301 -262 1218 q 1 1383 -136 1383 q 201 1301 139 1383 q 263 1082 263 1219 l 263 1028 l 444 1028 z "},"ु":{"ha":0,"x_min":-597,"x_max":1,"o":"m -274 -417 q -506 -344 -414 -417 q -593 -125 -597 -271 l -489 -125 q -435 -274 -494 -225 q -276 -324 -375 -324 q -147 -285 -194 -324 q -99 -179 -99 -247 q -133 -89 -99 -126 q -228 -51 -168 -51 l -262 -51 l -262 40 l -228 40 q -59 -22 -119 40 q 1 -181 1 -83 q -72 -353 1 -290 q -274 -417 -146 -417 z "},"ू":{"ha":0,"x_min":-474,"x_max":131,"o":"m -244 -406 q -409 -349 -344 -406 q -474 -190 -474 -292 q -400 -25 -474 -86 q -207 36 -326 36 q 44 -69 -43 36 q 131 -349 131 -175 q 129 -396 131 -381 l 33 -396 l 33 -339 q -32 -128 33 -204 q -207 -51 -97 -51 q -331 -90 -285 -51 q -378 -192 -378 -128 q -338 -285 -378 -250 q -237 -319 -299 -319 q -192 -317 -225 -319 l -192 -403 q -244 -406 -225 -406 z "},"ृ":{"ha":0,"x_min":-456,"x_max":-72,"o":"m -190 -431 q -378 -372 -301 -431 q -456 -196 -456 -314 q -385 -28 -456 -93 q -193 38 -315 38 l -146 38 l -146 -44 l -185 -44 q -301 -86 -260 -44 q -343 -192 -343 -128 q -295 -302 -343 -267 q -174 -337 -247 -337 q -72 -321 -125 -337 l -72 -412 q -190 -431 -124 -431 z "},"ॄ":{"ha":0,"x_min":-433,"x_max":-43,"o":"m -194 -621 q -365 -576 -297 -621 q -433 -437 -433 -531 q -398 -335 -433 -375 q -308 -282 -362 -294 l -308 -278 q -399 -226 -365 -264 q -433 -128 -433 -189 q -374 -3 -433 -43 q -232 38 -314 38 l -146 38 l -146 -29 l -192 -29 q -285 -53 -249 -29 q -322 -133 -322 -78 q -284 -210 -322 -185 q -185 -235 -246 -235 l -121 -235 l -121 -322 l -185 -322 q -283 -347 -244 -322 q -322 -426 -322 -371 q -282 -505 -322 -481 q -179 -529 -242 -529 q -104 -522 -143 -529 q -43 -508 -65 -515 l -43 -596 q -112 -614 -69 -607 q -194 -621 -154 -621 z "},"ॢ":{"ha":0,"x_min":-589,"x_max":213,"o":"m 153 -569 q 213 -560 186 -569 l 213 -636 q 143 -643 181 -643 q 1 -599 57 -643 q -54 -474 -54 -556 q -15 -365 -54 -410 q 89 -311 24 -321 q 93 -264 93 -289 q 61 -153 93 -196 q -31 -110 29 -110 q -128 -159 -94 -110 q -161 -290 -161 -208 l -161 -307 l -239 -307 l -239 -290 q -271 -159 -239 -208 q -364 -110 -303 -110 q -462 -152 -428 -110 q -497 -264 -497 -194 q -456 -385 -497 -340 q -342 -431 -415 -431 q -312 -428 -321 -431 l -312 -508 q -347 -511 -332 -511 q -526 -443 -462 -511 q -589 -264 -589 -375 q -530 -92 -589 -154 q -376 -29 -471 -29 q -261 -72 -304 -29 q -203 -175 -218 -114 l -200 -175 q -140 -72 -185 -114 q -18 -29 -94 -29 q 130 -92 74 -29 q 186 -264 186 -156 q 171 -364 186 -315 l 163 -364 q 67 -393 100 -364 q 33 -468 33 -422 q 68 -544 33 -518 q 153 -569 103 -569 z "},"ॣ":{"ha":0,"x_min":-589,"x_max":238,"o":"m 140 -725 q 195 -719 168 -725 q 238 -708 222 -714 l 238 -778 q 188 -791 218 -786 q 128 -796 158 -796 q 3 -762 53 -796 q -47 -661 -47 -729 q -22 -585 -47 -615 q 43 -547 4 -556 l 43 -544 q -23 -506 1 -535 q -47 -432 -47 -478 q -7 -342 -47 -372 q 90 -308 33 -311 q 93 -264 93 -281 q 61 -153 93 -196 q -31 -110 29 -110 q -128 -159 -94 -110 q -161 -290 -161 -208 l -161 -307 l -239 -307 l -239 -290 q -271 -159 -239 -208 q -364 -110 -303 -110 q -462 -152 -428 -110 q -497 -264 -497 -194 q -456 -385 -497 -340 q -342 -431 -415 -431 q -312 -428 -321 -431 l -312 -508 q -347 -511 -332 -511 q -526 -443 -462 -511 q -589 -264 -589 -375 q -530 -92 -589 -154 q -376 -29 -471 -29 q -261 -72 -304 -29 q -203 -175 -218 -114 l -200 -175 q -140 -72 -185 -114 q -18 -29 -94 -29 q 130 -92 74 -29 q 186 -264 186 -156 q 171 -364 186 -315 l 131 -364 q 65 -381 90 -364 q 39 -436 39 -399 q 65 -491 39 -474 q 136 -508 92 -508 l 182 -508 l 182 -579 l 139 -579 q 38 -653 38 -579 q 67 -708 38 -690 q 140 -725 96 -725 z "},"े":{"ha":0,"x_min":-642,"x_max":-146,"o":"m -256 1022 q -374 1188 -328 1136 q -465 1253 -421 1239 q -583 1268 -508 1268 l -642 1268 l -642 1363 l -585 1363 q -424 1342 -483 1363 q -301 1250 -364 1321 q -146 1022 -239 1179 l -256 1022 z "},"ै":{"ha":0,"x_min":-649,"x_max":-147,"o":"m -590 1446 q -433 1423 -489 1446 q -315 1313 -378 1400 q -147 1024 -251 1226 l -247 1024 q -378 1117 -332 1090 q -466 1151 -424 1144 q -590 1158 -508 1158 l -649 1158 l -649 1235 l -593 1235 q -471 1229 -512 1235 q -385 1200 -429 1224 q -274 1121 -340 1176 q -385 1290 -337 1238 q -476 1356 -433 1343 q -589 1369 -518 1369 l -649 1369 l -649 1446 l -590 1446 z "},"ो":{"ha":408,"x_min":-233,"x_max":444,"o":"m 146 931 l -36 931 l -36 1028 l 444 1028 l 444 931 l 263 931 l 263 0 l 146 0 l 146 931 m 153 1022 q 34 1188 81 1136 q -56 1253 -12 1239 q -175 1268 -100 1268 l -233 1268 l -233 1363 l -176 1363 q -15 1342 -75 1363 q 107 1250 44 1321 q 263 1022 169 1179 l 153 1022 z "},"ौ":{"ha":408,"x_min":-243,"x_max":444,"o":"m 146 931 l -36 931 l -36 1028 l 444 1028 l 444 931 l 263 931 l 263 0 l 146 0 l 146 931 m -185 1446 q -28 1423 -83 1446 q 91 1313 28 1400 q 258 1024 154 1226 l 158 1024 q 28 1117 74 1090 q -60 1151 -18 1144 q -185 1158 -103 1158 l -243 1158 l -243 1235 l -187 1235 q -65 1229 -107 1235 q 21 1200 -24 1224 q 132 1121 65 1176 q 20 1290 68 1238 q -70 1356 -28 1343 q -183 1369 -112 1369 l -243 1369 l -243 1446 l -185 1446 z "},"ॅ":{"ha":0,"x_min":-492,"x_max":72,"o":"m -210 1136 q -367 1169 -304 1136 q -461 1258 -431 1203 q -492 1381 -492 1314 l -392 1381 q -346 1270 -392 1317 q -210 1224 -300 1224 q -74 1270 -121 1224 q -28 1381 -28 1317 l 72 1381 q 42 1259 72 1314 q -53 1170 11 1204 q -210 1136 -117 1136 z "},"ॉ":{"ha":408,"x_min":-78,"x_max":486,"o":"m 146 931 l -36 931 l -36 1028 l 444 1028 l 444 931 l 263 931 l 263 0 l 146 0 l 146 931 m 204 1136 q 47 1169 110 1136 q -47 1258 -17 1203 q -78 1381 -78 1314 l 22 1381 q 68 1270 22 1317 q 204 1224 114 1224 q 340 1270 293 1224 q 386 1381 386 1317 l 486 1381 q 456 1259 486 1314 q 361 1170 425 1204 q 204 1136 297 1136 z "},"क":{"ha":1381,"x_min":-36,"x_max":1418,"o":"m 754 931 l 754 631 q 844 737 783 697 q 994 776 906 776 q 1144 736 1078 776 q 1248 624 1211 696 q 1285 461 1285 553 q 1247 290 1285 363 q 1144 180 1210 218 q 994 142 1078 142 q 908 151 943 142 l 908 243 q 967 238 931 238 q 1110 297 1054 238 q 1167 458 1167 356 q 1108 617 1167 557 q 963 676 1050 676 q 806 608 858 676 q 754 446 754 539 l 754 0 l 643 0 l 643 281 q 547 174 611 214 q 393 135 483 135 q 240 174 307 135 q 135 288 172 214 q 97 458 97 361 q 135 625 97 553 q 242 737 174 697 q 397 776 310 776 q 550 738 488 776 q 643 635 613 699 l 643 931 l -36 931 l -36 1028 l 1418 1028 l 1418 931 l 754 931 m 428 233 q 547 266 499 233 q 619 350 596 299 q 643 454 643 401 l 643 456 q 620 562 643 511 q 549 644 597 613 q 429 676 500 676 q 276 617 338 676 q 214 458 214 558 q 274 294 214 354 q 428 233 333 233 z "},"ख":{"ha":1296,"x_min":-36,"x_max":1333,"o":"m 1333 1028 l 1333 931 l 1150 931 l 1150 0 l 1035 0 l 1035 301 q 953 219 1006 250 q 826 189 900 189 q 774 193 799 189 q 652 50 731 104 q 463 -4 574 -4 q 210 87 304 -4 q 117 338 117 178 l 117 553 l 165 553 q 310 599 257 553 q 363 763 363 646 l 363 931 l -36 931 l -36 1028 l 1333 1028 m 465 96 q 597 133 543 96 q 679 228 650 169 q 585 329 619 264 q 551 478 551 394 q 588 624 551 560 q 686 722 624 688 q 826 757 749 757 q 953 726 900 757 q 1035 644 1006 696 l 1035 931 l 479 931 l 479 749 q 411 536 479 603 q 231 468 343 469 l 231 326 q 294 159 231 222 q 465 96 357 96 m 849 279 q 952 308 910 279 q 1015 381 994 336 q 1035 474 1035 425 q 988 608 1035 550 q 849 667 942 667 q 711 615 767 667 q 656 478 656 564 q 710 332 656 385 q 849 279 765 279 z "},"ग":{"ha":1035,"x_min":-36,"x_max":1072,"o":"m 1072 1028 l 1072 931 l 889 931 l 889 0 l 774 0 l 774 931 l 526 931 l 526 554 q 470 378 526 446 q 297 311 414 311 q 126 376 186 311 q 67 549 67 442 l 67 592 l 179 592 l 179 547 q 207 450 179 489 q 294 411 235 411 q 384 451 358 411 q 410 550 410 490 l 410 931 l -36 931 l -36 1028 l 1072 1028 z "},"घ":{"ha":986,"x_min":-36,"x_max":1024,"o":"m 1024 931 l 842 931 l 842 0 l 725 0 l 725 306 q 603 189 682 231 q 426 147 525 147 q 201 213 288 147 q 115 400 115 278 q 169 543 115 488 q 300 611 222 599 l 300 615 q 182 679 226 628 q 138 825 138 731 l 138 931 l -36 931 l -36 1028 l 1024 1028 l 1024 931 m 725 931 l 254 931 l 254 829 q 299 704 254 746 q 443 663 343 663 l 508 663 l 508 567 l 435 567 q 283 524 333 567 q 232 411 232 481 q 292 285 232 328 q 451 243 353 243 q 589 276 526 243 q 688 367 651 308 q 725 500 725 425 l 725 931 z "},"ङ":{"ha":917,"x_min":-36,"x_max":953,"o":"m 953 1028 l 953 931 l 649 931 l 649 678 l 403 678 q 284 653 332 678 q 236 563 236 628 q 277 476 236 503 q 383 449 318 449 l 446 449 q 649 393 567 449 q 731 214 731 338 q 654 44 731 108 q 438 -19 578 -19 q 192 53 283 -19 q 97 249 100 126 l 213 249 q 272 119 214 168 q 435 69 329 69 q 573 110 525 69 q 621 214 621 150 q 566 329 621 294 q 426 364 511 364 l 369 364 q 193 412 267 364 q 119 567 119 460 q 192 715 119 668 q 371 763 264 763 l 536 763 l 536 931 l -36 931 l -36 1028 l 953 1028 m 817 618 q 868 597 847 618 q 889 546 889 576 q 868 495 889 515 q 817 475 847 475 q 765 495 786 475 q 744 546 744 515 q 765 597 744 576 q 817 618 786 618 z "},"च":{"ha":1021,"x_min":-36,"x_max":1057,"o":"m 1057 931 l 874 931 l 874 0 l 758 0 l 758 283 q 650 178 721 217 q 492 139 579 139 q 342 172 410 139 q 236 267 275 204 q 197 417 197 331 q 230 549 197 490 q 322 640 263 607 l 69 640 l 69 733 l 574 733 l 574 640 l 525 640 q 366 583 426 640 q 306 435 306 525 q 367 290 306 343 q 519 236 429 236 q 644 269 589 236 q 728 358 699 301 q 758 485 758 415 l 758 931 l -36 931 l -36 1028 l 1057 1028 l 1057 931 z "},"छ":{"ha":1135,"x_min":-36,"x_max":1172,"o":"m 868 931 l 868 760 q 1015 668 958 742 q 1071 474 1071 594 q 1006 242 1071 340 q 824 90 942 143 q 553 38 707 38 q 224 116 347 38 q 101 343 101 194 q 155 496 101 438 q 294 572 208 554 l 294 575 q 178 639 222 588 q 133 785 133 690 l 133 931 l -36 931 l -36 1028 l 1172 1028 l 1172 931 l 868 931 m 761 931 l 250 931 l 250 789 q 293 663 250 706 q 432 621 336 621 l 463 621 l 463 528 l 435 528 q 274 478 328 528 q 219 353 219 429 q 308 193 219 249 q 553 138 396 138 q 769 178 675 138 q 915 296 863 219 q 967 478 967 372 q 922 624 967 572 q 814 676 876 676 q 712 637 756 676 q 668 517 668 597 q 690 388 668 461 l 593 388 q 569 528 569 456 q 623 690 569 632 q 761 761 676 747 l 761 931 z "},"ज":{"ha":1167,"x_min":-36,"x_max":1204,"o":"m 1204 931 l 1021 931 l 1021 0 l 906 0 l 906 593 l 642 593 l 642 463 q 569 260 642 338 q 371 182 496 182 q 175 259 246 182 q 104 463 104 336 l 104 693 l 221 693 l 221 464 q 261 333 221 382 q 372 283 301 283 q 487 333 444 283 q 529 464 529 382 l 529 693 l 906 693 l 906 931 l -36 931 l -36 1028 l 1204 1028 l 1204 931 z "},"झ":{"ha":1179,"x_min":-36,"x_max":1217,"o":"m 1217 931 l 1033 931 l 1033 0 l 919 0 l 919 360 l 657 361 q 725 200 725 303 q 663 49 725 108 q 486 -10 601 -10 q 331 28 388 -10 q 250 107 275 65 l 250 -107 l 140 -107 l 140 238 l 243 238 q 307 123 253 168 q 454 78 361 78 q 576 117 535 78 q 618 214 618 156 q 568 324 618 285 q 422 364 518 364 q 349 365 374 364 q 182 417 250 368 q 114 564 114 467 q 187 716 114 668 q 368 764 260 764 l 533 764 l 533 931 l -36 931 l -36 1028 l 1217 1028 l 1217 931 m 919 449 l 919 931 l 646 931 l 646 678 l 400 678 q 279 653 328 678 q 231 563 231 628 q 272 476 231 503 q 382 449 314 449 l 443 449 l 919 449 z "},"ञ":{"ha":1125,"x_min":-36,"x_max":1161,"o":"m 1161 931 l 979 931 l 979 0 l 863 0 l 863 407 l 715 407 q 620 203 703 282 q 403 124 538 124 q 249 156 315 124 q 145 244 183 189 q 97 365 107 299 l 207 365 q 274 265 224 306 q 404 224 324 224 q 558 289 504 224 q 613 453 613 354 q 558 613 613 547 q 404 678 504 678 q 271 636 321 678 q 207 535 221 594 l 97 535 q 190 708 111 639 q 403 778 269 778 q 617 701 535 778 q 715 506 699 625 l 863 506 l 863 931 l -36 931 l -36 1028 l 1161 1028 l 1161 931 z "},"ट":{"ha":903,"x_min":-36,"x_max":940,"o":"m 504 671 q 294 603 376 671 q 213 410 213 536 q 246 281 213 338 q 338 192 279 224 q 471 160 397 160 q 605 193 546 160 q 697 285 664 226 q 729 419 729 344 l 840 419 q 794 232 840 314 q 665 104 749 150 q 472 58 582 58 q 278 103 364 58 q 145 227 193 147 q 97 410 97 307 q 148 606 97 525 q 289 728 199 686 q 499 769 379 769 l 531 769 l 531 931 l -36 931 l -36 1028 l 940 1028 l 940 931 l 644 931 l 644 671 l 504 671 z "},"ठ":{"ha":939,"x_min":-36,"x_max":975,"o":"m 525 931 l 525 761 q 687 705 615 750 q 800 585 758 660 q 842 415 842 511 q 793 233 842 313 q 660 109 744 153 q 469 65 575 65 q 279 109 364 65 q 146 232 194 153 q 97 415 97 311 q 138 585 97 511 q 251 703 179 658 q 411 760 322 749 l 411 931 l -36 931 l -36 1028 l 975 1028 l 975 931 l 525 931 m 726 415 q 694 544 726 488 q 602 633 661 601 q 469 665 543 665 q 337 633 396 665 q 245 544 278 601 q 213 415 213 488 q 245 285 213 343 q 337 196 278 228 q 469 164 396 164 q 602 196 543 164 q 694 285 661 228 q 726 415 726 343 z "},"ड":{"ha":797,"x_min":-36,"x_max":835,"o":"m 403 678 q 284 653 332 678 q 236 563 236 628 q 277 476 236 503 q 383 449 318 449 l 446 449 q 649 393 567 449 q 731 214 731 338 q 654 44 731 108 q 438 -19 578 -19 q 192 53 283 -19 q 97 249 100 126 l 213 249 q 272 119 214 168 q 435 69 329 69 q 573 110 525 69 q 621 214 621 150 q 566 329 621 294 q 426 364 511 364 l 369 364 q 193 412 267 364 q 119 567 119 460 q 192 715 119 668 q 371 763 264 763 l 529 763 l 529 931 l -36 931 l -36 1028 l 835 1028 l 835 931 l 642 931 l 642 678 l 403 678 z "},"ढ":{"ha":890,"x_min":-36,"x_max":926,"o":"m 539 692 q 301 615 392 692 q 210 390 210 538 q 247 239 210 306 q 355 135 285 172 q 517 97 425 97 q 683 148 618 97 q 749 282 749 199 q 710 385 749 344 q 611 425 671 425 q 522 391 558 425 q 485 303 485 357 q 488 276 485 290 l 401 276 q 397 318 397 314 q 459 458 397 407 q 615 510 521 510 q 786 447 722 510 q 850 282 850 383 q 809 140 850 201 q 693 44 768 78 q 515 11 618 11 q 301 58 396 11 q 151 192 206 106 q 97 394 97 279 q 150 603 97 518 q 295 732 203 689 q 506 775 388 775 l 561 775 l 561 931 l -36 931 l -36 1028 l 926 1028 l 926 931 l 671 931 l 671 692 l 539 692 z "},"ण":{"ha":1189,"x_min":-36,"x_max":1225,"o":"m 1225 931 l 1043 931 l 1043 0 l 926 0 l 926 931 l 656 931 l 656 532 q 586 331 656 407 q 390 254 517 254 q 196 331 265 254 q 126 532 126 408 l 126 931 l -36 931 l -36 1028 l 1225 1028 l 1225 931 m 542 931 l 240 931 l 240 522 q 281 399 240 446 q 392 353 322 353 q 502 399 463 353 q 542 522 542 446 l 542 931 z "},"त":{"ha":964,"x_min":-36,"x_max":1000,"o":"m 1000 931 l 817 931 l 817 0 l 701 0 l 701 592 l 499 592 q 290 529 365 592 q 214 344 214 467 q 281 160 214 226 q 474 94 349 94 l 504 94 l 504 3 l 458 3 q 195 91 293 3 q 97 346 97 179 q 205 606 97 519 q 493 692 313 692 l 701 692 l 701 931 l -36 931 l -36 1028 l 1000 1028 l 1000 931 z "},"थ":{"ha":1064,"x_min":110,"x_max":1101,"o":"m 1101 1028 l 1101 931 l 918 931 l 918 0 l 801 0 l 801 318 q 690 190 771 243 q 488 138 608 138 q 286 183 371 138 q 156 315 201 229 q 110 517 110 401 q 114 589 110 551 l 250 589 q 536 786 536 589 q 497 897 536 853 q 388 940 457 940 q 273 897 314 940 q 232 779 232 853 q 238 719 232 758 l 132 719 q 126 783 126 761 q 199 972 126 903 q 389 1040 272 1040 q 524 1008 465 1040 q 614 917 582 975 q 646 783 646 858 q 549 574 646 644 q 292 504 453 504 l 222 504 q 293 308 221 382 q 503 235 365 235 q 653 270 585 235 q 761 372 721 306 q 801 526 801 438 l 801 1028 l 1101 1028 z "},"द":{"ha":846,"x_min":-36,"x_max":883,"o":"m 476 678 q 289 618 363 678 q 215 449 215 558 q 274 290 215 350 q 433 231 333 231 q 527 251 482 231 q 601 315 572 272 q 631 419 631 357 l 738 419 l 738 -22 l 624 -22 l 624 244 q 535 167 594 196 q 403 138 476 138 q 244 175 314 138 q 136 283 175 213 q 97 451 97 354 q 146 631 97 557 q 278 741 194 704 q 465 778 361 778 l 567 778 l 567 931 l -36 931 l -36 1028 l 883 1028 l 882 931 l 683 931 l 683 678 l 476 678 z "},"ध":{"ha":989,"x_min":114,"x_max":1031,"o":"m 1031 931 l 850 931 l 850 0 l 733 0 l 733 304 q 611 181 692 225 q 424 136 531 136 q 207 199 292 136 q 122 378 122 263 q 173 516 122 464 q 292 579 224 568 l 292 583 q 165 658 217 601 q 114 811 114 715 q 179 976 114 913 q 350 1040 244 1040 q 519 979 457 1040 q 581 819 581 918 q 579 774 581 789 l 490 774 l 492 807 q 455 903 492 865 q 354 942 418 942 q 251 901 289 942 q 214 799 214 861 q 272 676 214 721 q 425 632 329 632 l 504 632 l 504 536 l 429 536 q 289 496 338 536 q 240 389 240 456 q 299 272 240 313 q 450 232 357 232 q 595 268 531 232 q 697 369 660 304 q 733 515 733 433 l 733 1028 l 1031 1028 l 1031 931 z "},"न":{"ha":1097,"x_min":-36,"x_max":1133,"o":"m 1133 931 l 950 931 l 950 0 l 835 0 l 835 603 l 564 603 q 619 524 599 571 q 639 418 639 476 q 603 282 639 340 q 507 193 568 224 q 369 163 446 163 q 226 196 290 163 q 124 290 161 229 q 88 431 88 350 q 126 575 88 514 q 230 668 164 636 q 379 700 296 700 l 835 700 l 835 931 l -36 931 l -36 1028 l 1133 1028 l 1133 931 m 371 261 q 496 309 447 261 q 544 432 544 357 q 496 554 544 506 q 371 603 447 603 q 243 555 293 603 q 193 431 193 507 q 242 308 193 356 q 371 261 292 261 z "},"प":{"ha":910,"x_min":-36,"x_max":946,"o":"m 946 931 l 764 931 l 764 0 l 649 0 l 649 393 q 555 305 614 336 q 415 274 496 274 q 194 366 269 274 q 118 618 118 458 l 118 931 l -36 931 l -36 1028 l 946 1028 l 946 931 m 649 931 l 233 931 l 233 618 q 285 437 233 501 q 443 372 338 372 q 594 434 539 372 q 649 588 649 496 l 649 931 z "},"फ":{"ha":1368,"x_min":-36,"x_max":1406,"o":"m 738 931 l 738 631 q 831 737 768 697 q 983 776 893 776 q 1133 737 1067 776 q 1235 626 1199 697 q 1272 464 1272 556 q 1235 291 1272 364 q 1131 180 1197 218 q 982 142 1065 142 q 893 153 933 142 l 893 243 q 956 236 924 236 q 1100 296 1044 236 q 1156 458 1156 356 q 1097 617 1156 557 q 950 676 1039 676 q 791 606 844 676 q 738 435 738 535 l 738 0 l 622 0 l 622 390 q 534 304 590 335 q 403 274 478 274 q 191 365 264 274 q 118 613 118 456 l 118 931 l -36 931 l -36 1028 l 1406 1028 l 1406 931 l 738 931 m 622 931 l 233 931 l 233 613 q 282 435 233 499 q 429 372 331 372 q 571 433 519 372 q 622 582 622 493 l 622 931 z "},"ब":{"ha":957,"x_min":-36,"x_max":993,"o":"m 993 1028 l 993 931 l 811 931 l 811 0 l 699 0 l 699 272 q 597 167 665 207 q 433 126 528 126 q 263 167 340 126 q 142 284 186 208 q 97 458 97 360 q 141 633 97 557 q 261 749 185 708 q 432 790 338 790 q 594 750 526 790 q 699 643 661 710 l 699 931 l -36 931 l -36 1028 l 993 1028 m 453 711 q 281 649 351 711 l 663 315 q 706 460 706 381 q 676 581 706 524 q 590 675 647 639 q 453 711 533 711 m 200 458 q 234 327 200 383 q 326 241 268 271 q 456 211 385 211 q 626 274 560 211 l 244 608 q 200 458 200 544 z "},"भ":{"ha":1104,"x_min":106,"x_max":1142,"o":"m 1142 1028 l 1142 931 l 957 931 l 957 0 l 842 0 l 842 535 l 614 535 l 614 428 q 549 215 614 289 q 363 140 483 140 q 176 208 247 140 q 106 386 106 275 q 181 565 106 500 q 375 631 257 631 l 506 631 l 506 761 q 474 893 506 846 q 378 940 443 940 q 286 901 321 940 q 251 794 251 863 q 256 742 251 771 l 140 742 q 135 799 135 778 q 199 974 135 908 q 374 1040 263 1040 q 556 961 497 1040 q 614 743 614 882 l 614 631 l 842 631 l 842 1028 l 1142 1028 m 506 535 l 378 535 q 260 494 306 535 q 214 386 214 454 q 256 279 214 319 q 361 239 297 239 q 467 287 429 239 q 506 421 506 335 l 506 535 z "},"म":{"ha":1092,"x_min":-36,"x_max":1129,"o":"m 1129 931 l 946 931 l 946 0 l 829 0 l 829 535 l 575 535 l 575 428 q 510 215 575 289 q 324 140 444 140 q 137 208 207 140 q 67 386 67 275 q 142 566 67 501 q 335 631 217 631 l 467 631 l 467 931 l -36 931 l -36 1028 l 1129 1028 l 1129 931 m 829 931 l 575 931 l 575 631 l 829 631 l 829 931 m 467 535 l 338 535 q 220 494 265 535 q 175 386 175 454 q 216 279 175 319 q 321 239 257 239 q 428 287 389 239 q 467 421 467 335 l 467 535 z "},"य":{"ha":1024,"x_min":-36,"x_max":1061,"o":"m 1061 931 l 878 931 l 878 0 l 763 0 l 763 304 q 646 195 722 236 q 463 154 569 154 q 192 260 289 154 q 96 546 96 365 q 100 611 96 581 l 119 611 q 306 663 243 611 q 368 835 368 715 l 368 931 l -36 931 l -36 1028 l 1061 1028 l 1061 931 m 763 931 l 482 931 l 482 817 q 210 546 482 557 l 210 536 q 283 328 210 404 q 486 253 356 253 q 627 285 564 253 q 726 378 690 318 q 763 514 763 438 l 763 931 z "},"र":{"ha":743,"x_min":-36,"x_max":781,"o":"m 229 471 l 229 281 q 269 140 229 193 q 388 88 310 88 q 503 137 461 88 q 546 267 546 186 l 546 293 l 657 293 l 657 269 q 585 64 657 140 q 389 -12 514 -12 q 185 70 257 -12 q 114 286 114 153 l 114 565 l 261 565 q 499 799 499 565 l 499 931 l -36 931 l -36 1028 l 781 1028 l 781 931 l 614 931 l 614 799 q 536 556 614 640 q 300 471 458 471 l 229 471 z "},"ल":{"ha":1256,"x_min":-36,"x_max":1292,"o":"m 950 931 l 950 746 q 1102 641 1046 722 q 1158 436 1158 560 q 1121 260 1158 338 q 1008 140 1083 183 q 828 96 933 96 q 781 99 817 96 l 781 200 q 821 197 808 197 q 983 263 925 197 q 1042 435 1042 328 q 995 590 1042 529 q 863 651 949 651 q 724 583 771 651 q 676 397 676 514 l 676 376 l 579 376 l 579 397 q 534 582 579 513 q 401 651 489 651 q 263 591 311 651 q 214 435 214 531 q 272 263 214 328 q 435 197 329 197 q 475 200 444 197 l 475 99 q 428 96 439 96 q 247 140 322 96 q 135 260 172 183 q 97 436 97 338 q 133 606 97 533 q 235 716 169 678 q 386 754 301 754 q 546 696 488 754 q 626 553 604 638 l 629 553 q 700 684 650 629 q 836 751 750 739 l 836 931 l -36 931 l -36 1028 l 1292 1028 l 1292 931 l 950 931 z "},"व":{"ha":936,"x_min":-36,"x_max":974,"o":"m 974 1028 l 974 931 l 790 931 l 790 0 l 678 0 l 678 281 q 575 172 643 213 q 414 132 507 132 q 249 173 321 132 q 138 288 178 214 q 97 461 97 363 q 138 628 97 556 q 250 742 178 701 q 414 782 322 782 q 576 742 508 782 q 678 636 643 703 l 678 931 l -36 931 l -36 1028 l 974 1028 m 443 226 q 574 260 521 226 q 652 347 626 294 q 678 456 678 400 q 652 567 678 514 q 574 654 626 621 q 443 688 521 688 q 325 660 378 688 q 242 580 272 632 q 211 460 211 528 q 276 290 211 353 q 443 226 342 226 z "},"श":{"ha":1131,"x_min":124,"x_max":1168,"o":"m 242 444 l 242 292 q 285 144 242 200 q 418 89 329 89 q 539 140 494 89 q 583 275 583 190 l 583 293 l 696 293 q 697 274 697 285 q 623 65 697 142 q 421 -11 549 -11 q 201 73 279 -11 q 124 299 124 157 l 124 543 l 328 543 q 520 597 446 543 q 594 754 594 650 q 548 889 594 839 q 422 939 501 939 q 298 890 344 939 q 251 756 251 840 q 256 694 251 726 l 140 694 q 135 758 135 739 q 213 963 135 885 q 422 1040 290 1040 q 633 963 554 1040 q 713 747 713 886 q 616 523 713 601 q 367 444 519 444 l 242 444 m 1168 1028 l 1168 931 l 985 931 l 985 0 l 868 0 l 868 1028 l 1168 1028 z "},"ष":{"ha":919,"x_min":-36,"x_max":956,"o":"m 956 931 l 772 931 l 772 0 l 658 0 l 658 386 q 565 298 624 329 q 422 267 506 267 q 196 361 274 267 q 118 618 118 456 l 118 931 l -36 931 l -36 1028 l 956 1028 l 956 931 m 658 931 l 231 931 l 658 585 l 658 931 m 444 365 q 572 402 521 365 q 644 501 624 439 l 231 838 l 231 615 q 284 431 231 497 q 444 365 338 365 z "},"स":{"ha":1138,"x_min":-36,"x_max":1175,"o":"m 1175 931 l 992 931 l 992 0 l 875 0 l 875 486 l 229 486 l 229 282 q 270 141 229 194 q 390 88 311 88 q 507 137 464 88 q 550 267 550 186 l 550 283 l 661 283 q 663 261 663 274 q 590 62 663 136 q 392 -12 517 -12 q 185 70 257 -12 q 114 288 114 153 l 114 571 l 244 571 q 422 633 361 571 q 482 804 482 696 l 482 931 l -36 931 l -36 1028 l 1175 1028 l 1175 931 m 875 931 l 596 931 l 596 804 q 574 675 596 732 q 511 581 551 618 l 875 581 l 875 931 z "},"ह":{"ha":814,"x_min":-36,"x_max":850,"o":"m 400 683 q 293 657 335 683 q 251 572 251 631 q 278 499 251 529 q 350 457 304 469 q 428 464 389 464 q 640 398 563 464 q 733 235 717 332 l 622 235 q 559 330 610 289 q 426 371 508 371 q 273 311 329 371 q 217 161 217 251 q 272 11 217 69 q 426 -47 328 -47 q 556 -8 504 -47 q 622 85 607 32 l 733 85 q 685 -30 724 22 q 579 -113 646 -82 q 426 -144 513 -144 q 252 -104 325 -144 q 142 6 179 -64 q 104 163 104 75 q 144 318 104 250 q 254 424 183 386 q 168 489 200 446 q 136 593 136 532 q 199 723 136 678 q 363 768 261 768 l 543 768 l 543 931 l -36 931 l -36 1028 l 850 1028 l 850 931 l 654 931 l 654 683 l 400 683 z "},"ळ":{"ha":1385,"x_min":-36,"x_max":1422,"o":"m 1049 931 l 1049 756 q 1222 649 1156 733 q 1289 444 1289 565 q 1248 282 1289 353 q 1135 172 1207 211 q 976 132 1064 132 q 797 187 872 132 q 694 326 721 242 l 690 326 q 588 186 663 240 q 408 132 513 132 q 250 172 321 132 q 138 282 179 211 q 97 444 97 353 q 138 611 97 539 q 250 723 179 683 q 408 763 321 763 q 584 710 513 763 q 690 571 656 658 l 694 571 q 787 699 725 649 q 936 760 849 750 l 936 931 l -36 931 l -36 1028 l 1422 1028 l 1422 931 l 1049 931 m 424 232 q 576 291 518 232 q 635 444 635 350 q 576 601 635 540 q 424 663 518 663 q 269 602 329 663 q 210 443 210 542 q 270 290 210 349 q 424 232 331 232 m 1175 443 q 1115 602 1175 542 q 963 663 1056 663 q 808 601 867 663 q 750 444 750 540 q 808 291 750 350 q 961 232 867 232 q 1115 290 1054 232 q 1175 443 1175 349 z "},"क़":{"ha":1381,"x_min":-36,"x_max":1418,"o":"m 754 931 l 754 631 q 844 737 783 697 q 994 776 906 776 q 1144 736 1078 776 q 1248 624 1211 696 q 1285 461 1285 553 q 1247 290 1285 363 q 1144 180 1210 218 q 994 142 1078 142 q 908 151 943 142 l 908 243 q 967 238 931 238 q 1110 297 1054 238 q 1167 458 1167 356 q 1108 617 1167 557 q 963 676 1050 676 q 806 608 858 676 q 754 446 754 539 l 754 0 l 643 0 l 643 281 q 547 174 611 214 q 393 135 483 135 q 240 174 307 135 q 135 288 172 214 q 97 458 97 361 q 135 625 97 553 q 242 737 174 697 q 397 776 310 776 q 550 738 488 776 q 643 635 613 699 l 643 931 l -36 931 l -36 1028 l 1418 1028 l 1418 931 l 754 931 m 428 233 q 547 266 499 233 q 619 350 596 299 q 643 454 643 401 l 643 456 q 620 562 643 511 q 549 644 597 613 q 429 676 500 676 q 276 617 338 676 q 214 458 214 558 q 274 294 214 354 q 428 233 333 233 m 374 -131 q 318 -108 340 -131 q 296 -54 296 -86 q 318 2 296 -21 q 374 25 340 25 q 429 2 407 25 q 451 -54 451 -21 q 429 -108 451 -86 q 374 -131 407 -131 z "},"ख़":{"ha":1296,"x_min":-36,"x_max":1333,"o":"m 1333 1028 l 1333 931 l 1150 931 l 1150 0 l 1035 0 l 1035 301 q 953 219 1006 250 q 826 189 900 189 q 774 193 799 189 q 652 50 731 104 q 463 -4 574 -4 q 210 87 304 -4 q 117 338 117 178 l 117 553 l 165 553 q 310 599 257 553 q 363 763 363 646 l 363 931 l -36 931 l -36 1028 l 1333 1028 m 465 96 q 597 133 543 96 q 679 228 650 169 q 585 329 619 264 q 551 478 551 394 q 588 624 551 560 q 686 722 624 688 q 826 757 749 757 q 953 726 900 757 q 1035 644 1006 696 l 1035 931 l 479 931 l 479 749 q 411 536 479 603 q 231 468 343 469 l 231 326 q 294 159 231 222 q 465 96 357 96 m 849 279 q 952 308 910 279 q 1015 381 994 336 q 1035 474 1035 425 q 988 608 1035 550 q 849 667 942 667 q 711 615 767 667 q 656 478 656 564 q 710 332 656 385 q 849 279 765 279 m 439 -268 q 383 -246 406 -268 q 361 -192 361 -224 q 383 -135 361 -158 q 439 -112 406 -112 q 494 -135 472 -112 q 517 -192 517 -158 q 494 -246 517 -224 q 439 -268 472 -268 z "},"ग़":{"ha":1035,"x_min":-36,"x_max":1072,"o":"m 1072 1028 l 1072 931 l 889 931 l 889 0 l 774 0 l 774 931 l 526 931 l 526 554 q 470 378 526 446 q 297 311 414 311 q 126 376 186 311 q 67 549 67 442 l 67 592 l 179 592 l 179 547 q 207 450 179 489 q 294 411 235 411 q 384 451 358 411 q 410 550 410 490 l 410 931 l -36 931 l -36 1028 l 1072 1028 m 304 39 q 249 61 271 39 q 226 115 226 83 q 249 172 226 149 q 304 194 271 194 q 360 172 338 194 q 382 115 382 149 q 360 61 382 83 q 304 39 338 39 z "},"ज़":{"ha":1167,"x_min":-36,"x_max":1204,"o":"m 1204 931 l 1021 931 l 1021 0 l 906 0 l 906 593 l 642 593 l 642 463 q 569 260 642 338 q 371 182 496 182 q 175 259 246 182 q 104 463 104 336 l 104 693 l 221 693 l 221 464 q 261 333 221 382 q 372 283 301 283 q 487 333 444 283 q 529 464 529 382 l 529 693 l 906 693 l 906 931 l -36 931 l -36 1028 l 1204 1028 l 1204 931 m 376 -83 q 321 -61 343 -83 q 299 -7 299 -39 q 321 49 299 26 q 376 72 343 72 q 432 49 410 72 q 454 -7 454 26 q 432 -61 454 -39 q 376 -83 410 -83 z "},"ड़":{"ha":797,"x_min":-36,"x_max":835,"o":"m 403 678 q 284 653 332 678 q 236 563 236 628 q 277 476 236 503 q 383 449 318 449 l 446 449 q 649 393 567 449 q 731 214 731 338 q 654 44 731 108 q 438 -19 578 -19 q 192 53 283 -19 q 97 249 100 126 l 213 249 q 272 119 214 168 q 435 69 329 69 q 573 110 525 69 q 621 214 621 150 q 566 329 621 294 q 426 364 511 364 l 369 364 q 193 412 267 364 q 119 567 119 460 q 192 715 119 668 q 371 763 264 763 l 529 763 l 529 931 l -36 931 l -36 1028 l 835 1028 l 835 931 l 642 931 l 642 678 l 403 678 m 432 -285 q 376 -262 399 -285 q 354 -208 354 -240 q 376 -152 354 -175 q 432 -129 399 -129 q 488 -152 465 -129 q 510 -208 510 -175 q 488 -262 510 -240 q 432 -285 465 -285 z "},"ढ़":{"ha":890,"x_min":-36,"x_max":926,"o":"m 539 692 q 301 615 392 692 q 210 390 210 538 q 247 239 210 306 q 355 135 285 172 q 517 97 425 97 q 683 148 618 97 q 749 282 749 199 q 710 385 749 344 q 611 425 671 425 q 522 391 558 425 q 485 303 485 357 q 488 276 485 290 l 401 276 q 397 318 397 314 q 459 458 397 407 q 615 510 521 510 q 786 447 722 510 q 850 282 850 383 q 809 140 850 201 q 693 44 768 78 q 515 11 618 11 q 301 58 396 11 q 151 192 206 106 q 97 394 97 279 q 150 603 97 518 q 295 732 203 689 q 506 775 388 775 l 561 775 l 561 931 l -36 931 l -36 1028 l 926 1028 l 926 931 l 671 931 l 671 692 l 539 692 m 481 -254 q 425 -232 447 -254 q 403 -178 403 -210 q 425 -122 403 -144 q 481 -99 447 -99 q 536 -122 514 -99 q 558 -178 558 -144 q 536 -232 558 -210 q 481 -254 514 -254 z "},"फ़":{"ha":1368,"x_min":-36,"x_max":1406,"o":"m 738 931 l 738 631 q 831 737 768 697 q 983 776 893 776 q 1133 737 1067 776 q 1235 626 1199 697 q 1272 464 1272 556 q 1235 291 1272 364 q 1131 180 1197 218 q 982 142 1065 142 q 893 153 933 142 l 893 243 q 956 236 924 236 q 1100 296 1044 236 q 1156 458 1156 356 q 1097 617 1156 557 q 950 676 1039 676 q 791 606 844 676 q 738 435 738 535 l 738 0 l 622 0 l 622 390 q 534 304 590 335 q 403 274 478 274 q 191 365 264 274 q 118 613 118 456 l 118 931 l -36 931 l -36 1028 l 1406 1028 l 1406 931 l 738 931 m 622 931 l 233 931 l 233 613 q 282 435 233 499 q 429 372 331 372 q 571 433 519 372 q 622 582 622 493 l 622 931 m 360 11 q 304 33 326 11 q 282 88 282 56 q 304 144 282 121 q 360 167 326 167 q 415 144 393 167 q 438 88 438 121 q 415 33 438 56 q 360 11 393 11 z "},"ऱ":{"ha":743,"x_min":-36,"x_max":781,"o":"m 229 471 l 229 281 q 269 140 229 193 q 388 88 310 88 q 503 137 461 88 q 546 267 546 186 l 546 293 l 657 293 l 657 269 q 585 64 657 140 q 389 -12 514 -12 q 185 70 257 -12 q 114 286 114 153 l 114 565 l 261 565 q 499 799 499 565 l 499 931 l -36 931 l -36 1028 l 781 1028 l 781 931 l 614 931 l 614 799 q 536 556 614 640 q 300 471 458 471 l 229 471 m 160 -222 q 104 -200 126 -222 q 82 -146 82 -178 q 104 -90 82 -112 q 160 -67 126 -67 q 215 -90 193 -67 q 238 -146 238 -112 q 215 -200 238 -178 q 160 -222 193 -222 z "},"ं":{"ha":0,"x_min":-283,"x_max":-126,"o":"m -204 1160 q -260 1183 -237 1160 q -283 1238 -283 1206 q -260 1292 -283 1269 q -204 1315 -237 1315 q -149 1292 -172 1315 q -126 1238 -126 1269 q -149 1183 -126 1206 q -204 1160 -172 1160 z "},"ँ":{"ha":0,"x_min":-492,"x_max":72,"o":"m -210 1364 q -251 1381 -233 1364 q -268 1421 -268 1397 q -251 1463 -268 1446 q -210 1479 -233 1479 q -168 1463 -185 1479 q -151 1421 -151 1446 q -168 1381 -151 1397 q -210 1364 -185 1364 m -210 1136 q -365 1169 -301 1136 q -460 1257 -428 1201 q -492 1381 -492 1313 l -399 1381 q -349 1269 -399 1317 q -210 1221 -300 1221 q -71 1269 -119 1221 q -22 1381 -22 1317 l 72 1381 q 40 1257 72 1313 q -55 1169 8 1201 q -210 1136 -118 1136 z "},"ः":{"ha":322,"x_min":83,"x_max":239,"o":"m 161 606 q 106 628 128 606 q 83 683 83 651 q 106 738 83 715 q 161 761 128 761 q 217 738 194 761 q 239 683 239 715 q 217 628 239 651 q 161 606 194 606 m 161 185 q 106 207 128 185 q 83 261 83 229 q 106 317 83 294 q 161 339 128 339 q 217 317 194 339 q 239 261 239 294 q 217 207 239 229 q 161 185 194 185 z "},"ऽ":{"ha":800,"x_min":106,"x_max":678,"o":"m 106 183 l 429 183 q 515 208 485 183 q 544 272 544 233 q 508 359 544 318 q 393 467 471 400 q 286 563 328 521 q 215 656 244 604 q 186 765 186 707 q 244 892 186 851 q 396 933 301 933 l 678 933 l 678 835 l 422 835 q 336 816 368 835 q 304 750 304 797 q 343 658 304 703 q 460 550 382 614 q 566 453 526 493 q 634 364 606 414 q 663 257 663 314 q 609 134 663 182 q 456 86 556 86 l 106 86 l 106 183 z "},"्":{"ha":0,"x_min":-257,"x_max":31,"o":"m -257 -85 l -142 -85 l 31 -361 l -89 -361 l -257 -85 z "},"़":{"ha":0,"x_min":-576,"x_max":-421,"o":"m -499 -206 q -554 -183 -532 -206 q -576 -129 -576 -161 q -554 -73 -576 -96 q -499 -50 -532 -50 q -443 -73 -465 -50 q -421 -129 -421 -96 q -443 -183 -421 -161 q -499 -206 -465 -206 z "},"०":{"ha":853,"x_min":79,"x_max":775,"o":"m 79 496 q 157 128 79 260 q 426 -4 235 -4 q 697 128 618 -4 q 775 496 775 260 q 697 861 775 729 q 426 993 618 993 q 157 862 235 993 q 79 496 79 731 m 650 496 q 633 294 650 375 q 567 164 615 213 q 426 115 518 115 q 288 164 336 115 q 222 294 239 213 q 204 496 204 375 q 222 696 204 615 q 288 824 239 776 q 426 872 336 872 q 567 824 518 872 q 633 696 615 776 q 650 496 650 615 z "},"१":{"ha":399,"x_min":18,"x_max":299,"o":"m 18 861 l 18 979 l 299 979 l 299 0 l 165 0 l 165 861 l 18 861 z "},"२":{"ha":788,"x_min":58,"x_max":732,"o":"m 58 97 q 436 412 294 256 q 578 703 578 568 q 535 837 578 786 q 399 888 493 888 q 251 826 301 888 q 196 656 201 764 l 71 656 q 172 908 81 819 q 408 996 264 996 q 626 922 546 996 q 707 714 707 849 q 635 488 707 603 q 456 276 564 374 q 235 110 349 178 l 732 110 l 732 6 l 58 6 l 58 97 z "},"३":{"ha":818,"x_min":65,"x_max":733,"o":"m 415 1006 q 578 972 510 1006 q 681 881 646 939 q 715 749 715 822 q 662 594 715 657 q 506 519 608 532 l 506 511 q 673 425 613 483 q 733 264 733 367 q 653 67 733 143 q 421 -10 572 -10 q 176 69 269 -10 q 65 299 82 147 l 190 299 q 260 153 203 207 q 417 99 318 99 q 560 147 510 99 q 610 271 610 194 q 538 410 610 363 q 335 458 467 458 l 301 458 l 301 564 l 335 564 q 590 735 590 564 q 543 854 590 810 q 413 899 496 899 q 272 851 329 899 q 206 710 215 803 l 82 710 q 178 927 92 849 q 415 1006 265 1006 z "},"४":{"ha":861,"x_min":43,"x_max":826,"o":"m 43 225 l 43 331 l 546 986 l 682 986 l 682 335 l 826 335 l 826 225 l 682 225 l 682 0 l 554 0 l 554 225 l 43 225 m 563 832 l 176 335 l 563 335 l 563 832 z "},"५":{"ha":856,"x_min":108,"x_max":786,"o":"m 739 879 l 236 879 l 236 551 q 336 626 271 599 q 479 654 401 654 q 652 610 583 654 q 753 495 721 567 q 786 336 786 424 q 701 89 786 185 q 453 -7 617 -7 q 213 73 306 -7 q 108 288 119 153 l 233 288 q 305 153 249 201 q 447 106 361 106 q 608 169 554 106 q 663 338 663 233 q 607 496 663 439 q 450 553 551 553 q 324 522 378 553 q 242 438 269 490 l 119 438 l 119 992 l 739 992 l 739 879 z "},"६":{"ha":863,"x_min":89,"x_max":786,"o":"m 632 718 q 573 853 621 806 q 440 901 525 901 q 262 810 322 901 q 201 519 201 718 l 203 468 q 299 601 224 551 q 475 650 374 650 q 703 563 621 650 q 786 318 786 475 q 750 152 786 226 q 640 34 714 78 q 456 -10 565 -10 q 167 122 246 -10 q 89 481 89 254 q 173 873 89 742 q 447 1004 257 1004 q 663 925 588 1004 q 753 718 739 846 l 632 718 m 217 339 q 276 169 217 238 q 453 100 335 100 q 608 158 550 100 q 667 319 667 215 q 608 491 667 432 q 447 550 550 550 q 336 526 389 550 q 250 455 283 503 q 217 339 217 407 z "},"७":{"ha":703,"x_min":19,"x_max":661,"o":"m 661 888 l 290 0 l 157 0 l 533 875 l 19 875 l 19 985 l 661 985 l 661 888 z "},"८":{"ha":868,"x_min":74,"x_max":796,"o":"m 99 749 q 138 881 99 821 q 253 975 176 940 q 435 1010 329 1010 q 616 975 540 1010 q 731 881 692 940 q 769 749 769 821 q 725 607 769 667 q 590 522 681 547 q 742 431 688 496 q 796 269 796 365 q 697 51 796 131 q 435 -28 599 -28 q 172 51 271 -28 q 74 269 74 131 q 127 431 74 365 q 278 522 181 496 q 143 607 188 547 q 99 749 99 667 m 224 731 q 281 602 224 647 q 435 557 338 557 q 588 602 532 557 q 644 731 644 647 q 588 859 644 814 q 435 904 531 904 q 281 859 339 904 q 224 731 224 814 m 197 276 q 261 130 197 182 q 435 78 325 78 q 607 131 543 78 q 671 276 671 183 q 604 419 671 371 q 435 468 538 468 q 264 419 331 468 q 197 276 197 371 z "},"९":{"ha":844,"x_min":68,"x_max":767,"o":"m 222 275 q 283 140 235 188 q 417 93 332 93 q 593 183 533 93 q 653 469 653 274 q 651 526 653 507 q 557 393 632 443 q 381 343 482 343 q 151 431 235 343 q 68 675 68 518 q 104 842 68 767 q 215 960 140 917 q 399 1004 289 1004 q 688 874 610 1004 q 767 518 767 744 q 686 124 767 260 q 417 -11 606 -11 q 197 69 276 -11 q 103 275 117 149 l 222 275 m 639 656 q 580 825 639 756 q 403 894 521 894 q 247 836 306 894 q 189 674 189 778 q 247 503 189 563 q 407 443 306 443 q 519 467 465 443 q 606 539 572 490 q 639 656 639 588 z "},"ॐ":{"ha":1467,"x_min":111,"x_max":1347,"o":"m 800 1261 q 758 1278 775 1261 q 742 1319 742 1294 q 758 1360 742 1343 q 800 1376 775 1376 q 841 1360 825 1376 q 857 1319 857 1343 q 841 1278 857 1294 q 800 1261 825 1261 m 800 1033 q 644 1066 708 1033 q 549 1155 581 1099 q 517 1279 517 1211 l 611 1279 q 660 1167 611 1215 q 800 1119 710 1119 q 902 1142 860 1119 q 966 1202 944 1165 q 988 1279 988 1239 l 1082 1279 q 1050 1155 1082 1211 q 955 1066 1018 1099 q 800 1033 892 1033 m 1076 953 q 1284 867 1221 953 q 1347 610 1347 781 l 1347 419 q 1262 131 1347 228 q 993 35 1176 35 q 857 49 928 35 l 857 146 q 975 133 938 133 q 1177 205 1119 133 q 1235 424 1235 276 l 1235 624 q 1199 795 1235 736 q 1076 854 1163 854 q 960 806 996 854 q 924 678 924 758 q 863 483 924 542 q 672 425 803 425 l 669 425 q 701 293 701 365 q 624 92 701 168 q 418 17 546 17 q 259 52 329 17 q 150 151 189 88 q 111 299 111 215 l 219 299 q 274 168 219 219 q 411 117 328 117 q 544 168 494 117 q 594 303 594 219 q 547 431 594 378 q 400 485 499 485 l 344 485 l 344 583 l 400 583 q 533 632 486 583 q 579 747 579 681 q 530 873 579 826 q 406 919 481 919 q 279 876 329 919 q 229 761 229 833 l 121 761 q 201 948 121 878 q 407 1018 281 1018 q 608 949 531 1018 q 686 763 686 879 q 642 618 686 678 q 517 539 599 558 l 517 536 q 575 517 546 531 l 656 517 q 774 553 735 517 q 814 679 814 589 q 875 881 814 810 q 1076 953 936 953 z "},"॰":{"ha":685,"x_min":113,"x_max":574,"o":"m 574 482 q 510 322 574 385 q 346 260 446 260 q 178 323 243 260 q 113 485 113 386 q 142 600 113 549 q 226 680 172 651 q 346 708 279 708 q 510 645 446 708 q 574 482 574 582 m 188 485 q 232 376 188 418 q 346 333 276 333 q 455 375 413 333 q 497 482 497 417 q 455 593 497 550 q 346 636 413 636 q 232 594 276 636 q 188 485 188 551 z "},"।":{"ha":392,"x_min":217,"x_max":332,"o":"m 332 0 l 217 0 l 217 1029 l 332 1029 l 332 0 z "},"॥":{"ha":685,"x_min":217,"x_max":625,"o":"m 332 0 l 217 0 l 217 1029 l 332 1029 l 332 0 m 625 0 l 510 0 l 510 1029 l 625 1029 l 625 0 z "},"₨":{"ha":1493,"x_min":101,"x_max":1429,"o":"m 757 688 q 690 495 757 568 q 497 404 624 422 l 764 0 l 621 0 l 365 400 l 228 400 l 228 0 l 101 0 l 101 979 l 424 979 q 674 899 590 979 q 757 688 757 819 m 228 492 l 413 492 q 628 681 628 492 q 413 869 628 869 l 228 869 l 228 492 m 960 554 q 986 490 960 514 q 1051 452 1013 465 q 1158 424 1089 439 q 1299 384 1246 404 q 1391 321 1353 364 q 1429 204 1429 278 q 1360 51 1429 111 q 1172 -10 1290 -10 q 947 56 1035 -10 q 843 238 860 121 l 968 238 q 1028 128 975 171 q 1171 86 1082 86 q 1276 120 1239 86 q 1313 207 1313 154 q 1285 276 1313 250 q 1219 315 1258 301 q 1110 344 1179 329 q 972 383 1025 363 q 883 444 919 403 q 846 558 846 486 q 917 713 846 654 q 1113 772 989 772 q 1326 705 1246 772 q 1422 524 1406 638 l 1297 524 q 1240 633 1289 590 q 1111 675 1192 675 q 1001 642 1042 675 q 960 554 960 608 z "},"₹":{"ha":889,"x_min":74,"x_max":815,"o":"m 636 892 l 636 728 l 815 728 l 815 651 l 633 651 q 583 506 624 560 q 461 426 543 451 q 242 400 379 400 l 242 275 q 282 133 242 182 q 406 83 322 83 q 563 269 563 83 l 682 269 q 609 60 679 135 q 411 -14 539 -14 q 196 63 269 -14 q 122 288 122 140 l 122 486 q 363 499 283 486 q 474 545 442 511 q 514 651 507 579 l 74 651 l 74 728 l 517 728 l 517 892 l 74 892 l 74 979 l 815 979 l 815 892 l 636 892 z "},"‌":{"ha":0,"x_min":-32,"x_max":33,"o":"m -32 1126 l 33 1126 l 33 -319 l -32 -319 l -32 1126 z "},"‍":{"ha":0,"x_min":-178,"x_max":178,"o":"m 32 882 l 32 -319 l -33 -319 l -33 882 l -129 781 l -175 826 l -46 956 l -178 1088 l -132 1133 l 0 1001 l 133 1133 l 178 1089 l 44 956 l 178 824 l 132 778 l 32 882 z "},"◌":{"ha":904,"x_min":69,"x_max":835,"o":"m 418 633 q 375 649 392 633 q 358 692 358 665 q 375 734 358 718 q 418 750 392 750 q 461 734 444 750 q 478 692 478 718 q 461 649 478 665 q 418 633 444 633 m 586 613 q 543 628 560 613 q 526 671 526 644 q 543 713 526 697 q 586 729 560 729 q 629 713 613 729 q 646 671 646 697 q 629 628 646 644 q 586 613 613 613 m 256 575 q 213 591 229 575 q 196 633 196 607 q 213 676 196 660 q 256 692 229 692 q 299 676 282 692 q 315 633 315 660 q 299 591 315 607 q 256 575 282 575 m 714 510 q 671 526 688 510 q 654 568 654 542 q 671 610 654 594 q 714 626 688 626 q 757 610 740 626 q 774 568 774 594 q 757 526 774 542 q 714 510 740 510 m 150 438 q 107 453 124 438 q 90 496 90 469 q 107 538 90 522 q 150 554 124 554 q 193 538 176 554 q 210 496 210 522 q 193 453 210 469 q 150 438 176 438 m 775 351 q 732 367 749 351 q 715 410 715 383 q 732 452 715 436 q 775 468 749 468 q 818 452 801 468 q 835 410 835 436 q 818 367 835 383 q 775 351 801 351 m 129 269 q 86 285 103 269 q 69 328 69 301 q 86 370 69 354 q 129 386 103 386 q 172 370 156 386 q 189 328 189 354 q 172 285 189 301 q 129 269 156 269 m 761 185 q 718 201 735 185 q 701 243 701 217 q 718 285 701 269 q 761 301 735 301 q 804 285 788 301 q 821 243 821 269 q 804 201 821 217 q 761 185 788 185 m 192 113 q 149 128 165 113 q 132 171 132 144 q 149 213 132 197 q 192 229 165 229 q 235 213 218 229 q 251 171 251 197 q 235 128 251 144 q 192 113 218 113 m 660 51 q 617 67 633 51 q 600 110 600 83 q 617 152 600 136 q 660 168 633 168 q 703 152 686 168 q 719 110 719 136 q 703 67 719 83 q 660 51 686 51 m 328 7 q 285 23 301 7 q 268 65 268 39 q 285 108 268 92 q 328 124 301 124 q 371 108 354 124 q 388 65 388 92 q 371 23 388 39 q 328 7 354 7 m 500 -12 q 457 3 474 -12 q 440 46 440 19 q 457 88 440 72 q 500 104 474 104 q 543 88 526 104 q 560 46 560 72 q 543 3 560 19 q 500 -12 526 -12 z "},"!":{"ha":415,"x_min":136,"x_max":290,"o":"m 282 1003 l 264 288 l 160 288 l 142 1003 l 282 1003 m 290 149 l 290 0 l 136 0 l 136 149 l 290 149 z "},"\"":{"ha":417,"x_min":58,"x_max":360,"o":"m 172 1107 l 160 831 l 72 831 l 58 1107 l 172 1107 m 360 1107 l 346 831 l 260 831 l 244 1107 l 360 1107 z "},"#":{"ha":1125,"x_min":40,"x_max":1085,"o":"m 861 624 l 813 399 l 1007 399 l 1007 283 l 789 283 l 728 0 l 608 0 l 669 283 l 376 283 l 315 0 l 196 0 l 257 283 l 40 283 l 40 399 l 281 399 l 329 624 l 119 624 l 119 740 l 354 740 l 415 1028 l 535 1028 l 474 740 l 767 740 l 828 1028 l 947 1028 l 886 740 l 1085 740 l 1085 624 l 861 624 m 742 624 l 449 624 l 400 399 l 693 399 l 742 624 z "},"$":{"ha":808,"x_min":68,"x_max":740,"o":"m 424 549 q 592 489 532 515 q 696 406 651 463 q 740 254 740 350 q 706 125 740 185 q 601 28 672 65 q 428 -10 531 -10 l 424 -10 l 424 -121 l 381 -121 l 381 -7 q 165 80 249 6 q 72 264 82 154 l 207 264 q 258 155 213 206 q 381 92 303 104 l 381 447 q 215 505 274 479 q 112 586 156 531 q 68 735 68 642 q 107 869 68 811 q 217 960 146 928 q 381 992 288 992 l 381 1111 l 424 1111 l 424 990 q 629 911 553 981 q 719 743 706 842 l 583 743 q 533 838 574 796 q 424 890 493 879 l 424 549 m 204 740 q 249 631 204 669 q 381 563 294 592 l 381 893 q 252 853 300 893 q 204 740 204 814 m 425 89 q 558 135 511 89 q 606 251 606 181 q 558 365 606 325 q 424 433 511 406 l 424 89 l 425 89 z "},"%":{"ha":915,"x_min":46,"x_max":869,"o":"m 249 993 q 394 937 336 993 q 451 788 451 881 q 394 639 451 694 q 249 583 338 583 q 103 639 160 583 q 46 788 46 694 q 103 937 46 881 q 249 993 160 993 m 801 981 l 239 0 l 114 0 l 676 981 l 801 981 m 135 788 q 166 697 135 732 q 247 663 197 663 q 331 697 299 663 q 363 788 363 732 q 331 878 363 843 q 247 913 299 913 q 166 878 197 913 q 135 788 135 843 m 668 397 q 813 342 757 397 q 869 193 869 286 q 813 44 869 100 q 668 -12 757 -12 q 523 44 581 -12 q 465 193 465 100 q 522 342 465 286 q 668 397 579 397 m 554 193 q 585 103 554 138 q 668 68 617 68 q 749 103 718 68 q 781 193 781 138 q 749 283 781 249 q 668 318 718 318 q 585 283 617 318 q 554 193 554 249 z "},"&":{"ha":947,"x_min":49,"x_max":938,"o":"m 808 0 l 594 236 q 586 181 594 214 q 504 43 571 96 q 343 -10 438 -10 q 190 27 257 -10 q 86 130 124 64 q 49 282 49 196 q 83 431 49 368 q 174 527 117 494 q 300 560 231 560 q 331 557 311 560 l 310 583 q 251 673 271 631 q 231 772 231 715 q 259 878 231 829 q 344 958 288 928 q 481 989 401 989 q 663 929 600 989 q 738 779 726 869 q 746 717 746 749 q 744 696 746 703 l 625 696 q 626 719 626 706 q 625 738 625 732 q 586 845 624 807 q 482 883 549 883 q 385 847 421 883 q 350 760 350 811 q 366 686 350 717 q 418 614 382 656 l 938 0 l 808 0 m 343 99 q 469 147 419 99 q 518 272 518 196 q 490 368 518 325 q 418 436 463 411 q 325 461 374 461 q 206 415 253 461 q 160 285 160 369 q 213 149 160 199 q 343 99 265 99 z "},"'":{"ha":238,"x_min":58,"x_max":179,"o":"m 179 1107 l 163 831 l 75 831 l 58 1107 l 179 1107 z "},"(":{"ha":532,"x_min":61,"x_max":551,"o":"m 61 560 q 162 1036 61 826 q 428 1374 263 1246 l 551 1374 l 551 1361 q 183 560 183 1063 q 551 -243 183 56 l 551 -256 l 428 -256 q 162 82 263 -126 q 61 560 61 290 z "},")":{"ha":533,"x_min":-18,"x_max":472,"o":"m 472 560 q 372 83 472 292 q 106 -256 271 -126 l -18 -256 l -18 -243 q 349 560 349 57 q 258 1008 349 806 q -18 1361 167 1210 l -18 1374 l 106 1374 q 372 1036 271 1246 q 472 560 472 826 z "},"*":{"ha":661,"x_min":78,"x_max":589,"o":"m 533 935 l 589 835 l 390 760 l 589 685 l 532 585 l 367 711 l 394 500 l 281 500 l 304 711 l 136 581 l 78 685 l 275 760 l 78 835 l 136 936 l 304 808 l 279 1019 l 394 1019 l 367 808 l 533 935 z "},"+":{"ha":800,"x_min":46,"x_max":754,"o":"m 754 450 l 461 450 l 461 154 l 338 154 l 338 450 l 46 450 l 46 565 l 338 565 l 338 863 l 461 863 l 461 565 l 754 565 l 754 450 z "},",":{"ha":243,"x_min":46,"x_max":194,"o":"m 175 93 q 194 -21 194 32 q 158 -137 194 -93 q 50 -181 122 -181 l 50 -126 q 101 -108 85 -126 q 117 -49 117 -89 l 117 -36 l 46 -36 l 46 93 l 175 93 z "},"-":{"ha":682,"x_min":-21,"x_max":535,"o":"m 535 563 l 535 456 l -21 456 l -21 563 l 535 563 z "},".":{"ha":238,"x_min":42,"x_max":194,"o":"m 194 149 l 194 0 l 42 0 l 42 149 l 194 149 z "},"/":{"ha":518,"x_min":10,"x_max":513,"o":"m 513 1308 l 132 -237 l 10 -237 l 389 1308 l 513 1308 z "},":":{"ha":265,"x_min":58,"x_max":211,"o":"m 211 749 l 211 600 l 58 600 l 58 749 l 211 749 m 211 149 l 211 0 l 58 0 l 58 149 l 211 149 z "},";":{"ha":339,"x_min":110,"x_max":263,"o":"m 263 744 l 263 596 l 110 596 l 110 744 l 263 744 m 242 93 q 261 -21 261 32 q 225 -137 261 -93 q 117 -181 189 -181 l 117 -126 q 167 -108 151 -126 q 183 -49 183 -89 l 183 -36 l 113 -36 l 113 93 l 242 93 z "},"<":{"ha":586,"x_min":46,"x_max":540,"o":"m 382 190 l 46 508 l 382 828 l 540 828 l 204 508 l 540 190 l 382 190 z "},"=":{"ha":814,"x_min":46,"x_max":768,"o":"m 768 714 l 768 599 l 46 599 l 46 714 l 768 714 m 768 418 l 768 303 l 46 303 l 46 418 l 768 418 z "},">":{"ha":586,"x_min":46,"x_max":540,"o":"m 46 828 l 204 828 l 540 508 l 204 190 l 46 190 l 382 508 l 46 828 z "},"?":{"ha":697,"x_min":36,"x_max":651,"o":"m 353 1018 q 570 944 489 1018 q 651 738 651 869 q 560 517 651 590 q 311 442 469 444 l 311 278 l 192 278 l 192 528 l 247 528 q 451 572 375 528 q 526 738 526 617 q 478 867 526 819 q 349 914 431 914 q 210 865 263 914 q 158 738 158 817 l 36 738 q 75 885 36 821 q 186 983 114 949 q 353 1018 258 1018 m 329 149 l 329 0 l 176 0 l 176 149 l 329 149 z "},"@":{"ha":1585,"x_min":67,"x_max":1529,"o":"m 863 1096 q 1224 1019 1074 1096 q 1451 800 1374 942 q 1529 468 1529 658 q 1482 223 1529 333 q 1356 49 1435 113 q 1185 -14 1276 -14 q 1052 30 1100 -14 q 1010 172 1004 74 q 711 -14 907 -14 q 558 28 625 -14 q 453 145 490 69 q 415 321 415 221 q 469 553 415 450 q 617 716 524 657 q 826 775 711 775 q 1001 735 928 775 q 1113 624 1075 694 q 1151 463 1151 553 q 1146 396 1151 440 l 1115 211 q 1113 175 1113 183 q 1133 115 1113 132 q 1193 97 1154 97 q 1295 141 1247 97 q 1372 268 1343 185 q 1400 464 1400 351 q 1336 740 1400 622 q 1148 924 1272 858 q 846 990 1024 990 q 494 902 642 990 q 269 662 346 814 q 192 321 192 510 q 348 -102 192 43 q 792 -250 504 -247 l 768 -354 q 251 -176 435 -349 q 67 321 67 -3 q 167 717 67 540 q 448 995 267 894 q 863 1096 629 1096 m 750 97 q 888 138 825 97 q 988 256 950 179 q 1025 436 1025 333 q 968 602 1025 542 q 807 663 911 663 q 669 622 731 663 q 572 508 607 582 q 538 338 538 435 q 596 164 538 231 q 750 97 654 97 z "},"A":{"ha":919,"x_min":26,"x_max":893,"o":"m 675 226 l 244 226 l 163 0 l 26 0 l 389 961 l 532 961 l 893 0 l 757 0 l 675 226 m 639 325 l 460 819 l 281 325 l 639 325 z "},"B":{"ha":839,"x_min":101,"x_max":782,"o":"m 579 507 q 726 421 669 488 q 782 264 782 354 q 701 72 782 144 q 465 0 619 0 l 101 0 l 101 979 l 460 979 q 683 914 607 979 q 760 735 760 849 q 709 582 760 640 q 579 507 658 524 m 228 550 l 439 550 q 581 593 532 550 q 631 714 631 636 q 582 832 631 789 q 433 875 533 875 l 228 875 l 228 550 m 442 106 q 597 151 542 106 q 651 281 651 197 q 595 409 651 363 q 439 456 539 456 l 228 456 l 228 106 l 442 106 z "},"C":{"ha":1060,"x_min":68,"x_max":992,"o":"m 535 989 q 831 901 714 989 q 992 660 947 813 l 858 660 q 738 815 821 757 q 533 872 654 872 q 362 826 438 872 q 242 692 286 779 q 199 489 199 606 q 242 288 199 374 q 362 155 286 201 q 533 108 438 108 q 738 166 654 108 q 858 321 821 224 l 992 321 q 831 80 947 168 q 535 -8 714 -8 q 292 55 397 -8 q 127 231 186 118 q 68 489 68 344 q 127 749 68 635 q 292 926 186 863 q 535 989 397 989 z "},"D":{"ha":996,"x_min":101,"x_max":926,"o":"m 926 490 q 867 231 926 342 q 691 60 807 121 q 413 0 575 0 l 101 0 l 101 979 l 413 979 q 691 920 575 979 q 867 751 807 861 q 926 490 926 640 m 403 114 q 696 213 594 114 q 797 490 797 311 q 697 769 797 669 q 403 868 596 868 l 228 868 l 228 114 l 403 114 z "},"E":{"ha":703,"x_min":101,"x_max":642,"o":"m 228 876 l 228 542 l 600 542 l 600 444 l 228 444 l 228 103 l 642 103 l 642 0 l 101 0 l 101 979 l 642 979 l 642 876 l 228 876 z "},"F":{"ha":704,"x_min":101,"x_max":656,"o":"m 656 979 l 656 876 l 228 876 l 228 538 l 590 538 l 590 439 l 228 439 l 228 0 l 101 0 l 101 979 l 656 979 z "},"G":{"ha":1081,"x_min":68,"x_max":1011,"o":"m 546 989 q 833 904 717 989 q 989 674 949 819 l 856 674 q 740 817 821 763 q 547 871 658 871 q 368 824 447 871 q 244 692 289 778 q 199 489 199 606 q 244 283 199 369 q 372 149 290 196 q 558 103 453 103 q 724 142 649 103 q 847 255 799 181 q 904 429 894 329 l 519 429 l 519 524 l 1011 524 l 1011 407 q 939 196 999 290 q 778 46 879 101 q 547 -10 676 -10 q 297 53 406 -10 q 128 230 189 117 q 68 489 68 343 q 128 748 68 635 q 297 925 189 861 q 546 989 406 989 z "},"H":{"ha":954,"x_min":101,"x_max":853,"o":"m 853 979 l 853 0 l 725 0 l 725 453 l 228 453 l 228 0 l 101 0 l 101 979 l 228 979 l 228 556 l 725 556 l 725 979 l 853 979 z "},"I":{"ha":329,"x_min":101,"x_max":228,"o":"m 228 979 l 228 0 l 101 0 l 101 979 l 228 979 z "},"J":{"ha":672,"x_min":32,"x_max":578,"o":"m 578 979 l 578 251 q 509 60 578 131 q 317 -10 440 -10 q 108 69 183 -10 q 32 289 32 147 l 158 289 q 196 155 158 204 q 311 106 233 106 q 418 147 385 106 q 451 251 451 189 l 451 979 l 578 979 z "},"K":{"ha":815,"x_min":101,"x_max":792,"o":"m 344 494 l 792 0 l 636 0 l 228 457 l 228 0 l 101 0 l 101 979 l 228 979 l 228 525 l 638 979 l 792 979 l 344 494 z "},"L":{"ha":603,"x_min":101,"x_max":575,"o":"m 228 99 l 575 99 l 575 0 l 101 0 l 101 979 l 228 979 l 228 99 z "},"M":{"ha":1183,"x_min":101,"x_max":1082,"o":"m 1082 963 l 1082 0 l 956 0 l 956 768 l 649 0 l 536 0 l 228 765 l 228 0 l 101 0 l 101 963 l 253 963 l 594 154 l 931 963 l 1082 963 z "},"N":{"ha":964,"x_min":101,"x_max":863,"o":"m 863 0 l 736 0 l 228 774 l 228 0 l 101 0 l 101 979 l 228 979 l 736 204 l 736 979 l 863 979 l 863 0 z "},"O":{"ha":1099,"x_min":68,"x_max":1029,"o":"m 550 992 q 795 928 686 992 q 967 749 904 864 q 1029 490 1029 635 q 967 231 1029 346 q 795 53 904 117 q 550 -11 686 -11 q 303 53 414 -11 q 131 231 193 117 q 68 490 68 346 q 131 749 68 635 q 303 928 193 864 q 550 992 414 992 m 550 874 q 369 827 449 874 q 244 694 289 781 q 199 490 199 607 q 244 288 199 375 q 369 153 289 200 q 550 107 449 107 q 730 154 650 107 q 855 288 810 201 q 900 490 900 375 q 855 694 900 607 q 730 827 810 781 q 550 874 650 874 z "},"P":{"ha":793,"x_min":101,"x_max":747,"o":"m 228 394 l 228 0 l 101 0 l 101 979 l 413 979 q 664 901 581 979 q 747 686 747 822 q 661 472 747 549 q 413 394 575 394 l 228 394 m 401 500 q 567 549 517 500 q 618 686 618 597 q 567 826 618 778 q 401 874 517 874 l 228 874 l 228 500 l 401 500 z "},"Q":{"ha":1099,"x_min":68,"x_max":1049,"o":"m 889 -190 l 692 8 q 550 -11 622 -11 q 303 53 414 -11 q 131 231 193 117 q 68 490 68 346 q 131 749 68 635 q 303 928 193 864 q 550 992 414 992 q 795 928 686 992 q 967 749 904 864 q 1029 490 1029 635 q 967 230 1029 344 q 794 53 904 115 l 1049 -190 l 889 -190 m 199 490 q 244 288 199 375 q 369 153 289 200 q 550 107 449 107 q 730 154 650 107 q 855 288 810 201 q 900 490 900 375 q 855 694 900 607 q 730 827 810 781 q 550 874 650 874 q 369 827 449 874 q 244 694 289 781 q 199 490 199 607 z "},"R":{"ha":810,"x_min":101,"x_max":764,"o":"m 621 0 l 365 400 l 228 400 l 228 0 l 101 0 l 101 979 l 424 979 q 674 899 590 979 q 757 688 757 819 q 690 495 757 568 q 497 404 624 422 l 764 0 l 621 0 m 228 492 l 413 492 q 628 681 628 492 q 413 869 628 869 l 228 869 l 228 492 z "},"S":{"ha":789,"x_min":68,"x_max":721,"o":"m 721 254 q 688 125 721 185 q 586 28 654 65 q 418 -10 518 -10 q 245 26 321 -10 q 124 123 169 61 q 72 264 79 185 l 207 264 q 235 183 211 222 q 305 117 260 143 q 414 92 350 92 q 542 136 497 92 q 586 250 586 181 q 555 347 586 310 q 478 406 524 385 q 353 453 432 428 q 203 510 260 483 q 108 592 147 538 q 68 735 68 646 q 105 869 68 811 q 210 960 142 928 q 372 992 279 992 q 601 922 517 992 q 700 743 686 851 l 564 743 q 504 846 553 801 q 372 890 456 890 q 250 851 296 890 q 204 739 204 811 q 234 647 204 682 q 308 591 264 611 q 431 546 353 571 q 583 488 525 515 q 681 403 640 460 q 721 254 721 347 z "},"T":{"ha":725,"x_min":22,"x_max":701,"o":"m 701 979 l 701 876 l 425 876 l 425 0 l 299 0 l 299 876 l 22 876 l 22 979 l 701 979 z "},"U":{"ha":918,"x_min":94,"x_max":824,"o":"m 221 979 l 221 392 q 285 178 221 247 q 461 110 349 110 q 635 179 572 110 q 697 392 697 249 l 697 979 l 824 979 l 824 392 q 724 91 824 192 q 458 -10 625 -10 q 194 91 293 -10 q 94 392 94 192 l 94 979 l 221 979 z "},"V":{"ha":931,"x_min":26,"x_max":904,"o":"m 165 979 l 464 140 l 767 979 l 904 979 l 544 0 l 385 0 l 26 979 l 165 979 z "},"W":{"ha":1353,"x_min":46,"x_max":1306,"o":"m 1306 979 l 1057 0 l 903 0 l 676 800 l 450 0 l 296 0 l 46 979 l 186 979 l 374 147 l 606 979 l 746 979 l 978 150 l 1167 979 l 1306 979 z "},"X":{"ha":825,"x_min":26,"x_max":797,"o":"m 647 0 l 401 388 l 178 0 l 32 0 l 331 499 l 26 979 l 178 979 l 418 599 l 643 979 l 789 979 l 489 489 l 797 0 l 647 0 z "},"Y":{"ha":824,"x_min":26,"x_max":797,"o":"m 797 979 l 476 371 l 476 0 l 349 0 l 349 371 l 26 979 l 174 979 l 414 506 l 653 979 l 797 979 z "},"Z":{"ha":747,"x_min":56,"x_max":690,"o":"m 197 104 l 690 104 l 690 0 l 56 0 l 56 100 l 540 875 l 68 875 l 68 979 l 682 979 l 682 879 l 197 104 z "},"[":{"ha":458,"x_min":124,"x_max":396,"o":"m 396 1308 l 396 1204 l 243 1204 l 243 -133 l 396 -133 l 396 -237 l 124 -237 l 124 1308 l 396 1308 z "},"\\":{"ha":857,"x_min":125,"x_max":685,"o":"m 561 -237 l 125 1308 l 250 1308 l 685 -237 l 561 -237 z "},"]":{"ha":457,"x_min":63,"x_max":335,"o":"m 63 -237 l 63 -133 l 215 -133 l 215 1204 l 63 1204 l 63 1308 l 335 1308 l 335 -237 l 63 -237 z "},"^":{"ha":868,"x_min":49,"x_max":819,"o":"m 175 236 l 49 236 l 375 963 l 493 963 l 819 236 l 693 236 l 436 811 l 175 236 z "},"_":{"ha":854,"x_min":60,"x_max":799,"o":"m 799 -47 l 799 -171 l 60 -171 l 60 -47 l 799 -47 z "},"`":{"ha":399,"x_min":40,"x_max":336,"o":"m 336 913 l 336 822 l 40 985 l 40 1088 l 336 913 z "},"a":{"ha":936,"x_min":64,"x_max":836,"o":"m 414 772 q 602 717 525 772 q 710 568 679 661 l 710 763 l 836 763 l 836 0 l 710 0 l 710 194 q 602 46 679 101 q 414 -10 525 -10 q 233 38 313 -10 q 109 173 154 85 q 64 381 64 261 q 109 589 64 500 q 233 725 154 678 q 414 772 313 772 m 450 660 q 263 585 333 660 q 193 381 193 511 q 263 176 193 250 q 450 101 333 101 q 584 136 525 101 q 676 234 643 171 q 710 381 710 297 q 676 528 710 464 q 584 626 643 592 q 450 660 525 660 z "},"b":{"ha":936,"x_min":101,"x_max":872,"o":"m 522 772 q 703 725 624 772 q 827 589 782 678 q 872 381 872 500 q 827 173 872 261 q 703 38 782 85 q 522 -10 624 -10 q 334 47 411 -10 q 228 194 257 103 l 228 0 l 101 0 l 101 1028 l 228 1028 l 228 568 q 334 716 257 660 q 522 772 411 772 m 486 660 q 353 626 413 660 q 260 528 293 592 q 226 381 226 464 q 260 234 226 297 q 353 136 293 171 q 486 101 413 101 q 674 176 604 101 q 744 381 744 250 q 674 585 744 511 q 486 660 604 660 z "},"c":{"ha":863,"x_min":64,"x_max":799,"o":"m 439 772 q 681 694 585 772 q 799 486 776 617 l 665 486 q 590 615 651 568 q 436 661 528 661 q 315 631 369 661 q 226 537 260 600 q 193 381 193 474 q 226 224 193 288 q 315 131 260 161 q 436 100 369 100 q 590 147 528 100 q 665 276 651 194 l 799 276 q 681 67 776 144 q 439 -10 585 -10 q 244 38 329 -10 q 112 173 160 85 q 64 381 64 261 q 112 589 64 500 q 244 725 160 678 q 439 772 329 772 z "},"d":{"ha":936,"x_min":64,"x_max":836,"o":"m 414 772 q 602 717 525 772 q 710 568 679 661 l 710 1028 l 836 1028 l 836 0 l 710 0 l 710 194 q 602 46 679 101 q 414 -10 525 -10 q 233 38 313 -10 q 109 173 154 85 q 64 381 64 261 q 109 589 64 500 q 233 725 154 678 q 414 772 313 772 m 450 660 q 263 585 333 660 q 193 381 193 511 q 263 176 193 250 q 450 101 333 101 q 584 136 525 101 q 676 234 643 171 q 710 381 710 297 q 676 528 710 464 q 584 626 643 592 q 450 660 525 660 z "},"e":{"ha":867,"x_min":64,"x_max":803,"o":"m 803 424 q 797 354 803 383 l 188 354 q 262 158 192 224 q 433 93 332 93 q 587 140 525 93 q 663 264 649 186 l 797 264 q 735 122 783 185 q 611 25 688 60 q 439 -10 535 -10 q 244 38 329 -10 q 112 173 160 85 q 64 381 64 261 q 112 589 64 500 q 244 725 160 678 q 439 772 329 772 q 633 725 550 772 q 759 599 715 678 q 803 424 803 519 m 675 415 q 647 557 679 500 q 560 642 615 614 q 439 669 504 669 q 264 605 335 669 q 188 415 193 540 l 675 415 z "},"f":{"ha":475,"x_min":22,"x_max":439,"o":"m 439 943 q 298 908 338 944 q 258 783 258 872 l 258 763 l 439 763 l 439 651 l 258 651 l 258 0 l 132 0 l 132 651 l 22 651 l 22 763 l 132 763 l 132 793 q 439 1054 132 1067 l 439 943 z "},"g":{"ha":936,"x_min":64,"x_max":836,"o":"m 414 772 q 602 717 525 772 q 710 568 679 661 l 710 763 l 836 763 l 836 -12 q 792 -200 836 -118 q 667 -328 747 -282 q 479 -374 586 -374 q 228 -299 325 -374 q 104 -99 131 -225 l 229 -99 q 313 -219 251 -175 q 472 -262 375 -262 q 642 -197 575 -262 q 710 -12 710 -131 l 710 194 q 602 46 679 101 q 414 -10 525 -10 q 233 38 313 -10 q 109 173 154 85 q 64 381 64 261 q 109 589 64 500 q 233 725 154 678 q 414 772 313 772 m 450 660 q 263 585 333 660 q 193 381 193 511 q 263 176 193 250 q 450 101 333 101 q 584 136 525 101 q 676 234 643 171 q 710 381 710 297 q 676 528 710 464 q 584 626 643 592 q 450 660 525 660 z "},"h":{"ha":893,"x_min":101,"x_max":800,"o":"m 503 775 q 718 690 636 775 q 800 443 800 604 l 800 0 l 674 0 l 674 432 q 615 607 674 546 q 457 668 557 668 q 290 601 353 668 q 228 404 228 533 l 228 0 l 101 0 l 101 1028 l 228 1028 l 228 582 q 331 725 257 675 q 503 775 406 775 z "},"i":{"ha":329,"x_min":79,"x_max":251,"o":"m 79 986 q 103 1042 79 1021 q 165 1064 126 1064 q 228 1042 204 1064 q 251 986 251 1021 q 228 930 251 951 q 165 908 204 908 q 103 930 126 908 q 79 986 79 951 m 228 763 l 228 0 l 101 0 l 101 763 l 228 763 z "},"j":{"ha":338,"x_min":-39,"x_max":258,"o":"m 174 908 q 110 930 135 908 q 86 986 86 951 q 110 1042 86 1021 q 174 1064 135 1064 q 235 1042 211 1064 q 258 986 258 1021 q 235 930 258 951 q 174 908 211 908 m -39 -250 l 14 -250 q 87 -228 64 -250 q 110 -151 110 -206 l 110 763 l 238 763 l 238 -156 q 29 -361 238 -361 l -39 -361 l -39 -250 z "},"k":{"ha":688,"x_min":101,"x_max":678,"o":"m 519 0 l 228 343 l 228 0 l 101 0 l 101 1028 l 228 1028 l 228 431 l 515 763 l 669 763 l 328 383 l 678 0 l 519 0 z "},"l":{"ha":329,"x_min":101,"x_max":228,"o":"m 228 1028 l 228 0 l 101 0 l 101 1028 l 228 1028 z "},"m":{"ha":1429,"x_min":101,"x_max":1335,"o":"m 1039 775 q 1253 690 1172 775 q 1335 443 1335 604 l 1335 0 l 1208 0 l 1208 432 q 1153 604 1208 544 q 1003 664 1099 664 q 842 598 903 664 q 782 404 782 532 l 782 0 l 656 0 l 656 432 q 600 604 656 544 q 450 664 544 664 q 288 598 349 664 q 228 404 228 532 l 228 0 l 101 0 l 101 763 l 228 763 l 228 589 q 327 727 256 679 q 492 775 399 775 q 660 726 589 775 q 763 581 732 676 q 869 724 794 674 q 1039 775 944 775 z "},"n":{"ha":893,"x_min":101,"x_max":800,"o":"m 503 775 q 718 690 636 775 q 800 443 800 604 l 800 0 l 674 0 l 674 432 q 615 607 674 546 q 457 668 557 668 q 290 601 353 668 q 228 404 228 533 l 228 0 l 101 0 l 101 763 l 228 763 l 228 582 q 331 725 257 675 q 503 775 406 775 z "},"o":{"ha":893,"x_min":64,"x_max":829,"o":"m 447 772 q 644 725 557 772 q 780 589 731 678 q 829 381 829 500 q 780 173 829 261 q 644 38 731 85 q 447 -10 557 -10 q 251 38 338 -10 q 114 173 164 85 q 64 381 64 261 q 114 589 64 500 q 251 725 164 678 q 447 772 338 772 m 447 661 q 322 631 379 661 q 228 537 264 600 q 193 381 193 474 q 228 226 193 289 q 322 132 264 163 q 447 101 379 101 q 573 132 515 101 q 666 226 631 163 q 701 381 701 289 q 666 537 701 474 q 573 631 631 600 q 447 661 515 661 z "},"p":{"ha":936,"x_min":101,"x_max":872,"o":"m 522 772 q 703 725 624 772 q 827 589 782 678 q 872 381 872 500 q 827 173 872 261 q 703 38 782 85 q 522 -10 624 -10 q 334 47 411 -10 q 228 194 257 103 l 228 -361 l 101 -361 l 101 763 l 228 763 l 228 568 q 334 716 257 660 q 522 772 411 772 m 486 660 q 353 626 413 660 q 260 528 293 592 q 226 381 226 464 q 260 234 226 297 q 353 136 293 171 q 486 101 413 101 q 674 176 604 101 q 744 381 744 250 q 674 585 744 511 q 486 660 604 660 z "},"q":{"ha":936,"x_min":64,"x_max":836,"o":"m 422 769 q 602 719 528 769 q 710 582 676 668 l 710 763 l 836 763 l 836 -361 l 710 -361 l 710 186 q 601 43 675 96 q 422 -10 526 -10 q 239 38 321 -10 q 110 174 157 86 q 64 379 64 263 q 110 584 64 496 q 239 721 157 672 q 422 769 321 769 m 450 660 q 265 585 336 660 q 193 379 193 511 q 264 174 193 247 q 450 101 335 101 q 581 135 522 101 q 675 233 640 169 q 710 381 710 296 q 675 528 710 465 q 581 626 640 592 q 450 660 522 660 z "},"r":{"ha":533,"x_min":101,"x_max":510,"o":"m 228 608 q 338 731 265 688 q 510 775 410 775 l 510 638 l 471 638 q 296 583 364 638 q 228 401 228 528 l 228 0 l 101 0 l 101 763 l 228 763 l 228 608 z "},"s":{"ha":718,"x_min":69,"x_max":650,"o":"m 340 772 q 548 705 469 772 q 643 524 626 638 l 522 524 q 466 635 514 592 q 338 679 418 679 q 231 647 269 679 q 193 558 193 614 q 219 491 193 517 q 283 452 244 465 q 388 424 321 439 q 524 384 472 404 q 613 319 576 364 q 650 200 650 275 q 580 49 650 107 q 393 -10 510 -10 q 171 56 257 -10 q 69 238 85 121 l 192 238 q 252 125 199 168 q 393 82 306 82 q 495 115 458 82 q 532 203 532 149 q 506 274 532 247 q 440 314 479 300 q 333 343 401 328 q 198 382 249 363 q 112 444 147 401 q 76 558 76 486 q 147 713 76 654 q 340 772 218 772 z "},"t":{"ha":518,"x_min":25,"x_max":465,"o":"m 465 111 l 465 0 l 371 0 q 197 56 254 0 q 139 242 139 111 l 139 653 l 25 653 l 25 763 l 139 763 l 139 953 l 267 953 l 267 763 l 464 763 l 464 653 l 267 653 l 267 239 q 294 138 267 165 q 388 111 321 111 l 465 111 z "},"u":{"ha":881,"x_min":81,"x_max":779,"o":"m 779 763 l 779 0 l 653 0 l 653 179 q 549 37 624 86 q 376 -12 475 -12 q 163 73 244 -12 q 81 318 81 158 l 81 763 l 207 763 l 207 331 q 265 155 207 217 q 424 93 324 93 q 590 160 528 93 q 653 357 653 228 l 653 763 l 779 763 z "},"v":{"ha":792,"x_min":22,"x_max":769,"o":"m 397 135 l 633 763 l 769 763 l 471 0 l 321 0 l 22 763 l 158 763 l 397 135 z "},"w":{"ha":1165,"x_min":18,"x_max":1149,"o":"m 1149 763 l 929 0 l 793 0 l 583 621 l 372 0 l 235 0 l 18 763 l 146 763 l 308 121 l 519 763 l 651 763 l 864 122 l 1028 763 l 1149 763 z "},"x":{"ha":701,"x_min":21,"x_max":685,"o":"m 540 0 l 342 292 l 163 0 l 22 0 l 272 393 l 21 763 l 165 763 l 358 479 l 535 763 l 675 763 l 426 379 l 685 0 l 540 0 z "},"y":{"ha":785,"x_min":13,"x_max":771,"o":"m 154 763 l 401 163 l 631 763 l 771 763 l 318 -361 l 175 -361 l 333 13 l 13 763 l 154 763 z "},"z":{"ha":619,"x_min":36,"x_max":583,"o":"m 175 107 l 583 107 l 583 0 l 36 0 l 36 101 l 425 656 l 47 656 l 47 763 l 569 763 l 569 660 l 175 107 z "},"{":{"ha":515,"x_min":64,"x_max":472,"o":"m 168 515 q 289 442 249 499 q 329 306 329 386 q 315 185 329 263 q 301 101 306 132 q 297 26 297 69 q 349 -171 297 -89 q 472 -290 401 -253 l 472 -301 l 351 -301 q 280 -243 319 -283 q 210 -133 240 -203 q 179 33 179 -62 q 185 112 179 72 q 197 186 190 151 q 213 308 213 263 q 64 488 213 454 l 64 546 q 183 614 153 565 q 213 725 213 663 q 197 847 213 771 q 185 922 190 882 q 179 1000 179 961 q 210 1166 179 1096 q 280 1276 240 1236 q 351 1335 319 1317 l 472 1335 l 472 1324 q 349 1204 401 1286 q 297 1007 297 1122 q 301 933 297 964 q 315 849 306 901 q 329 728 329 771 q 290 590 329 646 q 168 518 250 535 l 168 515 z "},"|":{"ha":300,"x_min":86,"x_max":214,"o":"m 214 -149 l 86 -149 l 86 1106 l 214 1106 l 214 -149 z "},"}":{"ha":513,"x_min":54,"x_max":461,"o":"m 357 518 q 236 588 276 535 q 196 718 196 642 q 210 838 196 760 q 224 922 219 889 q 228 997 228 954 q 175 1199 228 1111 q 54 1324 122 1288 l 54 1335 l 174 1335 q 245 1276 206 1317 q 315 1166 285 1236 q 346 1000 346 1096 q 340 922 346 961 q 328 847 335 882 q 313 725 313 771 q 461 546 313 576 l 461 488 q 313 308 313 460 q 328 186 313 263 q 340 112 335 151 q 346 33 346 72 q 315 -133 346 -62 q 245 -243 285 -203 q 174 -301 206 -283 l 54 -301 l 54 -290 q 175 -166 122 -254 q 228 36 228 -78 q 224 112 228 79 q 210 196 219 144 q 196 315 196 274 q 236 445 196 392 q 357 515 276 499 l 357 518 z "},"~":{"ha":719,"x_min":46,"x_max":674,"o":"m 242 549 q 309 535 279 549 q 381 497 339 522 q 439 466 417 476 q 486 456 461 456 q 544 481 521 456 q 574 549 567 506 l 674 549 q 606 393 657 446 q 478 340 556 340 q 409 353 440 340 q 339 392 378 367 q 280 424 301 414 q 233 433 258 433 q 175 408 199 433 q 144 339 151 382 l 46 339 q 114 495 64 442 q 242 549 164 549 z "}," ":{"ha":343,"x_min":0,"x_max":0,"o":""},"¡":{"ha":429,"x_min":136,"x_max":290,"o":"m 282 -228 l 264 488 l 160 488 l 142 -228 l 282 -228 m 290 626 l 290 775 l 136 775 l 136 626 l 290 626 z "},"¢":{"ha":813,"x_min":64,"x_max":749,"o":"m 417 121 q 558 167 500 121 q 631 292 617 213 l 749 292 q 651 98 735 172 q 440 17 567 24 l 440 -124 l 378 -124 l 378 18 q 149 122 235 29 q 64 367 64 214 q 149 612 64 519 q 378 715 235 704 l 378 849 l 440 849 l 440 717 q 651 636 567 710 q 749 442 735 563 l 631 442 q 558 567 617 522 q 417 613 500 613 q 251 549 317 613 q 186 367 186 486 q 251 184 186 247 q 417 121 317 121 z "},"£":{"ha":818,"x_min":60,"x_max":760,"o":"m 360 338 q 253 99 360 204 l 754 99 l 754 -3 l 131 -3 l 114 65 q 209 191 178 132 q 240 333 240 250 q 224 429 240 372 l 60 429 l 60 517 l 194 517 q 160 633 172 583 q 149 740 149 683 q 185 884 149 821 q 289 982 222 947 q 443 1017 356 1017 q 665 936 582 1017 q 760 729 747 856 l 640 729 q 580 861 632 810 q 447 913 528 913 q 321 865 371 913 q 271 726 271 817 q 281 642 271 683 q 304 564 292 600 q 321 517 317 528 l 576 517 l 576 429 l 347 429 q 360 338 360 383 z "},"¤":{"ha":746,"x_min":94,"x_max":650,"o":"m 622 525 q 571 368 622 435 l 650 290 l 599 239 l 517 319 q 374 279 456 279 q 228 321 289 279 l 146 239 l 94 290 l 175 369 q 126 525 126 433 q 176 681 126 618 l 94 763 l 146 814 l 231 729 q 374 768 293 768 q 514 729 451 768 l 599 814 l 650 763 l 568 682 q 622 525 622 619 m 374 357 q 477 402 435 357 q 519 524 519 447 q 477 645 519 600 q 374 690 435 690 q 270 646 311 690 q 229 524 229 601 q 270 401 229 446 q 374 357 311 357 z "},"¥":{"ha":864,"x_min":49,"x_max":819,"o":"m 585 533 l 776 533 l 776 446 l 538 446 l 499 371 l 499 339 l 776 339 l 776 250 l 499 250 l 499 0 l 372 0 l 372 250 l 93 250 l 93 339 l 372 339 l 372 371 l 332 446 l 93 446 l 93 533 l 286 533 l 49 979 l 196 979 l 436 488 l 675 979 l 819 979 l 585 533 z "},"¦":{"ha":383,"x_min":128,"x_max":256,"o":"m 128 1106 l 256 1106 l 256 579 l 128 579 l 128 1106 m 256 -149 l 128 -149 l 128 379 l 256 379 l 256 -149 z "},"§":{"ha":800,"x_min":64,"x_max":736,"o":"m 531 168 q 697 -37 697 93 q 624 -189 697 -131 q 424 -247 551 -247 q 208 -180 290 -247 q 111 4 125 -112 l 238 4 q 291 -110 246 -67 q 425 -154 336 -154 q 529 -126 490 -154 q 568 -42 568 -97 q 518 54 568 15 q 342 133 468 93 q 136 231 208 174 q 64 389 64 289 q 117 529 64 468 q 274 610 171 590 q 103 818 103 686 q 177 968 103 911 q 382 1025 251 1025 q 594 958 514 1025 q 689 774 675 890 l 564 774 q 513 886 558 840 q 379 932 467 932 q 272 905 311 932 q 232 824 232 878 q 283 726 232 765 q 458 646 333 686 q 665 547 593 604 q 736 389 736 489 q 684 252 736 313 q 531 168 632 192 m 199 389 q 253 274 199 318 q 403 231 307 231 q 550 276 497 231 q 603 389 603 322 q 549 503 603 460 q 399 547 494 547 q 251 501 304 547 q 199 389 199 456 z "},"¨":{"ha":492,"x_min":61,"x_max":431,"o":"m 61 936 q 81 985 61 965 q 131 1006 101 1006 q 180 985 160 1006 q 200 936 200 965 q 180 888 200 908 q 131 868 160 868 q 81 888 101 868 q 61 936 61 908 m 292 936 q 312 985 292 965 q 361 1006 332 1006 q 410 985 390 1006 q 431 936 431 965 q 410 888 431 908 q 361 868 390 868 q 312 888 332 868 q 292 936 292 908 z "},"©":{"ha":1100,"x_min":68,"x_max":1031,"o":"m 550 983 q 299 921 408 983 q 129 747 190 858 q 68 492 68 635 q 129 236 68 349 q 299 61 190 124 q 550 -1 408 -1 q 801 61 692 -1 q 970 236 910 124 q 1031 492 1031 349 q 970 747 1031 635 q 801 921 910 858 q 550 983 692 983 m 550 936 q 776 880 679 936 q 926 722 874 824 q 979 492 979 621 q 926 262 979 363 q 776 104 874 161 q 550 47 679 47 q 324 104 421 47 q 174 262 226 161 q 121 492 121 363 q 174 722 121 621 q 324 880 226 824 q 550 936 421 936 m 556 814 q 738 753 658 814 q 842 586 817 693 l 732 586 q 662 688 711 651 q 550 724 613 724 q 411 663 468 724 q 354 490 354 603 q 381 364 354 417 q 453 285 408 311 q 550 258 497 258 q 662 295 613 258 q 732 397 711 332 l 842 397 q 738 230 818 290 q 556 169 658 169 q 401 207 471 169 q 292 317 332 244 q 251 492 251 390 q 292 665 251 592 q 401 776 332 738 q 556 814 471 814 z "},"ª":{"ha":625,"x_min":46,"x_max":560,"o":"m 272 986 q 391 953 343 986 q 461 863 439 921 l 461 979 l 560 979 l 560 492 l 461 492 l 461 608 q 272 483 414 483 q 108 552 171 483 q 46 735 46 621 q 108 917 46 849 q 272 986 171 986 m 301 906 q 190 859 233 906 q 147 733 147 813 q 190 610 147 656 q 301 564 233 564 q 417 610 372 564 q 461 735 461 657 q 417 859 461 813 q 301 906 372 906 z "},"«":{"ha":640,"x_min":63,"x_max":575,"o":"m 196 167 l 63 410 l 196 653 l 319 653 l 183 410 l 319 167 l 196 167 m 451 167 l 318 410 l 451 653 l 575 653 l 439 410 l 575 167 l 451 167 z "},"¬":{"ha":1026,"x_min":64,"x_max":953,"o":"m 953 601 l 953 306 l 828 306 l 828 501 l 64 501 l 64 601 l 953 601 z "},"­":{"ha":682,"x_min":-21,"x_max":535,"o":"m 535 563 l 535 456 l -21 456 l -21 563 l 535 563 z "},"®":{"ha":1108,"x_min":68,"x_max":1040,"o":"m 556 985 q 808 924 699 985 q 979 751 918 863 q 1040 493 1040 639 q 979 238 1040 350 q 808 62 918 125 q 556 -1 699 -1 q 302 62 413 -1 q 130 238 192 125 q 68 493 68 350 q 129 751 68 639 q 301 924 190 863 q 556 985 413 985 m 556 54 q 785 109 686 54 q 936 263 883 164 q 989 493 989 363 q 936 726 989 626 q 785 881 883 826 q 556 936 686 936 q 325 881 424 936 q 174 726 226 826 q 121 493 121 626 q 174 263 121 363 q 325 109 226 164 q 556 54 424 54 m 797 642 q 753 524 797 569 q 625 468 710 478 l 800 201 l 707 201 l 538 465 l 449 465 l 449 201 l 365 201 l 365 817 l 583 817 q 744 769 690 817 q 797 642 797 721 m 449 522 l 576 522 q 711 632 711 522 q 680 713 711 686 q 576 740 649 740 l 449 740 l 449 522 z "},"¯":{"ha":571,"x_min":40,"x_max":531,"o":"m 531 986 l 531 897 l 40 897 l 40 986 l 531 986 z "},"°":{"ha":564,"x_min":39,"x_max":525,"o":"m 282 972 q 459 906 393 972 q 525 728 525 839 q 460 549 525 617 q 285 482 394 482 q 106 549 174 482 q 39 728 39 617 q 106 906 39 839 q 282 972 172 972 m 283 899 q 179 853 219 899 q 139 726 139 808 q 179 601 139 646 q 285 556 219 556 q 385 601 347 556 q 424 726 424 646 q 385 853 424 808 q 283 899 346 899 z "},"±":{"ha":800,"x_min":46,"x_max":754,"o":"m 461 519 l 461 244 l 754 244 l 754 129 l 46 129 l 46 244 l 338 244 l 338 519 l 46 519 l 46 635 l 338 635 l 338 879 l 461 879 l 461 635 l 754 635 l 754 519 l 461 519 z "},"²":{"ha":478,"x_min":56,"x_max":428,"o":"m 428 567 l 428 489 l 60 489 l 60 558 l 228 693 q 295 763 272 729 q 318 840 318 797 q 298 896 318 878 q 244 914 278 914 q 181 889 204 914 q 154 817 158 864 l 56 817 q 113 939 61 890 q 256 988 164 988 q 378 948 335 988 q 422 847 422 908 q 386 745 422 790 q 274 649 350 700 l 158 567 l 428 567 z "},"³":{"ha":469,"x_min":42,"x_max":425,"o":"m 242 988 q 371 949 322 988 q 419 849 419 911 q 395 776 419 806 q 322 738 371 747 l 322 733 q 425 617 425 708 q 376 521 425 558 q 242 483 328 483 q 98 522 146 483 q 42 635 50 560 l 144 635 q 173 572 150 590 q 235 554 196 554 q 299 575 276 554 q 321 632 321 596 q 294 692 321 671 q 225 713 268 713 l 156 713 l 156 756 l 224 756 q 291 776 267 756 q 315 838 315 797 q 292 892 315 871 q 232 914 269 914 q 142 839 156 914 l 47 839 q 101 945 53 903 q 242 988 149 988 z "},"´":{"ha":376,"x_min":40,"x_max":336,"o":"m 336 985 l 40 822 l 40 913 l 336 1088 l 336 985 z "},"µ":{"ha":925,"x_min":113,"x_max":811,"o":"m 811 763 l 811 0 l 685 0 l 685 172 q 588 35 657 83 q 425 -12 518 -12 q 317 11 367 -12 q 239 88 268 35 l 239 -361 l 113 -361 l 113 763 l 239 763 l 239 367 q 301 167 239 236 q 467 99 363 99 q 626 165 567 99 q 685 358 685 231 l 685 763 l 811 763 z "},"¶":{"ha":822,"x_min":29,"x_max":708,"o":"m 708 0 l 603 0 l 603 864 l 478 864 l 478 0 l 374 0 l 374 397 l 357 397 q 112 476 194 397 q 29 679 29 554 q 113 883 29 804 q 357 963 196 963 l 708 963 l 708 0 z "},"·":{"ha":253,"x_min":49,"x_max":201,"o":"m 201 544 l 201 396 l 49 396 l 49 544 l 201 544 z "},"¸":{"ha":392,"x_min":40,"x_max":351,"o":"m 175 -93 q 302 -123 253 -90 q 351 -224 351 -156 q 304 -326 351 -290 q 182 -361 257 -361 l 40 -361 l 40 -287 l 168 -287 q 261 -221 261 -287 q 239 -176 261 -193 q 168 -158 217 -158 l 93 -158 l 93 10 l 175 10 l 175 -93 z "},"¹":{"ha":279,"x_min":46,"x_max":225,"o":"m 46 899 l 46 978 l 225 978 l 225 489 l 126 489 l 126 899 l 46 899 z "},"º":{"ha":601,"x_min":46,"x_max":557,"o":"m 301 985 q 434 953 376 985 q 524 863 492 921 q 557 732 557 806 q 524 601 557 658 q 434 510 492 543 q 301 478 376 478 q 168 510 226 478 q 78 601 110 543 q 46 732 46 658 q 78 863 46 806 q 168 953 110 921 q 301 985 226 985 m 301 906 q 190 860 233 906 q 146 732 146 814 q 190 604 146 650 q 301 558 233 558 q 413 604 368 558 q 457 732 457 650 q 413 860 457 814 q 301 906 368 906 z "},"»":{"ha":640,"x_min":69,"x_max":582,"o":"m 207 410 l 69 653 l 194 653 l 326 410 l 194 167 l 69 167 l 207 410 m 463 410 l 325 653 l 450 653 l 582 410 l 450 167 l 325 167 l 463 410 z "},"¼":{"ha":892,"x_min":76,"x_max":846,"o":"m 733 979 l 231 0 l 106 0 l 608 979 l 733 979 m 76 899 l 76 978 l 256 978 l 256 489 l 157 489 l 157 899 l 76 899 m 846 97 l 779 97 l 779 0 l 679 0 l 679 97 l 425 97 l 425 154 l 654 492 l 779 492 l 779 158 l 846 158 l 846 97 m 683 400 l 522 161 l 683 161 l 683 400 z "},"½":{"ha":989,"x_min":79,"x_max":914,"o":"m 722 981 l 215 0 l 90 0 l 599 981 l 722 981 m 160 899 l 79 899 l 79 978 l 258 978 l 258 489 l 160 489 l 160 899 m 914 76 l 914 -1 l 546 -1 l 546 68 l 714 203 q 781 273 758 239 q 804 350 804 307 q 784 406 804 388 q 731 424 764 424 q 667 399 690 424 q 640 326 644 374 l 542 326 q 599 449 547 400 q 742 497 650 497 q 865 458 821 497 q 908 357 908 418 q 872 255 908 300 q 760 158 836 210 l 644 76 l 914 76 z "},"¾":{"ha":982,"x_min":83,"x_max":939,"o":"m 283 988 q 413 949 364 988 q 461 849 461 911 q 437 776 461 806 q 364 738 413 747 l 364 733 q 467 617 467 708 q 418 521 467 558 q 283 483 369 483 q 140 522 188 483 q 83 635 92 560 l 186 635 q 215 572 192 590 q 276 554 238 554 q 340 575 318 554 q 363 632 363 596 q 336 692 363 671 q 267 713 310 713 l 197 713 l 197 756 l 265 756 q 333 776 308 756 q 357 838 357 797 q 334 892 357 871 q 274 914 311 914 q 183 839 197 914 l 89 839 q 142 945 94 903 q 283 988 190 988 m 843 981 l 349 0 l 225 0 l 718 981 l 843 981 m 939 97 l 872 97 l 872 0 l 774 0 l 774 97 l 518 97 l 518 154 l 736 492 l 872 492 l 872 158 l 939 158 l 939 97 m 778 410 l 615 158 l 778 158 l 778 410 z "},"¿":{"ha":679,"x_min":69,"x_max":685,"o":"m 368 -254 q 151 -180 232 -254 q 69 26 69 -106 q 160 247 69 174 q 410 322 251 319 l 410 486 l 529 486 l 529 236 l 474 236 q 270 192 346 236 q 194 26 194 147 q 242 -103 194 -56 q 372 -150 290 -150 q 510 -101 458 -150 q 563 26 563 -53 l 685 26 q 646 -121 685 -57 q 535 -219 607 -185 q 368 -254 463 -254 m 392 615 l 392 764 l 544 764 l 544 615 l 392 615 z "},"À":{"ha":919,"x_min":26,"x_max":893,"o":"m 675 226 l 244 226 l 163 0 l 26 0 l 389 961 l 532 961 l 893 0 l 757 0 l 675 226 m 639 325 l 460 819 l 281 325 l 639 325 m 518 1131 l 518 1040 l 222 1203 l 222 1306 l 518 1131 z "},"Á":{"ha":919,"x_min":26,"x_max":893,"o":"m 675 226 l 244 226 l 163 0 l 26 0 l 389 961 l 532 961 l 893 0 l 757 0 l 675 226 m 639 325 l 460 819 l 281 325 l 639 325 m 688 1203 l 392 1040 l 392 1131 l 688 1306 l 688 1203 z "},"Â":{"ha":919,"x_min":26,"x_max":893,"o":"m 675 226 l 244 226 l 163 0 l 26 0 l 389 961 l 532 961 l 893 0 l 757 0 l 675 226 m 639 325 l 460 819 l 281 325 l 639 325 m 460 1182 l 267 1065 l 267 1154 l 460 1269 l 651 1154 l 651 1065 l 460 1182 z "},"Ã":{"ha":919,"x_min":26,"x_max":893,"o":"m 675 226 l 244 226 l 163 0 l 26 0 l 389 961 l 532 961 l 893 0 l 757 0 l 675 226 m 639 325 l 460 819 l 281 325 l 639 325 m 376 1207 q 424 1197 403 1207 q 469 1169 444 1188 q 509 1146 494 1153 q 543 1139 524 1139 q 584 1156 568 1139 q 604 1204 600 1172 l 675 1204 q 630 1097 665 1135 q 540 1060 594 1060 q 490 1069 511 1060 q 442 1097 468 1079 q 406 1119 421 1113 q 372 1126 390 1126 q 313 1061 321 1126 l 243 1061 q 288 1171 254 1135 q 376 1207 322 1207 z "},"Ä":{"ha":919,"x_min":26,"x_max":893,"o":"m 675 226 l 244 226 l 163 0 l 26 0 l 389 961 l 532 961 l 893 0 l 757 0 l 675 226 m 639 325 l 460 819 l 281 325 l 639 325 m 275 1154 q 295 1203 275 1183 q 344 1224 315 1224 q 394 1203 374 1224 q 414 1154 414 1183 q 394 1106 414 1126 q 344 1086 374 1086 q 295 1106 315 1086 q 275 1154 275 1126 m 506 1154 q 526 1203 506 1183 q 575 1224 546 1224 q 624 1203 604 1224 q 644 1154 644 1183 q 624 1106 644 1126 q 575 1086 604 1086 q 526 1106 546 1086 q 506 1154 506 1126 z "},"Å":{"ha":919,"x_min":26,"x_max":893,"o":"m 675 226 l 244 226 l 163 0 l 26 0 l 389 961 l 532 961 l 893 0 l 757 0 l 675 226 m 639 325 l 460 819 l 281 325 l 639 325 m 458 1353 q 563 1313 521 1353 q 604 1207 604 1274 q 563 1101 604 1140 q 458 1061 521 1061 q 355 1101 397 1061 q 313 1207 313 1142 q 355 1313 313 1272 q 458 1353 397 1353 m 458 1294 q 397 1271 421 1294 q 374 1207 374 1247 q 397 1143 374 1167 q 458 1119 421 1119 q 520 1143 496 1119 q 544 1207 544 1167 q 520 1271 544 1247 q 458 1294 496 1294 z "},"Æ":{"ha":1236,"x_min":8,"x_max":1175,"o":"m 765 876 l 765 544 l 1133 544 l 1133 446 l 765 446 l 765 103 l 1175 103 l 1175 0 l 639 0 l 639 222 l 275 222 l 149 0 l 8 0 l 564 979 l 1175 979 l 1175 876 l 765 876 m 639 319 l 639 863 l 331 319 l 639 319 z "},"Ç":{"ha":1060,"x_min":68,"x_max":992,"o":"m 535 989 q 831 901 714 989 q 992 660 947 813 l 858 660 q 738 815 821 757 q 533 872 654 872 q 362 826 438 872 q 242 692 286 779 q 199 489 199 606 q 242 288 199 374 q 362 155 286 201 q 533 108 438 108 q 738 166 654 108 q 858 321 821 224 l 992 321 q 831 80 947 168 q 535 -8 714 -8 q 292 55 397 -8 q 127 231 186 118 q 68 489 68 344 q 127 749 68 635 q 292 926 186 863 q 535 989 397 989 m 574 -93 q 701 -123 651 -90 q 750 -224 750 -156 q 703 -326 750 -290 q 581 -361 656 -361 l 439 -361 l 439 -287 l 567 -287 q 660 -221 660 -287 q 638 -176 660 -193 q 567 -158 615 -158 l 492 -158 l 492 10 l 574 10 l 574 -93 z "},"È":{"ha":703,"x_min":101,"x_max":642,"o":"m 228 876 l 228 542 l 600 542 l 600 444 l 228 444 l 228 103 l 642 103 l 642 0 l 101 0 l 101 979 l 642 979 l 642 876 l 228 876 m 431 1131 l 431 1040 l 135 1203 l 135 1306 l 431 1131 z "},"É":{"ha":703,"x_min":101,"x_max":642,"o":"m 228 876 l 228 542 l 600 542 l 600 444 l 228 444 l 228 103 l 642 103 l 642 0 l 101 0 l 101 979 l 642 979 l 642 876 l 228 876 m 600 1203 l 304 1040 l 304 1131 l 600 1306 l 600 1203 z "},"Ê":{"ha":703,"x_min":101,"x_max":642,"o":"m 228 876 l 228 542 l 600 542 l 600 444 l 228 444 l 228 103 l 642 103 l 642 0 l 101 0 l 101 979 l 642 979 l 642 876 l 228 876 m 372 1182 l 179 1065 l 179 1154 l 372 1269 l 564 1154 l 564 1065 l 372 1182 z "},"Ë":{"ha":703,"x_min":101,"x_max":642,"o":"m 228 876 l 228 542 l 600 542 l 600 444 l 228 444 l 228 103 l 642 103 l 642 0 l 101 0 l 101 979 l 642 979 l 642 876 l 228 876 m 188 1154 q 208 1203 188 1183 q 257 1224 228 1224 q 306 1203 286 1224 q 326 1154 326 1183 q 306 1106 326 1126 q 257 1086 286 1086 q 208 1106 228 1086 q 188 1154 188 1126 m 418 1154 q 438 1203 418 1183 q 488 1224 458 1224 q 537 1203 517 1224 q 557 1154 557 1183 q 537 1106 557 1126 q 488 1086 517 1086 q 438 1106 458 1086 q 418 1154 418 1126 z "},"Ì":{"ha":329,"x_min":-72,"x_max":228,"o":"m 228 979 l 228 0 l 101 0 l 101 979 l 228 979 m 224 1131 l 224 1040 l -72 1203 l -72 1306 l 224 1131 z "},"Í":{"ha":329,"x_min":97,"x_max":393,"o":"m 228 979 l 228 0 l 101 0 l 101 979 l 228 979 m 393 1203 l 97 1040 l 97 1131 l 393 1306 l 393 1203 z "},"Î":{"ha":329,"x_min":-28,"x_max":357,"o":"m 228 979 l 228 0 l 101 0 l 101 979 l 228 979 m 165 1182 l -28 1065 l -28 1154 l 165 1269 l 357 1154 l 357 1065 l 165 1182 z "},"Ï":{"ha":329,"x_min":-19,"x_max":350,"o":"m 228 979 l 228 0 l 101 0 l 101 979 l 228 979 m -19 1154 q 1 1203 -19 1183 q 50 1224 21 1224 q 99 1203 79 1224 q 119 1154 119 1183 q 99 1106 119 1126 q 50 1086 79 1086 q 1 1106 21 1086 q -19 1154 -19 1126 m 211 1154 q 231 1203 211 1183 q 281 1224 251 1224 q 330 1203 310 1224 q 350 1154 350 1183 q 330 1106 350 1126 q 281 1086 310 1086 q 231 1106 251 1086 q 211 1154 211 1126 z "},"Ð":{"ha":1031,"x_min":8,"x_max":963,"o":"m 447 979 q 727 920 611 979 q 903 751 843 861 q 963 490 963 640 q 903 231 963 342 q 727 60 843 121 q 447 0 611 0 l 136 0 l 136 439 l 8 439 l 8 542 l 136 542 l 136 979 l 447 979 m 438 114 q 732 213 631 114 q 833 490 833 313 q 732 769 833 669 q 438 868 631 868 l 264 868 l 264 542 l 538 542 l 538 439 l 264 439 l 264 114 l 438 114 z "},"Ñ":{"ha":964,"x_min":101,"x_max":863,"o":"m 863 0 l 736 0 l 228 774 l 228 0 l 101 0 l 101 979 l 228 979 l 736 204 l 736 979 l 863 979 l 863 0 m 399 1207 q 446 1197 425 1207 q 492 1169 467 1188 q 531 1146 517 1153 q 565 1139 546 1139 q 606 1156 590 1139 q 626 1204 622 1172 l 697 1204 q 652 1097 688 1135 q 563 1060 617 1060 q 512 1069 533 1060 q 464 1097 490 1079 q 428 1119 443 1113 q 394 1126 413 1126 q 335 1061 343 1126 l 265 1061 q 310 1171 276 1135 q 399 1207 344 1207 z "},"Ò":{"ha":1099,"x_min":68,"x_max":1029,"o":"m 550 992 q 795 928 686 992 q 967 749 904 864 q 1029 490 1029 635 q 967 231 1029 346 q 795 53 904 117 q 550 -11 686 -11 q 303 53 414 -11 q 131 231 193 117 q 68 490 68 346 q 131 749 68 635 q 303 928 193 864 q 550 992 414 992 m 550 874 q 369 827 449 874 q 244 694 289 781 q 199 490 199 607 q 244 288 199 375 q 369 153 289 200 q 550 107 449 107 q 730 154 650 107 q 855 288 810 201 q 900 490 900 375 q 855 694 900 607 q 730 827 810 781 q 550 874 650 874 m 608 1131 l 608 1040 l 313 1203 l 313 1306 l 608 1131 z "},"Ó":{"ha":1099,"x_min":68,"x_max":1029,"o":"m 550 992 q 795 928 686 992 q 967 749 904 864 q 1029 490 1029 635 q 967 231 1029 346 q 795 53 904 117 q 550 -11 686 -11 q 303 53 414 -11 q 131 231 193 117 q 68 490 68 346 q 131 749 68 635 q 303 928 193 864 q 550 992 414 992 m 550 874 q 369 827 449 874 q 244 694 289 781 q 199 490 199 607 q 244 288 199 375 q 369 153 289 200 q 550 107 449 107 q 730 154 650 107 q 855 288 810 201 q 900 490 900 375 q 855 694 900 607 q 730 827 810 781 q 550 874 650 874 m 778 1203 l 482 1040 l 482 1131 l 778 1306 l 778 1203 z "},"Ô":{"ha":1099,"x_min":68,"x_max":1029,"o":"m 550 992 q 795 928 686 992 q 967 749 904 864 q 1029 490 1029 635 q 967 231 1029 346 q 795 53 904 117 q 550 -11 686 -11 q 303 53 414 -11 q 131 231 193 117 q 68 490 68 346 q 131 749 68 635 q 303 928 193 864 q 550 992 414 992 m 550 874 q 369 827 449 874 q 244 694 289 781 q 199 490 199 607 q 244 288 199 375 q 369 153 289 200 q 550 107 449 107 q 730 154 650 107 q 855 288 810 201 q 900 490 900 375 q 855 694 900 607 q 730 827 810 781 q 550 874 650 874 m 550 1182 l 357 1065 l 357 1154 l 550 1269 l 742 1154 l 742 1065 l 550 1182 z "},"Õ":{"ha":1099,"x_min":68,"x_max":1029,"o":"m 550 992 q 795 928 686 992 q 967 749 904 864 q 1029 490 1029 635 q 967 231 1029 346 q 795 53 904 117 q 550 -11 686 -11 q 303 53 414 -11 q 131 231 193 117 q 68 490 68 346 q 131 749 68 635 q 303 928 193 864 q 550 992 414 992 m 550 874 q 369 827 449 874 q 244 694 289 781 q 199 490 199 607 q 244 288 199 375 q 369 153 289 200 q 550 107 449 107 q 730 154 650 107 q 855 288 810 201 q 900 490 900 375 q 855 694 900 607 q 730 827 810 781 q 550 874 650 874 m 467 1207 q 514 1197 493 1207 q 560 1169 535 1188 q 599 1146 585 1153 q 633 1139 614 1139 q 674 1156 658 1139 q 694 1204 690 1172 l 765 1204 q 720 1097 756 1135 q 631 1060 685 1060 q 580 1069 601 1060 q 532 1097 558 1079 q 496 1119 511 1113 q 463 1126 481 1126 q 403 1061 411 1126 l 333 1061 q 378 1171 344 1135 q 467 1207 413 1207 z "},"Ö":{"ha":1099,"x_min":68,"x_max":1029,"o":"m 550 992 q 795 928 686 992 q 967 749 904 864 q 1029 490 1029 635 q 967 231 1029 346 q 795 53 904 117 q 550 -11 686 -11 q 303 53 414 -11 q 131 231 193 117 q 68 490 68 346 q 131 749 68 635 q 303 928 193 864 q 550 992 414 992 m 550 874 q 369 827 449 874 q 244 694 289 781 q 199 490 199 607 q 244 288 199 375 q 369 153 289 200 q 550 107 449 107 q 730 154 650 107 q 855 288 810 201 q 900 490 900 375 q 855 694 900 607 q 730 827 810 781 q 550 874 650 874 m 365 1154 q 385 1203 365 1183 q 435 1224 406 1224 q 484 1203 464 1224 q 504 1154 504 1183 q 484 1106 504 1126 q 435 1086 464 1086 q 385 1106 406 1086 q 365 1154 365 1126 m 596 1154 q 616 1203 596 1183 q 665 1224 636 1224 q 715 1203 694 1224 q 735 1154 735 1183 q 715 1106 735 1126 q 665 1086 694 1086 q 616 1106 636 1086 q 596 1154 596 1126 z "},"×":{"ha":707,"x_min":47,"x_max":661,"o":"m 576 204 l 351 429 l 129 206 l 47 288 l 269 511 l 47 732 l 133 815 l 354 596 l 572 815 l 654 733 l 436 514 l 661 289 l 576 204 z "},"Ø":{"ha":1099,"x_min":64,"x_max":1033,"o":"m 904 839 q 997 683 964 772 q 1029 490 1029 593 q 967 231 1029 346 q 795 53 904 117 q 550 -11 686 -11 q 379 18 460 -11 q 235 101 299 47 l 143 0 l 64 0 l 193 143 q 101 299 133 210 q 68 490 68 388 q 131 749 68 635 q 303 928 193 864 q 550 992 414 992 q 721 963 642 992 q 863 879 800 933 l 956 982 l 1033 982 l 904 839 m 199 490 q 278 235 199 338 l 781 790 q 677 852 736 831 q 550 874 618 874 q 369 827 449 874 q 244 694 289 781 q 199 490 199 607 m 900 490 q 821 747 900 644 l 317 192 q 550 107 413 107 q 730 154 650 107 q 855 288 810 201 q 900 490 900 375 z "},"Ù":{"ha":918,"x_min":94,"x_max":824,"o":"m 221 979 l 221 392 q 285 178 221 247 q 461 110 349 110 q 635 179 572 110 q 697 392 697 249 l 697 979 l 824 979 l 824 392 q 724 91 824 192 q 458 -10 625 -10 q 194 91 293 -10 q 94 392 94 192 l 94 979 l 221 979 m 517 1131 l 517 1040 l 221 1203 l 221 1306 l 517 1131 z "},"Ú":{"ha":918,"x_min":94,"x_max":824,"o":"m 221 979 l 221 392 q 285 178 221 247 q 461 110 349 110 q 635 179 572 110 q 697 392 697 249 l 697 979 l 824 979 l 824 392 q 724 91 824 192 q 458 -10 625 -10 q 194 91 293 -10 q 94 392 94 192 l 94 979 l 221 979 m 688 1203 l 392 1040 l 392 1131 l 688 1306 l 688 1203 z "},"Û":{"ha":918,"x_min":94,"x_max":824,"o":"m 221 979 l 221 392 q 285 178 221 247 q 461 110 349 110 q 635 179 572 110 q 697 392 697 249 l 697 979 l 824 979 l 824 392 q 724 91 824 192 q 458 -10 625 -10 q 194 91 293 -10 q 94 392 94 192 l 94 979 l 221 979 m 460 1182 l 267 1065 l 267 1154 l 460 1269 l 651 1154 l 651 1065 l 460 1182 z "},"Ü":{"ha":918,"x_min":94,"x_max":824,"o":"m 221 979 l 221 392 q 285 178 221 247 q 461 110 349 110 q 635 179 572 110 q 697 392 697 249 l 697 979 l 824 979 l 824 392 q 724 91 824 192 q 458 -10 625 -10 q 194 91 293 -10 q 94 392 94 192 l 94 979 l 221 979 m 275 1154 q 295 1203 275 1183 q 344 1224 315 1224 q 394 1203 374 1224 q 414 1154 414 1183 q 394 1106 414 1126 q 344 1086 374 1086 q 295 1106 315 1086 q 275 1154 275 1126 m 506 1154 q 526 1203 506 1183 q 575 1224 546 1224 q 624 1203 604 1224 q 644 1154 644 1183 q 624 1106 644 1126 q 575 1086 604 1086 q 526 1106 546 1086 q 506 1154 506 1126 z "},"Ý":{"ha":824,"x_min":26,"x_max":797,"o":"m 797 979 l 476 371 l 476 0 l 349 0 l 349 371 l 26 979 l 174 979 l 414 506 l 653 979 l 797 979 m 642 1203 l 346 1040 l 346 1131 l 642 1306 l 642 1203 z "},"Þ":{"ha":793,"x_min":101,"x_max":747,"o":"m 228 204 l 228 0 l 101 0 l 101 979 l 228 979 l 228 779 l 413 779 q 664 702 581 779 q 747 490 747 625 q 661 279 747 354 q 413 204 575 204 l 228 204 m 401 304 q 567 353 517 304 q 618 490 618 401 q 567 630 618 582 q 401 678 517 678 l 228 678 l 228 304 l 401 304 z "},"ß":{"ha":908,"x_min":101,"x_max":867,"o":"m 675 515 q 822 386 778 453 q 867 226 867 319 q 833 103 867 158 q 740 17 800 49 q 604 -14 681 -14 q 405 56 476 -14 q 332 253 333 126 l 439 253 q 481 140 442 182 q 593 97 519 97 q 705 139 667 97 q 743 236 743 181 q 716 334 743 292 q 618 422 689 376 l 400 558 l 400 615 l 446 639 q 513 695 492 663 q 533 774 533 728 q 493 884 533 842 q 388 926 453 926 q 271 882 314 926 q 228 761 228 838 l 228 0 l 101 0 l 101 738 q 180 965 101 888 q 400 1042 258 1042 q 590 978 518 1042 q 663 815 663 915 q 628 701 663 750 q 518 619 593 653 l 514 618 l 675 515 z "},"à":{"ha":936,"x_min":64,"x_max":836,"o":"m 414 772 q 602 717 525 772 q 710 568 679 661 l 710 763 l 836 763 l 836 0 l 710 0 l 710 194 q 602 46 679 101 q 414 -10 525 -10 q 233 38 313 -10 q 109 173 154 85 q 64 381 64 261 q 109 589 64 500 q 233 725 154 678 q 414 772 313 772 m 450 660 q 263 585 333 660 q 193 381 193 511 q 263 176 193 250 q 450 101 333 101 q 584 136 525 101 q 676 234 643 171 q 710 381 710 297 q 676 528 710 464 q 584 626 643 592 q 450 660 525 660 m 508 913 l 508 822 l 213 985 l 213 1088 l 508 913 z "},"á":{"ha":936,"x_min":64,"x_max":836,"o":"m 414 772 q 602 717 525 772 q 710 568 679 661 l 710 763 l 836 763 l 836 0 l 710 0 l 710 194 q 602 46 679 101 q 414 -10 525 -10 q 233 38 313 -10 q 109 173 154 85 q 64 381 64 261 q 109 589 64 500 q 233 725 154 678 q 414 772 313 772 m 450 660 q 263 585 333 660 q 193 381 193 511 q 263 176 193 250 q 450 101 333 101 q 584 136 525 101 q 676 234 643 171 q 710 381 710 297 q 676 528 710 464 q 584 626 643 592 q 450 660 525 660 m 679 985 l 383 822 l 383 913 l 679 1088 l 679 985 z "},"â":{"ha":936,"x_min":64,"x_max":836,"o":"m 414 772 q 602 717 525 772 q 710 568 679 661 l 710 763 l 836 763 l 836 0 l 710 0 l 710 194 q 602 46 679 101 q 414 -10 525 -10 q 233 38 313 -10 q 109 173 154 85 q 64 381 64 261 q 109 589 64 500 q 233 725 154 678 q 414 772 313 772 m 450 660 q 263 585 333 660 q 193 381 193 511 q 263 176 193 250 q 450 101 333 101 q 584 136 525 101 q 676 234 643 171 q 710 381 710 297 q 676 528 710 464 q 584 626 643 592 q 450 660 525 660 m 450 964 l 257 847 l 257 936 l 450 1051 l 642 936 l 642 847 l 450 964 z "},"ã":{"ha":936,"x_min":64,"x_max":836,"o":"m 414 772 q 602 717 525 772 q 710 568 679 661 l 710 763 l 836 763 l 836 0 l 710 0 l 710 194 q 602 46 679 101 q 414 -10 525 -10 q 233 38 313 -10 q 109 173 154 85 q 64 381 64 261 q 109 589 64 500 q 233 725 154 678 q 414 772 313 772 m 450 660 q 263 585 333 660 q 193 381 193 511 q 263 176 193 250 q 450 101 333 101 q 584 136 525 101 q 676 234 643 171 q 710 381 710 297 q 676 528 710 464 q 584 626 643 592 q 450 660 525 660 m 367 989 q 414 979 393 989 q 460 951 435 969 q 499 928 485 935 q 533 921 514 921 q 574 938 558 921 q 594 986 590 954 l 665 986 q 620 879 656 917 q 531 842 585 842 q 480 851 501 842 q 432 879 458 861 q 396 901 411 894 q 363 908 381 908 q 303 843 311 908 l 233 843 q 278 953 244 917 q 367 989 313 989 z "},"ä":{"ha":936,"x_min":64,"x_max":836,"o":"m 414 772 q 602 717 525 772 q 710 568 679 661 l 710 763 l 836 763 l 836 0 l 710 0 l 710 194 q 602 46 679 101 q 414 -10 525 -10 q 233 38 313 -10 q 109 173 154 85 q 64 381 64 261 q 109 589 64 500 q 233 725 154 678 q 414 772 313 772 m 450 660 q 263 585 333 660 q 193 381 193 511 q 263 176 193 250 q 450 101 333 101 q 584 136 525 101 q 676 234 643 171 q 710 381 710 297 q 676 528 710 464 q 584 626 643 592 q 450 660 525 660 m 265 936 q 285 985 265 965 q 335 1006 306 1006 q 384 985 364 1006 q 404 936 404 965 q 384 888 404 908 q 335 868 364 868 q 285 888 306 868 q 265 936 265 908 m 496 936 q 516 985 496 965 q 565 1006 536 1006 q 615 985 594 1006 q 635 936 635 965 q 615 888 635 908 q 565 868 594 868 q 516 888 536 868 q 496 936 496 908 z "},"å":{"ha":936,"x_min":64,"x_max":836,"o":"m 414 772 q 602 717 525 772 q 710 568 679 661 l 710 763 l 836 763 l 836 0 l 710 0 l 710 194 q 602 46 679 101 q 414 -10 525 -10 q 233 38 313 -10 q 109 173 154 85 q 64 381 64 261 q 109 589 64 500 q 233 725 154 678 q 414 772 313 772 m 450 660 q 263 585 333 660 q 193 381 193 511 q 263 176 193 250 q 450 101 333 101 q 584 136 525 101 q 676 234 643 171 q 710 381 710 297 q 676 528 710 464 q 584 626 643 592 q 450 660 525 660 m 449 1135 q 553 1095 511 1135 q 594 989 594 1056 q 553 883 594 922 q 449 843 511 843 q 345 883 388 843 q 303 989 303 924 q 345 1094 303 1054 q 449 1135 388 1135 m 449 1076 q 388 1053 411 1076 q 364 989 364 1029 q 388 925 364 949 q 449 901 411 901 q 510 925 486 901 q 535 989 535 949 q 510 1053 535 1029 q 449 1076 486 1076 z "},"æ":{"ha":1536,"x_min":64,"x_max":1472,"o":"m 1472 424 q 1467 354 1472 383 l 839 354 q 917 158 844 224 q 1094 92 989 92 q 1253 138 1189 92 q 1333 264 1318 183 l 1467 264 q 1357 66 1446 142 q 1133 -10 1268 -10 q 944 43 1024 -10 q 836 194 865 96 l 836 0 l 710 0 l 710 194 q 602 46 679 101 q 414 -10 525 -10 q 233 38 313 -10 q 109 173 154 85 q 64 381 64 261 q 109 589 64 500 q 233 725 154 678 q 414 772 313 772 q 602 717 525 772 q 710 568 679 661 l 710 763 l 836 763 l 836 567 q 944 719 864 665 q 1133 772 1024 772 q 1315 725 1239 772 q 1432 599 1392 678 q 1472 424 1472 519 m 1346 415 q 1316 557 1350 500 q 1224 642 1282 614 q 1097 669 1165 669 q 918 606 992 669 q 839 415 844 543 l 1346 415 m 450 101 q 584 136 525 101 q 676 234 643 171 q 710 381 710 297 q 676 528 710 464 q 584 626 643 592 q 450 660 525 660 q 263 585 333 660 q 193 381 193 511 q 263 176 193 250 q 450 101 333 101 z "},"ç":{"ha":863,"x_min":64,"x_max":799,"o":"m 439 772 q 681 694 585 772 q 799 486 776 617 l 665 486 q 590 615 651 568 q 436 661 528 661 q 315 631 369 661 q 226 537 260 600 q 193 381 193 474 q 226 224 193 288 q 315 131 260 161 q 436 100 369 100 q 590 147 528 100 q 665 276 651 194 l 799 276 q 681 67 776 144 q 439 -10 585 -10 q 244 38 329 -10 q 112 173 160 85 q 64 381 64 261 q 112 589 64 500 q 244 725 160 678 q 439 772 329 772 m 456 -93 q 583 -123 533 -90 q 632 -224 632 -156 q 585 -326 632 -290 q 463 -361 538 -361 l 321 -361 l 321 -287 l 449 -287 q 542 -221 542 -287 q 519 -176 542 -193 q 449 -158 497 -158 l 374 -158 l 374 10 l 456 10 l 456 -93 z "},"è":{"ha":867,"x_min":64,"x_max":803,"o":"m 803 424 q 797 354 803 383 l 188 354 q 262 158 192 224 q 433 93 332 93 q 587 140 525 93 q 663 264 649 186 l 797 264 q 735 122 783 185 q 611 25 688 60 q 439 -10 535 -10 q 244 38 329 -10 q 112 173 160 85 q 64 381 64 261 q 112 589 64 500 q 244 725 160 678 q 439 772 329 772 q 633 725 550 772 q 759 599 715 678 q 803 424 803 519 m 675 415 q 647 557 679 500 q 560 642 615 614 q 439 669 504 669 q 264 605 335 669 q 188 415 193 540 l 675 415 m 492 913 l 492 822 l 196 985 l 196 1088 l 492 913 z "},"é":{"ha":867,"x_min":64,"x_max":803,"o":"m 803 424 q 797 354 803 383 l 188 354 q 262 158 192 224 q 433 93 332 93 q 587 140 525 93 q 663 264 649 186 l 797 264 q 735 122 783 185 q 611 25 688 60 q 439 -10 535 -10 q 244 38 329 -10 q 112 173 160 85 q 64 381 64 261 q 112 589 64 500 q 244 725 160 678 q 439 772 329 772 q 633 725 550 772 q 759 599 715 678 q 803 424 803 519 m 675 415 q 647 557 679 500 q 560 642 615 614 q 439 669 504 669 q 264 605 335 669 q 188 415 193 540 l 675 415 m 663 985 l 367 822 l 367 913 l 663 1088 l 663 985 z "},"ê":{"ha":867,"x_min":64,"x_max":803,"o":"m 803 424 q 797 354 803 383 l 188 354 q 262 158 192 224 q 433 93 332 93 q 587 140 525 93 q 663 264 649 186 l 797 264 q 735 122 783 185 q 611 25 688 60 q 439 -10 535 -10 q 244 38 329 -10 q 112 173 160 85 q 64 381 64 261 q 112 589 64 500 q 244 725 160 678 q 439 772 329 772 q 633 725 550 772 q 759 599 715 678 q 803 424 803 519 m 675 415 q 647 557 679 500 q 560 642 615 614 q 439 669 504 669 q 264 605 335 669 q 188 415 193 540 l 675 415 m 435 964 l 242 847 l 242 936 l 435 1051 l 626 936 l 626 847 l 435 964 z "},"ë":{"ha":867,"x_min":64,"x_max":803,"o":"m 803 424 q 797 354 803 383 l 188 354 q 262 158 192 224 q 433 93 332 93 q 587 140 525 93 q 663 264 649 186 l 797 264 q 735 122 783 185 q 611 25 688 60 q 439 -10 535 -10 q 244 38 329 -10 q 112 173 160 85 q 64 381 64 261 q 112 589 64 500 q 244 725 160 678 q 439 772 329 772 q 633 725 550 772 q 759 599 715 678 q 803 424 803 519 m 675 415 q 647 557 679 500 q 560 642 615 614 q 439 669 504 669 q 264 605 335 669 q 188 415 193 540 l 675 415 m 249 936 q 269 985 249 965 q 318 1006 289 1006 q 367 985 347 1006 q 388 936 388 965 q 367 888 388 908 q 318 868 347 868 q 269 888 289 868 q 249 936 249 908 m 479 936 q 499 985 479 965 q 549 1006 519 1006 q 598 985 578 1006 q 618 936 618 965 q 598 888 618 908 q 549 868 578 868 q 499 888 519 868 q 479 936 479 908 z "},"ì":{"ha":354,"x_min":-60,"x_max":240,"o":"m 240 763 l 240 0 l 113 0 l 113 763 l 240 763 m 236 913 l 236 822 l -60 985 l -60 1088 l 236 913 z "},"í":{"ha":354,"x_min":110,"x_max":406,"o":"m 240 763 l 240 0 l 113 0 l 113 763 l 240 763 m 406 985 l 110 822 l 110 913 l 406 1088 l 406 985 z "},"î":{"ha":354,"x_min":-15,"x_max":369,"o":"m 240 763 l 240 0 l 113 0 l 113 763 l 240 763 m 178 964 l -15 847 l -15 936 l 178 1051 l 369 936 l 369 847 l 178 964 z "},"ï":{"ha":354,"x_min":-7,"x_max":363,"o":"m 240 763 l 240 0 l 113 0 l 113 763 l 240 763 m -7 936 q 13 985 -7 965 q 63 1006 33 1006 q 112 985 92 1006 q 132 936 132 965 q 112 888 132 908 q 63 868 92 868 q 13 888 33 868 q -7 936 -7 908 m 224 936 q 244 985 224 965 q 293 1006 264 1006 q 342 985 322 1006 q 363 936 363 965 q 342 888 363 908 q 293 868 322 868 q 244 888 264 868 q 224 936 224 908 z "},"ð":{"ha":894,"x_min":64,"x_max":831,"o":"m 629 931 q 831 432 831 713 q 782 190 831 289 q 648 40 733 90 q 451 -10 563 -10 q 249 41 338 -10 q 113 184 161 92 q 64 396 64 276 q 111 596 64 510 q 243 728 158 682 q 438 775 328 775 q 595 728 525 775 q 699 590 665 682 q 644 755 681 679 q 544 901 607 831 l 356 838 l 356 890 l 507 942 q 410 1028 454 992 l 525 1028 q 590 969 549 1008 l 760 1026 l 760 975 l 629 931 m 451 101 q 579 134 522 101 q 669 229 636 167 q 701 381 701 292 q 667 535 701 471 q 576 631 633 599 q 449 664 518 664 q 265 594 338 664 q 193 396 193 524 q 227 236 193 303 q 319 135 261 169 q 451 101 378 101 z "},"ñ":{"ha":893,"x_min":101,"x_max":800,"o":"m 503 775 q 718 690 636 775 q 800 443 800 604 l 800 0 l 674 0 l 674 432 q 615 607 674 546 q 457 668 557 668 q 290 601 353 668 q 228 404 228 533 l 228 0 l 101 0 l 101 763 l 228 763 l 228 582 q 331 725 257 675 q 503 775 406 775 m 367 989 q 414 979 393 989 q 460 951 435 969 q 499 928 485 935 q 533 921 514 921 q 574 938 558 921 q 594 986 590 954 l 665 986 q 620 879 656 917 q 531 842 585 842 q 480 851 501 842 q 432 879 458 861 q 396 901 411 894 q 363 908 381 908 q 303 843 311 908 l 233 843 q 278 953 244 917 q 367 989 313 989 z "},"ò":{"ha":893,"x_min":64,"x_max":829,"o":"m 447 772 q 644 725 557 772 q 780 589 731 678 q 829 381 829 500 q 780 173 829 261 q 644 38 731 85 q 447 -10 557 -10 q 251 38 338 -10 q 114 173 164 85 q 64 381 64 261 q 114 589 64 500 q 251 725 164 678 q 447 772 338 772 m 447 661 q 322 631 379 661 q 228 537 264 600 q 193 381 193 474 q 228 226 193 289 q 322 132 264 163 q 447 101 379 101 q 573 132 515 101 q 666 226 631 163 q 701 381 701 289 q 666 537 701 474 q 573 631 631 600 q 447 661 515 661 m 506 913 l 506 822 l 210 985 l 210 1088 l 506 913 z "},"ó":{"ha":893,"x_min":64,"x_max":829,"o":"m 447 772 q 644 725 557 772 q 780 589 731 678 q 829 381 829 500 q 780 173 829 261 q 644 38 731 85 q 447 -10 557 -10 q 251 38 338 -10 q 114 173 164 85 q 64 381 64 261 q 114 589 64 500 q 251 725 164 678 q 447 772 338 772 m 447 661 q 322 631 379 661 q 228 537 264 600 q 193 381 193 474 q 228 226 193 289 q 322 132 264 163 q 447 101 379 101 q 573 132 515 101 q 666 226 631 163 q 701 381 701 289 q 666 537 701 474 q 573 631 631 600 q 447 661 515 661 m 675 985 l 379 822 l 379 913 l 675 1088 l 675 985 z "},"ô":{"ha":893,"x_min":64,"x_max":829,"o":"m 447 772 q 644 725 557 772 q 780 589 731 678 q 829 381 829 500 q 780 173 829 261 q 644 38 731 85 q 447 -10 557 -10 q 251 38 338 -10 q 114 173 164 85 q 64 381 64 261 q 114 589 64 500 q 251 725 164 678 q 447 772 338 772 m 447 661 q 322 631 379 661 q 228 537 264 600 q 193 381 193 474 q 228 226 193 289 q 322 132 264 163 q 447 101 379 101 q 573 132 515 101 q 666 226 631 163 q 701 381 701 289 q 666 537 701 474 q 573 631 631 600 q 447 661 515 661 m 447 964 l 254 847 l 254 936 l 447 1051 l 639 936 l 639 847 l 447 964 z "},"õ":{"ha":893,"x_min":64,"x_max":829,"o":"m 447 772 q 644 725 557 772 q 780 589 731 678 q 829 381 829 500 q 780 173 829 261 q 644 38 731 85 q 447 -10 557 -10 q 251 38 338 -10 q 114 173 164 85 q 64 381 64 261 q 114 589 64 500 q 251 725 164 678 q 447 772 338 772 m 447 661 q 322 631 379 661 q 228 537 264 600 q 193 381 193 474 q 228 226 193 289 q 322 132 264 163 q 447 101 379 101 q 573 132 515 101 q 666 226 631 163 q 701 381 701 289 q 666 537 701 474 q 573 631 631 600 q 447 661 515 661 m 364 989 q 411 979 390 989 q 457 951 432 969 q 497 928 482 935 q 531 921 511 921 q 572 938 556 921 q 592 986 588 954 l 663 986 q 617 879 653 917 q 528 842 582 842 q 477 851 499 842 q 429 879 456 861 q 393 901 408 894 q 360 908 378 908 q 300 843 308 908 l 231 843 q 276 953 242 917 q 364 989 310 989 z "},"ö":{"ha":893,"x_min":64,"x_max":829,"o":"m 447 772 q 644 725 557 772 q 780 589 731 678 q 829 381 829 500 q 780 173 829 261 q 644 38 731 85 q 447 -10 557 -10 q 251 38 338 -10 q 114 173 164 85 q 64 381 64 261 q 114 589 64 500 q 251 725 164 678 q 447 772 338 772 m 447 661 q 322 631 379 661 q 228 537 264 600 q 193 381 193 474 q 228 226 193 289 q 322 132 264 163 q 447 101 379 101 q 573 132 515 101 q 666 226 631 163 q 701 381 701 289 q 666 537 701 474 q 573 631 631 600 q 447 661 515 661 m 263 936 q 283 985 263 965 q 332 1006 303 1006 q 381 985 361 1006 q 401 936 401 965 q 381 888 401 908 q 332 868 361 868 q 283 888 303 868 q 263 936 263 908 m 493 936 q 513 985 493 965 q 563 1006 533 1006 q 612 985 592 1006 q 632 936 632 965 q 612 888 632 908 q 563 868 592 868 q 513 888 533 868 q 493 936 493 908 z "},"÷":{"ha":800,"x_min":46,"x_max":754,"o":"m 476 889 l 476 742 l 322 742 l 322 889 l 476 889 m 754 565 l 754 450 l 46 450 l 46 565 l 754 565 m 476 278 l 476 131 l 322 131 l 322 278 l 476 278 z "},"ø":{"ha":886,"x_min":60,"x_max":826,"o":"m 728 656 q 800 534 775 604 q 825 381 825 464 q 776 173 825 261 q 640 38 726 85 q 443 -10 553 -10 q 196 71 297 -10 l 132 0 l 63 0 l 158 106 q 60 381 60 211 q 110 589 60 500 q 247 725 160 678 q 443 772 333 772 q 578 751 515 772 q 690 690 642 731 l 756 763 l 826 763 l 728 656 m 189 381 q 242 197 189 271 l 610 603 q 533 647 576 632 q 443 661 490 661 q 317 631 375 661 q 224 537 260 600 q 189 381 189 474 m 697 381 q 646 564 697 493 l 278 160 q 443 101 344 101 q 569 132 511 101 q 662 226 626 163 q 697 381 697 289 z "},"ù":{"ha":881,"x_min":81,"x_max":779,"o":"m 779 763 l 779 0 l 653 0 l 653 179 q 549 37 624 86 q 376 -12 475 -12 q 163 73 244 -12 q 81 318 81 158 l 81 763 l 207 763 l 207 331 q 265 155 207 217 q 424 93 324 93 q 590 160 528 93 q 653 357 653 228 l 653 763 l 779 763 m 489 913 l 489 822 l 193 985 l 193 1088 l 489 913 z "},"ú":{"ha":881,"x_min":81,"x_max":779,"o":"m 779 763 l 779 0 l 653 0 l 653 179 q 549 37 624 86 q 376 -12 475 -12 q 163 73 244 -12 q 81 318 81 158 l 81 763 l 207 763 l 207 331 q 265 155 207 217 q 424 93 324 93 q 590 160 528 93 q 653 357 653 228 l 653 763 l 779 763 m 658 985 l 363 822 l 363 913 l 658 1088 l 658 985 z "},"û":{"ha":881,"x_min":81,"x_max":779,"o":"m 779 763 l 779 0 l 653 0 l 653 179 q 549 37 624 86 q 376 -12 475 -12 q 163 73 244 -12 q 81 318 81 158 l 81 763 l 207 763 l 207 331 q 265 155 207 217 q 424 93 324 93 q 590 160 528 93 q 653 357 653 228 l 653 763 l 779 763 m 431 964 l 238 847 l 238 936 l 431 1051 l 622 936 l 622 847 l 431 964 z "},"ü":{"ha":881,"x_min":81,"x_max":779,"o":"m 779 763 l 779 0 l 653 0 l 653 179 q 549 37 624 86 q 376 -12 475 -12 q 163 73 244 -12 q 81 318 81 158 l 81 763 l 207 763 l 207 331 q 265 155 207 217 q 424 93 324 93 q 590 160 528 93 q 653 357 653 228 l 653 763 l 779 763 m 246 936 q 266 985 246 965 q 315 1006 286 1006 q 365 985 344 1006 q 385 936 385 965 q 365 888 385 908 q 315 868 344 868 q 266 888 286 868 q 246 936 246 908 m 476 936 q 497 985 476 965 q 546 1006 517 1006 q 595 985 575 1006 q 615 936 615 965 q 595 888 615 908 q 546 868 575 868 q 497 888 517 868 q 476 936 476 908 z "},"ý":{"ha":785,"x_min":13,"x_max":771,"o":"m 154 763 l 401 163 l 631 763 l 771 763 l 318 -361 l 175 -361 l 333 13 l 13 763 l 154 763 m 621 985 l 325 822 l 325 913 l 621 1088 l 621 985 z "},"þ":{"ha":936,"x_min":101,"x_max":872,"o":"m 514 769 q 698 721 617 769 q 826 584 779 672 q 872 379 872 496 q 826 174 872 263 q 698 38 779 86 q 514 -10 617 -10 q 335 43 410 -10 q 228 186 261 96 l 228 -361 l 101 -361 l 101 1028 l 228 1028 l 228 582 q 335 719 261 668 q 514 769 410 769 m 486 660 q 355 626 414 660 q 262 528 296 592 q 228 381 228 465 q 262 233 228 296 q 355 135 296 169 q 486 101 414 101 q 673 174 601 101 q 744 379 744 247 q 672 585 744 511 q 486 660 600 660 z "},"ÿ":{"ha":785,"x_min":13,"x_max":771,"o":"m 154 763 l 401 163 l 631 763 l 771 763 l 318 -361 l 175 -361 l 333 13 l 13 763 l 154 763 m 207 936 q 227 985 207 965 q 276 1006 247 1006 q 326 985 306 1006 q 346 936 346 965 q 326 888 346 908 q 276 868 306 868 q 227 888 247 868 q 207 936 207 908 m 438 936 q 458 985 438 965 q 507 1006 478 1006 q 556 985 536 1006 q 576 936 576 965 q 556 888 576 908 q 507 868 536 868 q 458 888 478 868 q 438 936 438 908 z "},"Ā":{"ha":919,"x_min":26,"x_max":893,"o":"m 675 226 l 244 226 l 163 0 l 26 0 l 389 961 l 532 961 l 893 0 l 757 0 l 675 226 m 639 325 l 460 819 l 281 325 l 639 325 m 706 1204 l 706 1115 l 215 1115 l 215 1204 l 706 1204 z "},"ā":{"ha":936,"x_min":64,"x_max":836,"o":"m 414 772 q 602 717 525 772 q 710 568 679 661 l 710 763 l 836 763 l 836 0 l 710 0 l 710 194 q 602 46 679 101 q 414 -10 525 -10 q 233 38 313 -10 q 109 173 154 85 q 64 381 64 261 q 109 589 64 500 q 233 725 154 678 q 414 772 313 772 m 450 660 q 263 585 333 660 q 193 381 193 511 q 263 176 193 250 q 450 101 333 101 q 584 136 525 101 q 676 234 643 171 q 710 381 710 297 q 676 528 710 464 q 584 626 643 592 q 450 660 525 660 m 696 986 l 696 897 l 206 897 l 206 986 l 696 986 z "},"Ă":{"ha":919,"x_min":26,"x_max":893,"o":"m 675 226 l 244 226 l 163 0 l 26 0 l 389 961 l 532 961 l 893 0 l 757 0 l 675 226 m 639 325 l 460 819 l 281 325 l 639 325 m 458 1065 q 313 1119 365 1065 q 260 1258 260 1174 l 260 1271 l 329 1271 q 361 1188 329 1217 q 458 1160 393 1160 q 556 1188 524 1160 q 589 1271 589 1217 l 657 1271 l 657 1258 q 604 1119 657 1174 q 458 1065 551 1065 z "},"ă":{"ha":936,"x_min":64,"x_max":836,"o":"m 414 772 q 602 717 525 772 q 710 568 679 661 l 710 763 l 836 763 l 836 0 l 710 0 l 710 194 q 602 46 679 101 q 414 -10 525 -10 q 233 38 313 -10 q 109 173 154 85 q 64 381 64 261 q 109 589 64 500 q 233 725 154 678 q 414 772 313 772 m 450 660 q 263 585 333 660 q 193 381 193 511 q 263 176 193 250 q 450 101 333 101 q 584 136 525 101 q 676 234 643 171 q 710 381 710 297 q 676 528 710 464 q 584 626 643 592 q 450 660 525 660 m 450 847 q 304 901 357 847 q 251 1040 251 956 l 251 1053 l 321 1053 q 353 970 321 999 q 450 942 385 942 q 548 970 515 942 q 581 1053 581 999 l 649 1053 l 649 1040 q 596 901 649 956 q 450 847 543 847 z "},"Ą":{"ha":919,"x_min":26,"x_max":947,"o":"m 947 -204 l 947 -278 l 804 -278 q 676 -240 725 -278 q 626 -133 626 -203 q 658 -45 626 -81 q 756 3 689 -10 l 675 226 l 244 226 l 163 0 l 26 0 l 389 961 l 532 961 l 890 7 l 890 -56 l 815 -56 q 744 -75 769 -56 q 718 -129 718 -94 q 744 -184 718 -164 q 815 -204 769 -204 l 947 -204 m 639 325 l 460 819 l 281 325 l 639 325 z "},"ą":{"ha":936,"x_min":64,"x_max":894,"o":"m 414 772 q 602 717 525 772 q 710 568 679 661 l 710 763 l 836 763 l 836 0 l 710 0 l 710 194 q 602 46 679 101 q 414 -10 525 -10 q 233 38 313 -10 q 109 173 154 85 q 64 381 64 261 q 109 589 64 500 q 233 725 154 678 q 414 772 313 772 m 450 660 q 263 585 333 660 q 193 381 193 511 q 263 176 193 250 q 450 101 333 101 q 584 136 525 101 q 676 234 643 171 q 710 381 710 297 q 676 528 710 464 q 584 626 643 592 q 450 660 525 660 m 836 15 l 836 -53 l 761 -53 q 690 -72 717 -53 q 664 -126 664 -92 q 690 -182 664 -161 q 761 -203 717 -203 l 894 -203 l 894 -276 l 750 -276 q 623 -238 672 -276 q 574 -131 574 -200 q 621 -24 574 -62 q 740 15 668 15 l 836 15 z "},"Ć":{"ha":1060,"x_min":68,"x_max":992,"o":"m 535 989 q 831 901 714 989 q 992 660 947 813 l 858 660 q 738 815 821 757 q 533 872 654 872 q 362 826 438 872 q 242 692 286 779 q 199 489 199 606 q 242 288 199 374 q 362 155 286 201 q 533 108 438 108 q 738 166 654 108 q 858 321 821 224 l 992 321 q 831 80 947 168 q 535 -8 714 -8 q 292 55 397 -8 q 127 231 186 118 q 68 489 68 344 q 127 749 68 635 q 292 926 186 863 q 535 989 397 989 m 758 1203 l 463 1040 l 463 1131 l 758 1306 l 758 1203 z "},"ć":{"ha":863,"x_min":64,"x_max":799,"o":"m 439 772 q 681 694 585 772 q 799 486 776 617 l 665 486 q 590 615 651 568 q 436 661 528 661 q 315 631 369 661 q 226 537 260 600 q 193 381 193 474 q 226 224 193 288 q 315 131 260 161 q 436 100 369 100 q 590 147 528 100 q 665 276 651 194 l 799 276 q 681 67 776 144 q 439 -10 585 -10 q 244 38 329 -10 q 112 173 160 85 q 64 381 64 261 q 112 589 64 500 q 244 725 160 678 q 439 772 329 772 m 660 985 l 364 822 l 364 913 l 660 1088 l 660 985 z "},"Ċ":{"ha":1060,"x_min":68,"x_max":992,"o":"m 535 989 q 831 901 714 989 q 992 660 947 813 l 858 660 q 738 815 821 757 q 533 872 654 872 q 362 826 438 872 q 242 692 286 779 q 199 489 199 606 q 242 288 199 374 q 362 155 286 201 q 533 108 438 108 q 738 166 654 108 q 858 321 821 224 l 992 321 q 831 80 947 168 q 535 -8 714 -8 q 292 55 397 -8 q 127 231 186 118 q 68 489 68 344 q 127 749 68 635 q 292 926 186 863 q 535 989 397 989 m 460 1154 q 480 1203 460 1183 q 528 1224 500 1224 q 578 1203 557 1224 q 599 1154 599 1183 q 578 1106 599 1126 q 528 1086 557 1086 q 480 1106 500 1086 q 460 1154 460 1126 z "},"ċ":{"ha":863,"x_min":64,"x_max":799,"o":"m 439 772 q 681 694 585 772 q 799 486 776 617 l 665 486 q 590 615 651 568 q 436 661 528 661 q 315 631 369 661 q 226 537 260 600 q 193 381 193 474 q 226 224 193 288 q 315 131 260 161 q 436 100 369 100 q 590 147 528 100 q 665 276 651 194 l 799 276 q 681 67 776 144 q 439 -10 585 -10 q 244 38 329 -10 q 112 173 160 85 q 64 381 64 261 q 112 589 64 500 q 244 725 160 678 q 439 772 329 772 m 363 936 q 383 985 363 965 q 431 1006 403 1006 q 481 985 460 1006 q 501 936 501 965 q 481 888 501 908 q 431 868 460 868 q 383 888 403 868 q 363 936 363 908 z "},"Č":{"ha":1060,"x_min":68,"x_max":992,"o":"m 535 989 q 831 901 714 989 q 992 660 947 813 l 858 660 q 738 815 821 757 q 533 872 654 872 q 362 826 438 872 q 242 692 286 779 q 199 489 199 606 q 242 288 199 374 q 362 155 286 201 q 533 108 438 108 q 738 166 654 108 q 858 321 821 224 l 992 321 q 831 80 947 168 q 535 -8 714 -8 q 292 55 397 -8 q 127 231 186 118 q 68 489 68 344 q 127 749 68 635 q 292 926 186 863 q 535 989 397 989 m 722 1178 l 531 1063 l 338 1178 l 338 1267 l 531 1150 l 722 1267 l 722 1178 z "},"č":{"ha":863,"x_min":64,"x_max":799,"o":"m 439 772 q 681 694 585 772 q 799 486 776 617 l 665 486 q 590 615 651 568 q 436 661 528 661 q 315 631 369 661 q 226 537 260 600 q 193 381 193 474 q 226 224 193 288 q 315 131 260 161 q 436 100 369 100 q 590 147 528 100 q 665 276 651 194 l 799 276 q 681 67 776 144 q 439 -10 585 -10 q 244 38 329 -10 q 112 173 160 85 q 64 381 64 261 q 112 589 64 500 q 244 725 160 678 q 439 772 329 772 m 624 960 l 432 844 l 239 960 l 239 1049 l 432 932 l 624 1049 l 624 960 z "},"Ď":{"ha":996,"x_min":101,"x_max":926,"o":"m 926 490 q 867 231 926 342 q 691 60 807 121 q 413 0 575 0 l 101 0 l 101 979 l 413 979 q 691 920 575 979 q 867 751 807 861 q 926 490 926 640 m 403 114 q 696 213 594 114 q 797 490 797 311 q 697 769 797 669 q 403 868 596 868 l 228 868 l 228 114 l 403 114 m 706 1178 l 514 1063 l 321 1178 l 321 1267 l 514 1150 l 706 1267 l 706 1178 z "},"ď":{"ha":1036,"x_min":64,"x_max":1058,"o":"m 414 772 q 602 717 525 772 q 710 568 679 661 l 710 1028 l 836 1028 l 836 0 l 710 0 l 710 194 q 602 46 679 101 q 414 -10 525 -10 q 233 38 313 -10 q 109 173 154 85 q 64 381 64 261 q 109 589 64 500 q 233 725 154 678 q 414 772 313 772 m 1043 1028 q 1058 900 1058 961 q 1023 783 1058 822 q 918 743 988 743 l 918 800 q 969 819 954 800 q 985 876 985 838 l 985 908 l 915 908 l 915 1028 l 1043 1028 m 450 660 q 263 585 333 660 q 193 381 193 511 q 263 176 193 250 q 450 101 333 101 q 584 136 525 101 q 676 234 643 171 q 710 381 710 297 q 676 528 710 464 q 584 626 643 592 q 450 660 525 660 z "},"Đ":{"ha":1031,"x_min":8,"x_max":963,"o":"m 447 979 q 727 920 611 979 q 903 751 843 861 q 963 490 963 640 q 903 231 963 342 q 727 60 843 121 q 447 0 611 0 l 136 0 l 136 439 l 8 439 l 8 542 l 136 542 l 136 979 l 447 979 m 438 114 q 732 213 631 114 q 833 490 833 313 q 732 769 833 669 q 438 868 631 868 l 264 868 l 264 542 l 538 542 l 538 439 l 264 439 l 264 114 l 438 114 z "},"đ":{"ha":942,"x_min":64,"x_max":928,"o":"m 928 874 l 836 874 l 836 0 l 710 0 l 710 194 q 602 46 679 101 q 414 -10 525 -10 q 233 38 313 -10 q 109 173 154 85 q 64 381 64 261 q 109 589 64 500 q 233 725 154 678 q 414 772 313 772 q 602 717 525 772 q 710 568 679 661 l 710 874 l 496 874 l 496 938 l 710 938 l 710 1028 l 836 1028 l 836 938 l 928 938 l 928 874 m 450 101 q 584 136 525 101 q 676 234 643 171 q 710 381 710 297 q 676 528 710 464 q 584 626 643 592 q 450 660 525 660 q 263 585 333 660 q 193 381 193 511 q 263 176 193 250 q 450 101 333 101 z "},"Ē":{"ha":703,"x_min":101,"x_max":642,"o":"m 228 876 l 228 542 l 600 542 l 600 444 l 228 444 l 228 103 l 642 103 l 642 0 l 101 0 l 101 979 l 642 979 l 642 876 l 228 876 m 617 1204 l 617 1115 l 126 1115 l 126 1204 l 617 1204 z "},"ē":{"ha":867,"x_min":64,"x_max":803,"o":"m 803 424 q 797 354 803 383 l 188 354 q 262 158 192 224 q 433 93 332 93 q 587 140 525 93 q 663 264 649 186 l 797 264 q 735 122 783 185 q 611 25 688 60 q 439 -10 535 -10 q 244 38 329 -10 q 112 173 160 85 q 64 381 64 261 q 112 589 64 500 q 244 725 160 678 q 439 772 329 772 q 633 725 550 772 q 759 599 715 678 q 803 424 803 519 m 675 415 q 647 557 679 500 q 560 642 615 614 q 439 669 504 669 q 264 605 335 669 q 188 415 193 540 l 675 415 m 679 986 l 679 897 l 189 897 l 189 986 l 679 986 z "},"Ĕ":{"ha":703,"x_min":101,"x_max":642,"o":"m 228 876 l 228 542 l 600 542 l 600 444 l 228 444 l 228 103 l 642 103 l 642 0 l 101 0 l 101 979 l 642 979 l 642 876 l 228 876 m 371 1065 q 225 1119 278 1065 q 172 1258 172 1174 l 172 1271 l 242 1271 q 274 1188 242 1217 q 371 1160 306 1160 q 469 1188 436 1160 q 501 1271 501 1217 l 569 1271 l 569 1258 q 517 1119 569 1174 q 371 1065 464 1065 z "},"ĕ":{"ha":867,"x_min":64,"x_max":803,"o":"m 803 424 q 797 354 803 383 l 188 354 q 262 158 192 224 q 433 93 332 93 q 587 140 525 93 q 663 264 649 186 l 797 264 q 735 122 783 185 q 611 25 688 60 q 439 -10 535 -10 q 244 38 329 -10 q 112 173 160 85 q 64 381 64 261 q 112 589 64 500 q 244 725 160 678 q 439 772 329 772 q 633 725 550 772 q 759 599 715 678 q 803 424 803 519 m 675 415 q 647 557 679 500 q 560 642 615 614 q 439 669 504 669 q 264 605 335 669 q 188 415 193 540 l 675 415 m 433 847 q 288 901 340 847 q 235 1040 235 956 l 235 1053 l 304 1053 q 336 970 304 999 q 433 942 368 942 q 531 970 499 942 q 564 1053 564 999 l 632 1053 l 632 1040 q 579 901 632 956 q 433 847 526 847 z "},"Ė":{"ha":703,"x_min":101,"x_max":642,"o":"m 228 876 l 228 542 l 600 542 l 600 444 l 228 444 l 228 103 l 642 103 l 642 0 l 101 0 l 101 979 l 642 979 l 642 876 l 228 876 m 303 1154 q 323 1203 303 1183 q 371 1224 343 1224 q 421 1203 400 1224 q 442 1154 442 1183 q 421 1106 442 1126 q 371 1086 400 1086 q 323 1106 343 1086 q 303 1154 303 1126 z "},"ė":{"ha":867,"x_min":64,"x_max":803,"o":"m 803 424 q 797 354 803 383 l 188 354 q 262 158 192 224 q 433 93 332 93 q 587 140 525 93 q 663 264 649 186 l 797 264 q 735 122 783 185 q 611 25 688 60 q 439 -10 535 -10 q 244 38 329 -10 q 112 173 160 85 q 64 381 64 261 q 112 589 64 500 q 244 725 160 678 q 439 772 329 772 q 633 725 550 772 q 759 599 715 678 q 803 424 803 519 m 675 415 q 647 557 679 500 q 560 642 615 614 q 439 669 504 669 q 264 605 335 669 q 188 415 193 540 l 675 415 m 364 936 q 384 985 364 965 q 432 1006 404 1006 q 482 985 461 1006 q 503 936 503 965 q 482 888 503 908 q 432 868 461 868 q 384 888 404 868 q 364 936 364 908 z "},"Ę":{"ha":703,"x_min":101,"x_max":678,"o":"m 228 876 l 228 542 l 600 542 l 600 444 l 228 444 l 228 103 l 642 103 l 642 0 l 101 0 l 101 979 l 642 979 l 642 876 l 228 876 m 619 51 l 619 -17 l 544 -17 q 474 -36 500 -17 q 447 -90 447 -56 q 474 -146 447 -125 q 544 -167 500 -167 l 678 -167 l 678 -240 l 533 -240 q 406 -202 456 -240 q 357 -94 357 -164 q 404 13 357 -26 q 524 51 451 51 l 619 51 z "},"ę":{"ha":867,"x_min":64,"x_max":803,"o":"m 803 424 q 797 354 803 383 l 188 354 q 263 158 192 224 q 433 93 333 93 q 587 140 525 93 q 663 264 649 186 l 797 264 q 701 88 778 160 q 510 -3 625 15 q 485 -14 493 -6 q 478 -37 478 -22 q 505 -85 478 -67 q 581 -104 532 -104 l 704 -104 l 704 -178 l 565 -178 q 437 -140 486 -178 q 388 -33 388 -103 l 388 -4 q 219 54 292 6 q 105 187 146 103 q 64 381 64 271 q 112 589 64 500 q 244 725 160 678 q 439 772 329 772 q 633 725 550 772 q 759 599 715 678 q 803 424 803 519 m 675 415 q 647 557 679 500 q 560 642 615 614 q 439 669 504 669 q 264 605 335 669 q 188 415 193 540 l 675 415 z "},"Ě":{"ha":703,"x_min":101,"x_max":642,"o":"m 228 876 l 228 542 l 600 542 l 600 444 l 228 444 l 228 103 l 642 103 l 642 0 l 101 0 l 101 979 l 642 979 l 642 876 l 228 876 m 564 1178 l 372 1063 l 179 1178 l 179 1267 l 372 1150 l 564 1267 l 564 1178 z "},"ě":{"ha":867,"x_min":64,"x_max":803,"o":"m 803 424 q 797 354 803 383 l 188 354 q 262 158 192 224 q 433 93 332 93 q 587 140 525 93 q 663 264 649 186 l 797 264 q 735 122 783 185 q 611 25 688 60 q 439 -10 535 -10 q 244 38 329 -10 q 112 173 160 85 q 64 381 64 261 q 112 589 64 500 q 244 725 160 678 q 439 772 329 772 q 633 725 550 772 q 759 599 715 678 q 803 424 803 519 m 675 415 q 647 557 679 500 q 560 642 615 614 q 439 669 504 669 q 264 605 335 669 q 188 415 193 540 l 675 415 m 626 960 l 435 844 l 242 960 l 242 1049 l 435 932 l 626 1049 l 626 960 z "},"Ğ":{"ha":1081,"x_min":68,"x_max":1011,"o":"m 546 989 q 833 904 717 989 q 989 674 949 819 l 856 674 q 740 817 821 763 q 547 871 658 871 q 368 824 447 871 q 244 692 289 778 q 199 489 199 606 q 244 283 199 369 q 372 149 290 196 q 558 103 453 103 q 724 142 649 103 q 847 255 799 181 q 904 429 894 329 l 519 429 l 519 524 l 1011 524 l 1011 407 q 939 196 999 290 q 778 46 879 101 q 547 -10 676 -10 q 297 53 406 -10 q 128 230 189 117 q 68 489 68 343 q 128 748 68 635 q 297 925 189 861 q 546 989 406 989 m 540 1065 q 394 1119 447 1065 q 342 1258 342 1174 l 342 1271 l 411 1271 q 443 1188 411 1217 q 540 1160 475 1160 q 638 1188 606 1160 q 671 1271 671 1217 l 739 1271 l 739 1258 q 686 1119 739 1174 q 540 1065 633 1065 z "},"ğ":{"ha":936,"x_min":64,"x_max":836,"o":"m 414 772 q 602 717 525 772 q 710 568 679 661 l 710 763 l 836 763 l 836 -12 q 792 -200 836 -118 q 667 -328 747 -282 q 479 -374 586 -374 q 228 -299 325 -374 q 104 -99 131 -225 l 229 -99 q 313 -219 251 -175 q 472 -262 375 -262 q 642 -197 575 -262 q 710 -12 710 -131 l 710 194 q 602 46 679 101 q 414 -10 525 -10 q 233 38 313 -10 q 109 173 154 85 q 64 381 64 261 q 109 589 64 500 q 233 725 154 678 q 414 772 313 772 m 450 660 q 263 585 333 660 q 193 381 193 511 q 263 176 193 250 q 450 101 333 101 q 584 136 525 101 q 676 234 643 171 q 710 381 710 297 q 676 528 710 464 q 584 626 643 592 q 450 660 525 660 m 450 847 q 304 901 357 847 q 251 1040 251 956 l 251 1053 l 321 1053 q 353 970 321 999 q 450 942 385 942 q 548 970 515 942 q 581 1053 581 999 l 649 1053 l 649 1040 q 596 901 649 956 q 450 847 543 847 z "},"Ġ":{"ha":1081,"x_min":68,"x_max":1011,"o":"m 546 989 q 833 904 717 989 q 989 674 949 819 l 856 674 q 740 817 821 763 q 547 871 658 871 q 368 824 447 871 q 244 692 289 778 q 199 489 199 606 q 244 283 199 369 q 372 149 290 196 q 558 103 453 103 q 724 142 649 103 q 847 255 799 181 q 904 429 894 329 l 519 429 l 519 524 l 1011 524 l 1011 407 q 939 196 999 290 q 778 46 879 101 q 547 -10 676 -10 q 297 53 406 -10 q 128 230 189 117 q 68 489 68 343 q 128 748 68 635 q 297 925 189 861 q 546 989 406 989 m 471 1154 q 491 1203 471 1183 q 539 1224 511 1224 q 589 1203 568 1224 q 610 1154 610 1183 q 589 1106 610 1126 q 539 1086 568 1086 q 491 1106 511 1086 q 471 1154 471 1126 z "},"ġ":{"ha":936,"x_min":64,"x_max":836,"o":"m 414 772 q 602 717 525 772 q 710 568 679 661 l 710 763 l 836 763 l 836 -12 q 792 -200 836 -118 q 667 -328 747 -282 q 479 -374 586 -374 q 228 -299 325 -374 q 104 -99 131 -225 l 229 -99 q 313 -219 251 -175 q 472 -262 375 -262 q 642 -197 575 -262 q 710 -12 710 -131 l 710 194 q 602 46 679 101 q 414 -10 525 -10 q 233 38 313 -10 q 109 173 154 85 q 64 381 64 261 q 109 589 64 500 q 233 725 154 678 q 414 772 313 772 m 450 660 q 263 585 333 660 q 193 381 193 511 q 263 176 193 250 q 450 101 333 101 q 584 136 525 101 q 676 234 643 171 q 710 381 710 297 q 676 528 710 464 q 584 626 643 592 q 450 660 525 660 m 381 936 q 401 985 381 965 q 449 1006 421 1006 q 499 985 478 1006 q 519 936 519 965 q 499 888 519 908 q 449 868 478 868 q 401 888 421 868 q 381 936 381 908 z "},"Ģ":{"ha":1082,"x_min":68,"x_max":1011,"o":"m 546 989 q 833 904 717 989 q 989 674 949 819 l 856 674 q 740 817 821 763 q 547 871 658 871 q 368 824 447 871 q 244 692 289 778 q 199 489 199 606 q 244 283 199 369 q 372 149 290 196 q 558 103 453 103 q 724 142 649 103 q 847 255 799 181 q 904 429 894 329 l 519 429 l 519 524 l 1011 524 l 1011 407 q 939 196 999 290 q 778 46 879 101 q 547 -10 676 -10 q 297 53 406 -10 q 128 230 189 117 q 68 489 68 343 q 128 748 68 635 q 297 925 189 861 q 546 989 406 989 m 607 -69 q 622 -164 622 -119 q 586 -287 622 -246 q 482 -328 550 -328 l 482 -274 q 549 -189 549 -274 l 549 -176 l 485 -176 l 485 -69 l 607 -69 z "},"ģ":{"ha":936,"x_min":64,"x_max":836,"o":"m 403 826 q 386 956 386 893 q 422 1072 386 1032 q 528 1111 458 1111 l 528 1056 q 476 1036 492 1056 q 460 978 460 1017 l 460 947 l 529 947 l 529 826 l 403 826 m 414 772 q 602 717 525 772 q 710 568 679 661 l 710 763 l 836 763 l 836 -12 q 792 -200 836 -118 q 667 -328 747 -282 q 479 -374 586 -374 q 228 -299 325 -374 q 104 -99 131 -225 l 229 -99 q 313 -219 251 -175 q 472 -262 375 -262 q 642 -197 575 -262 q 710 -12 710 -131 l 710 194 q 602 46 679 101 q 414 -10 525 -10 q 233 38 313 -10 q 109 173 154 85 q 64 381 64 261 q 109 589 64 500 q 233 725 154 678 q 414 772 313 772 m 450 660 q 263 585 333 660 q 193 381 193 511 q 263 176 193 250 q 450 101 333 101 q 584 136 525 101 q 676 234 643 171 q 710 381 710 297 q 676 528 710 464 q 584 626 643 592 q 450 660 525 660 z "},"Ĩ":{"ha":329,"x_min":-51,"x_max":381,"o":"m 228 979 l 228 0 l 101 0 l 101 979 l 228 979 m 82 1207 q 129 1197 108 1207 q 175 1169 150 1188 q 215 1146 200 1153 q 249 1139 229 1139 q 290 1156 274 1139 q 310 1204 306 1172 l 381 1204 q 335 1097 371 1135 q 246 1060 300 1060 q 195 1069 217 1060 q 147 1097 174 1079 q 111 1119 126 1113 q 78 1126 96 1126 q 18 1061 26 1126 l -51 1061 q -6 1171 -40 1135 q 82 1207 28 1207 z "},"ĩ":{"ha":354,"x_min":-39,"x_max":393,"o":"m 240 763 l 240 0 l 113 0 l 113 763 l 240 763 m 94 989 q 142 979 121 989 q 188 951 163 969 q 227 928 213 935 q 261 921 242 921 q 302 938 286 921 q 322 986 318 954 l 393 986 q 348 879 383 917 q 258 842 313 842 q 208 851 229 842 q 160 879 186 861 q 124 901 139 894 q 90 908 108 908 q 31 843 39 908 l -39 843 q 6 953 -28 917 q 94 989 40 989 z "},"Ī":{"ha":329,"x_min":-81,"x_max":410,"o":"m 228 979 l 228 0 l 101 0 l 101 979 l 228 979 m 410 1204 l 410 1115 l -81 1115 l -81 1204 l 410 1204 z "},"ī":{"ha":354,"x_min":-68,"x_max":422,"o":"m 240 763 l 240 0 l 113 0 l 113 763 l 240 763 m 422 986 l 422 897 l -68 897 l -68 986 l 422 986 z "},"Ĭ":{"ha":329,"x_min":-35,"x_max":363,"o":"m 228 979 l 228 0 l 101 0 l 101 979 l 228 979 m 164 1065 q 18 1119 71 1065 q -35 1258 -35 1174 l -35 1271 l 35 1271 q 67 1188 35 1217 q 164 1160 99 1160 q 262 1188 229 1160 q 294 1271 294 1217 l 363 1271 l 363 1258 q 310 1119 363 1174 q 164 1065 257 1065 z "},"ĭ":{"ha":354,"x_min":-22,"x_max":375,"o":"m 240 763 l 240 0 l 113 0 l 113 763 l 240 763 m 176 847 q 31 901 83 847 q -22 1040 -22 956 l -22 1053 l 47 1053 q 79 970 47 999 q 176 942 111 942 q 274 970 242 942 q 307 1053 307 999 l 375 1053 l 375 1040 q 322 901 375 956 q 176 847 269 847 z "},"Į":{"ha":329,"x_min":-35,"x_max":286,"o":"m 228 979 l 228 0 l 101 0 l 101 979 l 228 979 m 228 15 l 228 -53 l 153 -53 q 82 -72 108 -53 q 56 -126 56 -92 q 82 -182 56 -161 q 153 -203 108 -203 l 286 -203 l 286 -276 l 142 -276 q 15 -238 64 -276 q -35 -131 -35 -200 q 13 -24 -35 -62 q 132 15 60 15 l 228 15 z "},"į":{"ha":329,"x_min":-35,"x_max":286,"o":"m 79 986 q 103 1042 79 1021 q 165 1064 126 1064 q 228 1042 204 1064 q 251 986 251 1021 q 228 930 251 951 q 165 908 204 908 q 103 930 126 908 q 79 986 79 951 m 228 763 l 228 0 l 101 0 l 101 763 l 228 763 m 228 15 l 228 -53 l 153 -53 q 82 -72 108 -53 q 56 -126 56 -92 q 82 -182 56 -161 q 153 -203 108 -203 l 286 -203 l 286 -276 l 142 -276 q 15 -238 64 -276 q -35 -131 -35 -200 q 13 -24 -35 -62 q 132 15 60 15 l 228 15 z "},"İ":{"ha":329,"x_min":96,"x_max":235,"o":"m 228 979 l 228 0 l 101 0 l 101 979 l 228 979 m 96 1154 q 116 1203 96 1183 q 164 1224 136 1224 q 214 1203 193 1224 q 235 1154 235 1183 q 214 1106 235 1126 q 164 1086 193 1086 q 116 1106 136 1086 q 96 1154 96 1126 z "},"ı":{"ha":354,"x_min":113,"x_max":240,"o":"m 240 763 l 240 0 l 113 0 l 113 763 l 240 763 z "},"Ķ":{"ha":836,"x_min":101,"x_max":792,"o":"m 344 494 l 792 0 l 636 0 l 228 457 l 228 0 l 101 0 l 101 979 l 228 979 l 228 525 l 638 979 l 792 979 l 344 494 m 474 -69 q 489 -164 489 -114 q 453 -287 489 -246 q 350 -328 417 -328 l 350 -274 q 415 -189 415 -274 l 415 -176 l 351 -176 l 351 -69 l 474 -69 z "},"ķ":{"ha":688,"x_min":101,"x_max":678,"o":"m 678 0 l 519 0 l 228 343 l 228 0 l 101 0 l 101 1028 l 228 1028 l 228 431 l 515 763 l 669 763 l 328 383 l 678 0 m 410 -69 q 425 -164 425 -119 q 389 -287 425 -246 q 285 -328 353 -328 l 285 -274 q 351 -189 351 -274 l 351 -176 l 288 -176 l 288 -69 l 410 -69 z "},"Ĺ":{"ha":603,"x_min":101,"x_max":575,"o":"m 228 99 l 575 99 l 575 0 l 101 0 l 101 979 l 228 979 l 228 99 m 440 1203 l 144 1040 l 144 1131 l 440 1306 l 440 1203 z "},"ĺ":{"ha":329,"x_min":100,"x_max":396,"o":"m 228 1028 l 228 0 l 101 0 l 101 1028 l 228 1028 m 396 1238 l 100 1075 l 100 1165 l 396 1340 l 396 1238 z "},"Ļ":{"ha":606,"x_min":101,"x_max":575,"o":"m 228 99 l 575 99 l 575 0 l 101 0 l 101 979 l 228 979 l 228 99 m 411 -69 q 426 -164 426 -119 q 390 -287 426 -246 q 286 -328 354 -328 l 286 -274 q 353 -189 353 -274 l 353 -176 l 289 -176 l 289 -69 l 411 -69 z "},"ļ":{"ha":329,"x_min":100,"x_max":240,"o":"m 228 1028 l 228 0 l 101 0 l 101 1028 l 228 1028 m 225 -69 q 240 -164 240 -119 q 204 -287 240 -246 q 100 -328 168 -328 l 100 -274 q 167 -189 167 -274 l 167 -176 l 103 -176 l 103 -69 l 225 -69 z "},"Ľ":{"ha":639,"x_min":101,"x_max":575,"o":"m 228 99 l 575 99 l 575 0 l 101 0 l 101 979 l 228 979 l 228 99 m 517 979 q 533 851 533 907 q 497 734 533 774 q 392 694 461 694 l 392 751 q 444 770 428 751 q 460 828 460 789 l 460 860 l 390 860 l 390 979 l 517 979 z "},"ľ":{"ha":425,"x_min":101,"x_max":449,"o":"m 228 1028 l 228 0 l 101 0 l 101 1028 l 228 1028 m 432 1028 q 449 900 449 963 q 413 783 449 822 q 307 743 376 743 l 307 800 q 359 819 343 800 q 375 876 375 838 l 375 908 l 306 908 l 306 1028 l 432 1028 z "},"Ŀ":{"ha":603,"x_min":101,"x_max":576,"o":"m 228 99 l 575 99 l 575 0 l 101 0 l 101 979 l 228 979 l 228 99 m 438 489 q 458 538 438 518 q 506 558 478 558 q 556 538 535 558 q 576 489 576 518 q 556 441 576 461 q 506 421 535 421 q 458 441 478 421 q 438 489 438 461 z "},"ŀ":{"ha":364,"x_min":101,"x_max":417,"o":"m 228 1028 l 228 0 l 101 0 l 101 1028 l 228 1028 m 278 514 q 298 563 278 543 q 346 583 318 583 q 396 563 375 583 q 417 514 417 543 q 396 466 417 486 q 346 446 375 446 q 298 466 318 446 q 278 514 278 486 z "},"Ł":{"ha":629,"x_min":14,"x_max":601,"o":"m 601 99 l 601 0 l 126 0 l 126 433 l 14 389 l 14 515 l 126 560 l 126 979 l 254 979 l 254 608 l 435 679 l 435 553 l 254 482 l 254 99 l 601 99 z "},"ł":{"ha":372,"x_min":14,"x_max":358,"o":"m 358 632 l 250 586 l 250 0 l 122 0 l 122 533 l 14 488 l 14 611 l 122 657 l 122 1028 l 250 1028 l 250 710 l 358 756 l 358 632 z "},"Ń":{"ha":964,"x_min":101,"x_max":863,"o":"m 863 0 l 736 0 l 228 774 l 228 0 l 101 0 l 101 979 l 228 979 l 736 204 l 736 979 l 863 979 l 863 0 m 710 1203 l 414 1040 l 414 1131 l 710 1306 l 710 1203 z "},"ń":{"ha":893,"x_min":101,"x_max":800,"o":"m 503 775 q 718 690 636 775 q 800 443 800 604 l 800 0 l 674 0 l 674 432 q 615 607 674 546 q 457 668 557 668 q 290 601 353 668 q 228 404 228 533 l 228 0 l 101 0 l 101 763 l 228 763 l 228 582 q 331 725 257 675 q 503 775 406 775 m 678 985 l 382 822 l 382 913 l 678 1088 l 678 985 z "},"Ņ":{"ha":989,"x_min":101,"x_max":863,"o":"m 863 0 l 736 0 l 228 774 l 228 0 l 101 0 l 101 979 l 228 979 l 736 204 l 736 979 l 863 979 l 863 0 m 553 -69 q 568 -164 568 -119 q 532 -287 568 -246 q 428 -328 496 -328 l 428 -274 q 494 -189 494 -274 l 494 -176 l 431 -176 l 431 -69 l 553 -69 z "},"ņ":{"ha":893,"x_min":101,"x_max":800,"o":"m 503 775 q 718 690 636 775 q 800 443 800 604 l 800 0 l 674 0 l 674 432 q 615 607 674 546 q 457 668 557 668 q 290 601 353 668 q 228 404 228 533 l 228 0 l 101 0 l 101 763 l 228 763 l 228 582 q 331 725 257 675 q 503 775 406 775 m 524 -69 q 539 -164 539 -119 q 503 -287 539 -246 q 399 -328 467 -328 l 399 -274 q 465 -189 465 -274 l 465 -176 l 401 -176 l 401 -69 l 524 -69 z "},"Ň":{"ha":964,"x_min":101,"x_max":863,"o":"m 863 0 l 736 0 l 228 774 l 228 0 l 101 0 l 101 979 l 228 979 l 736 204 l 736 979 l 863 979 l 863 0 m 674 1178 l 482 1063 l 289 1178 l 289 1267 l 482 1150 l 674 1267 l 674 1178 z "},"ň":{"ha":893,"x_min":101,"x_max":800,"o":"m 503 775 q 718 690 636 775 q 800 443 800 604 l 800 0 l 674 0 l 674 432 q 615 607 674 546 q 457 668 557 668 q 290 601 353 668 q 228 404 228 533 l 228 0 l 101 0 l 101 763 l 228 763 l 228 582 q 331 725 257 675 q 503 775 406 775 m 642 960 l 450 844 l 257 960 l 257 1049 l 450 932 l 642 1049 l 642 960 z "},"Ō":{"ha":1099,"x_min":68,"x_max":1029,"o":"m 550 992 q 795 928 686 992 q 967 749 904 864 q 1029 490 1029 635 q 967 231 1029 346 q 795 53 904 117 q 550 -11 686 -11 q 303 53 414 -11 q 131 231 193 117 q 68 490 68 346 q 131 749 68 635 q 303 928 193 864 q 550 992 414 992 m 550 874 q 369 827 449 874 q 244 694 289 781 q 199 490 199 607 q 244 288 199 375 q 369 153 289 200 q 550 107 449 107 q 730 154 650 107 q 855 288 810 201 q 900 490 900 375 q 855 694 900 607 q 730 827 810 781 q 550 874 650 874 m 794 1204 l 794 1115 l 304 1115 l 304 1204 l 794 1204 z "},"ō":{"ha":893,"x_min":64,"x_max":829,"o":"m 447 772 q 644 725 557 772 q 780 589 731 678 q 829 381 829 500 q 780 173 829 261 q 644 38 731 85 q 447 -10 557 -10 q 251 38 338 -10 q 114 173 164 85 q 64 381 64 261 q 114 589 64 500 q 251 725 164 678 q 447 772 338 772 m 447 661 q 322 631 379 661 q 228 537 264 600 q 193 381 193 474 q 228 226 193 289 q 322 132 264 163 q 447 101 379 101 q 573 132 515 101 q 666 226 631 163 q 701 381 701 289 q 666 537 701 474 q 573 631 631 600 q 447 661 515 661 m 692 986 l 692 897 l 201 897 l 201 986 l 692 986 z "},"Ŏ":{"ha":1099,"x_min":68,"x_max":1029,"o":"m 550 992 q 795 928 686 992 q 967 749 904 864 q 1029 490 1029 635 q 967 231 1029 346 q 795 53 904 117 q 550 -11 686 -11 q 303 53 414 -11 q 131 231 193 117 q 68 490 68 346 q 131 749 68 635 q 303 928 193 864 q 550 992 414 992 m 550 874 q 369 827 449 874 q 244 694 289 781 q 199 490 199 607 q 244 288 199 375 q 369 153 289 200 q 550 107 449 107 q 730 154 650 107 q 855 288 810 201 q 900 490 900 375 q 855 694 900 607 q 730 827 810 781 q 550 874 650 874 m 549 1065 q 403 1119 456 1065 q 350 1258 350 1174 l 350 1271 l 419 1271 q 451 1188 419 1217 q 549 1160 483 1160 q 647 1188 614 1160 q 679 1271 679 1217 l 747 1271 l 747 1258 q 694 1119 747 1174 q 549 1065 642 1065 z "},"ŏ":{"ha":893,"x_min":64,"x_max":829,"o":"m 447 772 q 644 725 557 772 q 780 589 731 678 q 829 381 829 500 q 780 173 829 261 q 644 38 731 85 q 447 -10 557 -10 q 251 38 338 -10 q 114 173 164 85 q 64 381 64 261 q 114 589 64 500 q 251 725 164 678 q 447 772 338 772 m 447 661 q 322 631 379 661 q 228 537 264 600 q 193 381 193 474 q 228 226 193 289 q 322 132 264 163 q 447 101 379 101 q 573 132 515 101 q 666 226 631 163 q 701 381 701 289 q 666 537 701 474 q 573 631 631 600 q 447 661 515 661 m 446 847 q 300 901 353 847 q 247 1040 247 956 l 247 1053 l 317 1053 q 349 970 317 999 q 446 942 381 942 q 544 970 511 942 q 576 1053 576 999 l 644 1053 l 644 1040 q 592 901 644 956 q 446 847 539 847 z "},"Ő":{"ha":1099,"x_min":68,"x_max":1029,"o":"m 550 992 q 795 928 686 992 q 967 749 904 864 q 1029 490 1029 635 q 967 231 1029 346 q 795 53 904 117 q 550 -11 686 -11 q 303 53 414 -11 q 131 231 193 117 q 68 490 68 346 q 131 749 68 635 q 303 928 193 864 q 550 992 414 992 m 550 874 q 369 827 449 874 q 244 694 289 781 q 199 490 199 607 q 244 288 199 375 q 369 153 289 200 q 550 107 449 107 q 730 154 650 107 q 855 288 810 201 q 900 490 900 375 q 855 694 900 607 q 730 827 810 781 q 550 874 650 874 m 476 1053 l 393 1053 l 486 1267 l 590 1267 l 476 1053 m 686 1053 l 603 1053 l 713 1267 l 815 1267 l 686 1053 z "},"ő":{"ha":893,"x_min":64,"x_max":829,"o":"m 447 772 q 644 725 557 772 q 780 589 731 678 q 829 381 829 500 q 780 173 829 261 q 644 38 731 85 q 447 -10 557 -10 q 251 38 338 -10 q 114 173 164 85 q 64 381 64 261 q 114 589 64 500 q 251 725 164 678 q 447 772 338 772 m 447 661 q 322 631 379 661 q 228 537 264 600 q 193 381 193 474 q 228 226 193 289 q 322 132 264 163 q 447 101 379 101 q 573 132 515 101 q 666 226 631 163 q 701 381 701 289 q 666 537 701 474 q 573 631 631 600 q 447 661 515 661 m 379 835 l 296 835 l 389 1049 l 493 1049 l 379 835 m 589 835 l 506 835 l 615 1049 l 718 1049 l 589 835 z "},"Œ":{"ha":1508,"x_min":68,"x_max":1446,"o":"m 1033 542 l 1404 542 l 1404 444 l 1033 444 l 1033 103 l 1446 103 l 1446 0 l 906 0 l 906 233 q 769 55 868 121 q 542 -12 669 -11 q 297 51 406 -12 q 128 229 189 115 q 68 489 68 343 q 128 749 68 635 q 297 928 189 864 q 542 992 406 992 q 768 924 668 992 q 906 744 868 857 l 906 979 l 1446 979 l 1446 876 l 1033 876 l 1033 542 m 550 104 q 730 151 650 104 q 855 285 810 199 q 900 489 900 372 q 855 693 900 606 q 730 827 810 781 q 550 874 650 874 q 369 827 449 874 q 244 693 289 781 q 199 489 199 606 q 244 285 199 372 q 369 151 289 199 q 550 104 449 104 z "},"œ":{"ha":1521,"x_min":64,"x_max":1444,"o":"m 1444 424 q 1439 354 1444 383 l 829 354 q 903 158 833 224 q 1075 93 974 93 q 1227 140 1165 93 q 1304 264 1289 186 l 1439 264 q 1320 67 1417 143 q 1081 -10 1224 -10 q 887 42 969 -10 q 765 190 804 94 q 643 43 728 96 q 447 -10 558 -10 q 251 38 338 -10 q 114 173 164 85 q 64 381 64 261 q 114 589 64 500 q 251 725 164 678 q 447 772 338 772 q 642 719 557 772 q 765 572 726 667 q 887 719 804 667 q 1081 772 969 772 q 1274 725 1192 772 q 1401 599 1357 678 q 1444 424 1444 519 m 1317 415 q 1289 557 1321 500 q 1201 642 1257 614 q 1081 669 1146 669 q 906 605 976 669 q 829 415 835 540 l 1317 415 m 447 101 q 573 132 515 101 q 666 226 631 163 q 701 381 701 289 q 666 537 701 474 q 573 631 631 600 q 447 661 515 661 q 322 631 379 661 q 228 537 264 600 q 193 381 193 474 q 228 226 193 289 q 322 132 264 163 q 447 101 379 101 z "},"Ŕ":{"ha":810,"x_min":101,"x_max":764,"o":"m 621 0 l 365 400 l 228 400 l 228 0 l 101 0 l 101 979 l 424 979 q 674 899 590 979 q 757 688 757 819 q 690 495 757 568 q 497 404 624 422 l 764 0 l 621 0 m 228 492 l 413 492 q 628 681 628 492 q 413 869 628 869 l 228 869 l 228 492 m 661 1203 l 365 1040 l 365 1131 l 661 1306 l 661 1203 z "},"ŕ":{"ha":533,"x_min":101,"x_max":533,"o":"m 228 608 q 338 731 265 688 q 510 775 410 775 l 510 638 l 471 638 q 296 583 364 638 q 228 401 228 528 l 228 0 l 101 0 l 101 763 l 228 763 l 228 608 m 533 985 l 238 822 l 238 913 l 533 1088 l 533 985 z "},"Ŗ":{"ha":825,"x_min":101,"x_max":764,"o":"m 764 0 l 621 0 l 365 400 l 228 400 l 228 0 l 101 0 l 101 979 l 424 979 q 674 899 590 979 q 757 688 757 819 q 690 495 757 568 q 497 404 624 422 l 764 0 m 228 492 l 413 492 q 628 681 628 492 q 413 869 628 869 l 228 869 l 228 492 m 468 -69 q 483 -164 483 -119 q 447 -287 483 -246 q 343 -328 411 -328 l 343 -274 q 408 -189 408 -274 l 408 -176 l 346 -176 l 346 -69 l 468 -69 z "},"ŗ":{"ha":533,"x_min":97,"x_max":510,"o":"m 228 608 q 338 731 265 688 q 510 775 410 775 l 510 638 l 471 638 q 296 583 364 638 q 228 401 228 528 l 228 0 l 101 0 l 101 763 l 228 763 l 228 608 m 222 -69 q 236 -164 236 -115 q 200 -287 236 -246 q 97 -328 164 -328 l 97 -274 q 163 -189 163 -274 l 163 -176 l 100 -176 l 100 -69 l 222 -69 z "},"Ř":{"ha":810,"x_min":101,"x_max":764,"o":"m 621 0 l 365 400 l 228 400 l 228 0 l 101 0 l 101 979 l 424 979 q 674 899 590 979 q 757 688 757 819 q 690 495 757 568 q 497 404 624 422 l 764 0 l 621 0 m 228 492 l 413 492 q 628 681 628 492 q 413 869 628 869 l 228 869 l 228 492 m 625 1178 l 433 1063 l 240 1178 l 240 1267 l 433 1150 l 625 1267 l 625 1178 z "},"ř":{"ha":533,"x_min":101,"x_max":510,"o":"m 228 608 q 338 731 265 688 q 510 775 410 775 l 510 638 l 471 638 q 296 583 364 638 q 228 401 228 528 l 228 0 l 101 0 l 101 763 l 228 763 l 228 608 m 497 960 l 306 844 l 113 960 l 113 1049 l 306 932 l 497 1049 l 497 960 z "},"Ś":{"ha":789,"x_min":68,"x_max":721,"o":"m 721 254 q 688 125 721 185 q 586 28 654 65 q 418 -10 518 -10 q 245 26 321 -10 q 124 123 169 61 q 72 264 79 185 l 207 264 q 235 183 211 222 q 305 117 260 143 q 414 92 350 92 q 542 136 497 92 q 586 250 586 181 q 555 347 586 310 q 478 406 524 385 q 353 453 432 428 q 203 510 260 483 q 108 592 147 538 q 68 735 68 646 q 105 869 68 811 q 210 960 142 928 q 372 992 279 992 q 601 922 517 992 q 700 743 686 851 l 564 743 q 504 846 553 801 q 372 890 456 890 q 250 851 296 890 q 204 739 204 811 q 234 647 204 682 q 308 591 264 611 q 431 546 353 571 q 583 488 525 515 q 681 403 640 460 q 721 254 721 347 m 624 1203 l 328 1040 l 328 1131 l 624 1306 l 624 1203 z "},"ś":{"ha":718,"x_min":69,"x_max":650,"o":"m 340 772 q 548 705 469 772 q 643 524 626 638 l 522 524 q 466 635 514 592 q 338 679 418 679 q 231 647 269 679 q 193 558 193 614 q 219 491 193 517 q 283 452 244 465 q 388 424 321 439 q 524 384 472 404 q 613 319 576 364 q 650 200 650 275 q 580 49 650 107 q 393 -10 510 -10 q 171 56 257 -10 q 69 238 85 121 l 192 238 q 252 125 199 168 q 393 82 306 82 q 495 115 458 82 q 532 203 532 149 q 506 274 532 247 q 440 314 479 300 q 333 343 401 328 q 198 382 249 363 q 112 444 147 401 q 76 558 76 486 q 147 713 76 654 q 340 772 218 772 m 589 985 l 293 822 l 293 913 l 589 1088 l 589 985 z "},"Ş":{"ha":789,"x_min":68,"x_max":721,"o":"m 721 254 q 688 125 721 185 q 586 28 654 65 q 418 -10 518 -10 q 245 26 321 -10 q 124 123 169 61 q 72 264 79 185 l 207 264 q 235 183 211 222 q 305 117 260 143 q 414 92 350 92 q 542 136 497 92 q 586 250 586 181 q 555 347 586 310 q 478 406 524 385 q 353 453 432 428 q 203 510 260 483 q 108 592 147 538 q 68 735 68 646 q 105 869 68 811 q 210 960 142 928 q 372 992 279 992 q 601 922 517 992 q 700 743 686 851 l 564 743 q 504 846 553 801 q 372 890 456 890 q 250 851 296 890 q 204 739 204 811 q 234 647 204 682 q 308 591 264 611 q 431 546 353 571 q 583 488 525 515 q 681 403 640 460 q 721 254 721 347 m 443 -93 q 570 -123 521 -90 q 619 -224 619 -156 q 572 -326 619 -290 q 450 -361 525 -361 l 308 -361 l 308 -287 l 436 -287 q 529 -221 529 -287 q 507 -176 529 -193 q 436 -158 485 -158 l 361 -158 l 361 10 l 443 10 l 443 -93 z "},"ş":{"ha":718,"x_min":69,"x_max":650,"o":"m 340 772 q 548 705 469 772 q 643 524 626 638 l 522 524 q 466 635 514 592 q 338 679 418 679 q 231 647 269 679 q 193 558 193 614 q 219 491 193 517 q 283 452 244 465 q 388 424 321 439 q 524 384 472 404 q 613 319 576 364 q 650 200 650 275 q 580 49 650 107 q 393 -10 510 -10 q 171 56 257 -10 q 69 238 85 121 l 192 238 q 252 125 199 168 q 393 82 306 82 q 495 115 458 82 q 532 203 532 149 q 506 274 532 247 q 440 314 479 300 q 333 343 401 328 q 198 382 249 363 q 112 444 147 401 q 76 558 76 486 q 147 713 76 654 q 340 772 218 772 m 404 -93 q 531 -123 482 -90 q 581 -224 581 -156 q 533 -326 581 -290 q 411 -361 486 -361 l 269 -361 l 269 -287 l 397 -287 q 490 -221 490 -287 q 468 -176 490 -193 q 397 -158 446 -158 l 322 -158 l 322 10 l 404 10 l 404 -93 z "},"Š":{"ha":789,"x_min":68,"x_max":721,"o":"m 721 254 q 688 125 721 185 q 586 28 654 65 q 418 -10 518 -10 q 245 26 321 -10 q 124 123 169 61 q 72 264 79 185 l 207 264 q 235 183 211 222 q 305 117 260 143 q 414 92 350 92 q 542 136 497 92 q 586 250 586 181 q 555 347 586 310 q 478 406 524 385 q 353 453 432 428 q 203 510 260 483 q 108 592 147 538 q 68 735 68 646 q 105 869 68 811 q 210 960 142 928 q 372 992 279 992 q 601 922 517 992 q 700 743 686 851 l 564 743 q 504 846 553 801 q 372 890 456 890 q 250 851 296 890 q 204 739 204 811 q 234 647 204 682 q 308 591 264 611 q 431 546 353 571 q 583 488 525 515 q 681 403 640 460 q 721 254 721 347 m 588 1178 l 396 1063 l 203 1178 l 203 1267 l 396 1150 l 588 1267 l 588 1178 z "},"š":{"ha":718,"x_min":69,"x_max":650,"o":"m 340 772 q 548 705 469 772 q 643 524 626 638 l 522 524 q 466 635 514 592 q 338 679 418 679 q 231 647 269 679 q 193 558 193 614 q 219 491 193 517 q 283 452 244 465 q 388 424 321 439 q 524 384 472 404 q 613 319 576 364 q 650 200 650 275 q 580 49 650 107 q 393 -10 510 -10 q 171 56 257 -10 q 69 238 85 121 l 192 238 q 252 125 199 168 q 393 82 306 82 q 495 115 458 82 q 532 203 532 149 q 506 274 532 247 q 440 314 479 300 q 333 343 401 328 q 198 382 249 363 q 112 444 147 401 q 76 558 76 486 q 147 713 76 654 q 340 772 218 772 m 551 960 l 360 844 l 167 960 l 167 1049 l 360 932 l 551 1049 l 551 960 z "},"Ţ":{"ha":725,"x_min":22,"x_max":701,"o":"m 425 876 l 425 6 q 564 -118 564 -14 q 517 -220 564 -185 q 394 -256 469 -256 l 256 -256 l 256 -182 l 383 -182 q 453 -165 432 -182 q 474 -115 474 -147 q 383 -53 474 -53 l 299 -53 l 299 876 l 22 876 l 22 979 l 701 979 l 701 876 l 425 876 z "},"ţ":{"ha":518,"x_min":25,"x_max":531,"o":"m 354 -93 q 481 -123 432 -90 q 531 -224 531 -156 q 483 -326 531 -290 q 361 -361 436 -361 l 219 -361 l 219 -287 l 347 -287 q 440 -221 440 -287 q 418 -176 440 -193 q 347 -158 396 -158 l 272 -158 l 272 13 q 172 87 206 32 q 139 242 139 142 l 139 653 l 25 653 l 25 763 l 139 763 l 139 953 l 267 953 l 267 763 l 464 763 l 464 653 l 267 653 l 267 239 q 294 138 267 165 q 388 111 321 111 l 465 111 l 465 0 l 371 0 l 354 0 l 354 -93 z "},"Ť":{"ha":725,"x_min":22,"x_max":701,"o":"m 701 979 l 701 876 l 425 876 l 425 0 l 299 0 l 299 876 l 22 876 l 22 979 l 701 979 m 556 1178 l 364 1063 l 171 1178 l 171 1267 l 364 1150 l 556 1267 l 556 1178 z "},"ť":{"ha":518,"x_min":25,"x_max":492,"o":"m 417 982 l 347 982 l 347 1101 l 475 1101 q 492 979 492 1029 q 350 832 492 832 l 350 889 q 401 903 385 889 q 417 947 417 918 l 417 982 m 267 239 q 294 138 267 165 q 388 111 321 111 l 465 111 l 465 0 l 371 0 q 197 56 254 0 q 139 242 139 111 l 139 653 l 25 653 l 25 763 l 139 763 l 139 953 l 267 953 l 267 763 l 464 763 l 464 653 l 267 653 l 267 239 z "},"Ũ":{"ha":918,"x_min":94,"x_max":824,"o":"m 221 979 l 221 392 q 285 178 221 247 q 461 110 349 110 q 635 179 572 110 q 697 392 697 249 l 697 979 l 824 979 l 824 392 q 724 91 824 192 q 458 -10 625 -10 q 194 91 293 -10 q 94 392 94 192 l 94 979 l 221 979 m 376 1207 q 424 1197 403 1207 q 469 1169 444 1188 q 509 1146 494 1153 q 543 1139 524 1139 q 584 1156 568 1139 q 604 1204 600 1172 l 675 1204 q 630 1097 665 1135 q 540 1060 594 1060 q 490 1069 511 1060 q 442 1097 468 1079 q 406 1119 421 1113 q 372 1126 390 1126 q 313 1061 321 1126 l 243 1061 q 288 1171 254 1135 q 376 1207 322 1207 z "},"ũ":{"ha":881,"x_min":81,"x_max":779,"o":"m 779 763 l 779 0 l 653 0 l 653 179 q 549 37 624 86 q 376 -12 475 -12 q 163 73 244 -12 q 81 318 81 158 l 81 763 l 207 763 l 207 331 q 265 155 207 217 q 424 93 324 93 q 590 160 528 93 q 653 357 653 228 l 653 763 l 779 763 m 347 989 q 394 979 374 989 q 440 951 415 969 q 480 928 465 935 q 514 921 494 921 q 555 938 539 921 q 575 986 571 954 l 646 986 q 601 879 636 917 q 511 842 565 842 q 460 851 482 842 q 413 879 439 861 q 376 901 392 894 q 343 908 361 908 q 283 843 292 908 l 214 843 q 259 953 225 917 q 347 989 293 989 z "},"Ū":{"ha":918,"x_min":94,"x_max":824,"o":"m 221 979 l 221 392 q 285 178 221 247 q 461 110 349 110 q 635 179 572 110 q 697 392 697 249 l 697 979 l 824 979 l 824 392 q 724 91 824 192 q 458 -10 625 -10 q 194 91 293 -10 q 94 392 94 192 l 94 979 l 221 979 m 704 1204 l 704 1115 l 214 1115 l 214 1204 l 704 1204 z "},"ū":{"ha":881,"x_min":81,"x_max":779,"o":"m 779 763 l 779 0 l 653 0 l 653 179 q 549 37 624 86 q 376 -12 475 -12 q 163 73 244 -12 q 81 318 81 158 l 81 763 l 207 763 l 207 331 q 265 155 207 217 q 424 93 324 93 q 590 160 528 93 q 653 357 653 228 l 653 763 l 779 763 m 675 986 l 675 897 l 185 897 l 185 986 l 675 986 z "},"Ŭ":{"ha":918,"x_min":94,"x_max":824,"o":"m 221 979 l 221 392 q 285 178 221 247 q 461 110 349 110 q 635 179 572 110 q 697 392 697 249 l 697 979 l 824 979 l 824 392 q 724 91 824 192 q 458 -10 625 -10 q 194 91 293 -10 q 94 392 94 192 l 94 979 l 221 979 m 458 1065 q 313 1119 365 1065 q 260 1258 260 1174 l 260 1271 l 329 1271 q 361 1188 329 1217 q 458 1160 393 1160 q 556 1188 524 1160 q 589 1271 589 1217 l 657 1271 l 657 1258 q 604 1119 657 1174 q 458 1065 551 1065 z "},"ŭ":{"ha":881,"x_min":81,"x_max":779,"o":"m 779 763 l 779 0 l 653 0 l 653 179 q 549 37 624 86 q 376 -12 475 -12 q 163 73 244 -12 q 81 318 81 158 l 81 763 l 207 763 l 207 331 q 265 155 207 217 q 424 93 324 93 q 590 160 528 93 q 653 357 653 228 l 653 763 l 779 763 m 429 847 q 283 901 336 847 q 231 1040 231 956 l 231 1053 l 300 1053 q 332 970 300 999 q 429 942 364 942 q 527 970 494 942 q 560 1053 560 999 l 628 1053 l 628 1040 q 575 901 628 956 q 429 847 522 847 z "},"Ů":{"ha":918,"x_min":94,"x_max":824,"o":"m 221 979 l 221 392 q 285 178 221 247 q 461 110 349 110 q 635 179 572 110 q 697 392 697 249 l 697 979 l 824 979 l 824 392 q 724 91 824 192 q 458 -10 625 -10 q 194 91 293 -10 q 94 392 94 192 l 94 979 l 221 979 m 458 1353 q 563 1313 521 1353 q 604 1207 604 1274 q 563 1101 604 1140 q 458 1061 521 1061 q 355 1101 397 1061 q 313 1207 313 1142 q 355 1313 313 1272 q 458 1353 397 1353 m 458 1294 q 397 1271 421 1294 q 374 1207 374 1247 q 397 1143 374 1167 q 458 1119 421 1119 q 520 1143 496 1119 q 544 1207 544 1167 q 520 1271 544 1247 q 458 1294 496 1294 z "},"ů":{"ha":881,"x_min":81,"x_max":779,"o":"m 779 763 l 779 0 l 653 0 l 653 179 q 549 37 624 86 q 376 -12 475 -12 q 163 73 244 -12 q 81 318 81 158 l 81 763 l 207 763 l 207 331 q 265 155 207 217 q 424 93 324 93 q 590 160 528 93 q 653 357 653 228 l 653 763 l 779 763 m 429 1135 q 533 1095 492 1135 q 575 989 575 1056 q 533 883 575 922 q 429 843 492 843 q 326 883 368 843 q 283 989 283 924 q 326 1094 283 1054 q 429 1135 368 1135 m 429 1076 q 368 1053 392 1076 q 344 989 344 1029 q 368 925 344 949 q 429 901 392 901 q 491 925 467 901 q 515 989 515 949 q 491 1053 515 1029 q 429 1076 467 1076 z "},"Ű":{"ha":918,"x_min":94,"x_max":824,"o":"m 221 979 l 221 392 q 285 178 221 247 q 461 110 349 110 q 635 179 572 110 q 697 392 697 249 l 697 979 l 824 979 l 824 392 q 724 91 824 192 q 458 -10 625 -10 q 194 91 293 -10 q 94 392 94 192 l 94 979 l 221 979 m 357 1053 l 274 1053 l 367 1267 l 471 1267 l 357 1053 m 567 1053 l 483 1053 l 593 1267 l 696 1267 l 567 1053 z "},"ű":{"ha":881,"x_min":81,"x_max":779,"o":"m 779 763 l 779 0 l 653 0 l 653 179 q 549 37 624 86 q 376 -12 475 -12 q 163 73 244 -12 q 81 318 81 158 l 81 763 l 207 763 l 207 331 q 265 155 207 217 q 424 93 324 93 q 590 160 528 93 q 653 357 653 228 l 653 763 l 779 763 m 328 835 l 244 835 l 338 1049 l 442 1049 l 328 835 m 538 835 l 454 835 l 564 1049 l 667 1049 l 538 835 z "},"Ų":{"ha":942,"x_min":107,"x_max":836,"o":"m 526 -228 q 404 -188 451 -228 q 357 -81 357 -149 q 371 -33 357 -56 q 406 -4 385 -11 q 190 119 272 18 q 107 392 107 219 l 107 979 l 233 979 l 233 392 q 297 179 233 249 q 472 110 360 110 q 710 392 710 110 l 710 979 l 836 979 l 836 392 q 753 115 836 213 q 538 -1 671 17 q 471 -27 493 -7 q 449 -81 449 -47 q 475 -135 449 -115 q 547 -156 501 -156 l 674 -156 l 674 -228 l 526 -228 z "},"ų":{"ha":881,"x_min":81,"x_max":838,"o":"m 779 763 l 779 0 l 653 0 l 653 179 q 549 37 624 86 q 376 -12 475 -12 q 163 73 244 -12 q 81 318 81 158 l 81 763 l 207 763 l 207 331 q 265 155 207 217 q 424 93 324 93 q 590 160 528 93 q 653 357 653 228 l 653 763 l 779 763 m 779 15 l 779 -53 l 704 -53 q 633 -72 660 -53 q 607 -126 607 -92 q 633 -182 607 -161 q 704 -203 660 -203 l 838 -203 l 838 -276 l 693 -276 q 566 -238 615 -276 q 517 -131 517 -200 q 564 -24 517 -62 q 683 15 611 15 l 779 15 z "},"Ŵ":{"ha":1353,"x_min":46,"x_max":1306,"o":"m 1306 979 l 1057 0 l 903 0 l 676 800 l 450 0 l 296 0 l 46 979 l 186 979 l 374 147 l 606 979 l 746 979 l 978 150 l 1167 979 l 1306 979 m 678 1182 l 485 1065 l 485 1154 l 678 1269 l 869 1154 l 869 1065 l 678 1182 z "},"ŵ":{"ha":1165,"x_min":18,"x_max":1149,"o":"m 1149 763 l 929 0 l 793 0 l 583 621 l 372 0 l 235 0 l 18 763 l 146 763 l 308 121 l 519 763 l 651 763 l 864 122 l 1028 763 l 1149 763 m 583 964 l 390 847 l 390 936 l 583 1051 l 775 936 l 775 847 l 583 964 z "},"Ŷ":{"ha":824,"x_min":26,"x_max":797,"o":"m 797 979 l 476 371 l 476 0 l 349 0 l 349 371 l 26 979 l 174 979 l 414 506 l 653 979 l 797 979 m 413 1182 l 219 1065 l 219 1154 l 413 1269 l 604 1154 l 604 1065 l 413 1182 z "},"ŷ":{"ha":785,"x_min":13,"x_max":771,"o":"m 154 763 l 401 163 l 631 763 l 771 763 l 318 -361 l 175 -361 l 333 13 l 13 763 l 154 763 m 393 964 l 200 847 l 200 936 l 393 1051 l 585 936 l 585 847 l 393 964 z "},"Ÿ":{"ha":824,"x_min":26,"x_max":797,"o":"m 797 979 l 476 371 l 476 0 l 349 0 l 349 371 l 26 979 l 174 979 l 414 506 l 653 979 l 797 979 m 228 1154 q 248 1203 228 1183 q 297 1224 268 1224 q 347 1203 326 1224 q 367 1154 367 1183 q 347 1106 367 1126 q 297 1086 326 1086 q 248 1106 268 1086 q 228 1154 228 1126 m 458 1154 q 478 1203 458 1183 q 528 1224 499 1224 q 577 1203 557 1224 q 597 1154 597 1183 q 577 1106 597 1126 q 528 1086 557 1086 q 478 1106 499 1086 q 458 1154 458 1126 z "},"Ź":{"ha":747,"x_min":56,"x_max":690,"o":"m 197 104 l 690 104 l 690 0 l 56 0 l 56 100 l 540 875 l 68 875 l 68 979 l 682 979 l 682 879 l 197 104 m 601 1203 l 306 1040 l 306 1131 l 601 1306 l 601 1203 z "},"ź":{"ha":619,"x_min":36,"x_max":583,"o":"m 175 107 l 583 107 l 583 0 l 36 0 l 36 101 l 425 656 l 47 656 l 47 763 l 569 763 l 569 660 l 175 107 m 539 985 l 243 822 l 243 913 l 539 1088 l 539 985 z "},"Ż":{"ha":747,"x_min":56,"x_max":690,"o":"m 197 104 l 690 104 l 690 0 l 56 0 l 56 100 l 540 875 l 68 875 l 68 979 l 682 979 l 682 879 l 197 104 m 304 1154 q 324 1203 304 1183 q 372 1224 344 1224 q 422 1203 401 1224 q 443 1154 443 1183 q 422 1106 443 1126 q 372 1086 401 1086 q 324 1106 344 1086 q 304 1154 304 1126 z "},"ż":{"ha":619,"x_min":36,"x_max":583,"o":"m 175 107 l 583 107 l 583 0 l 36 0 l 36 101 l 425 656 l 47 656 l 47 763 l 569 763 l 569 660 l 175 107 m 240 936 q 260 985 240 965 q 308 1006 281 1006 q 358 985 338 1006 q 379 936 379 965 q 358 888 379 908 q 308 868 338 868 q 260 888 281 868 q 240 936 240 908 z "},"Ž":{"ha":747,"x_min":56,"x_max":690,"o":"m 197 104 l 690 104 l 690 0 l 56 0 l 56 100 l 540 875 l 68 875 l 68 979 l 682 979 l 682 879 l 197 104 m 565 1178 l 374 1063 l 181 1178 l 181 1267 l 374 1150 l 565 1267 l 565 1178 z "},"ž":{"ha":619,"x_min":36,"x_max":583,"o":"m 175 107 l 583 107 l 583 0 l 36 0 l 36 101 l 425 656 l 47 656 l 47 763 l 569 763 l 569 660 l 175 107 m 503 960 l 311 844 l 118 960 l 118 1049 l 311 932 l 503 1049 l 503 960 z "},"ƒ":{"ha":464,"x_min":-57,"x_max":492,"o":"m 482 956 q 358 925 401 956 q 308 826 315 894 l 301 763 l 471 763 l 461 654 l 290 654 l 213 -79 q 146 -228 201 -182 q -14 -275 90 -275 l -57 -275 l -47 -165 l -4 -165 q 60 -147 39 -165 q 86 -79 81 -128 l 164 654 l 67 654 l 75 763 l 175 763 l 182 826 q 273 1008 196 950 q 492 1065 350 1065 l 482 956 z "},"Ǽ":{"ha":1236,"x_min":8,"x_max":1175,"o":"m 765 876 l 765 544 l 1133 544 l 1133 446 l 765 446 l 765 103 l 1175 103 l 1175 0 l 639 0 l 639 222 l 275 222 l 149 0 l 8 0 l 564 979 l 1175 979 l 1175 876 l 765 876 m 639 319 l 639 863 l 331 319 l 639 319 m 875 1203 l 579 1040 l 579 1131 l 875 1306 l 875 1203 z "},"ǽ":{"ha":1536,"x_min":64,"x_max":1472,"o":"m 1472 424 q 1467 354 1472 383 l 839 354 q 917 158 844 224 q 1094 92 989 92 q 1253 138 1189 92 q 1333 264 1318 183 l 1467 264 q 1357 66 1446 142 q 1133 -10 1268 -10 q 944 43 1024 -10 q 836 194 865 96 l 836 0 l 710 0 l 710 194 q 602 46 679 101 q 414 -10 525 -10 q 233 38 313 -10 q 109 173 154 85 q 64 381 64 261 q 109 589 64 500 q 233 725 154 678 q 414 772 313 772 q 602 717 525 772 q 710 568 679 661 l 710 763 l 836 763 l 836 567 q 944 719 864 665 q 1133 772 1024 772 q 1315 725 1239 772 q 1432 599 1392 678 q 1472 424 1472 519 m 1346 415 q 1316 557 1350 500 q 1224 642 1282 614 q 1097 669 1165 669 q 918 606 992 669 q 839 415 844 543 l 1346 415 m 450 101 q 584 136 525 101 q 676 234 643 171 q 710 381 710 297 q 676 528 710 464 q 584 626 643 592 q 450 660 525 660 q 263 585 333 660 q 193 381 193 511 q 263 176 193 250 q 450 101 333 101 m 997 985 l 701 822 l 701 913 l 997 1088 l 997 985 z "},"Ș":{"ha":818,"x_min":68,"x_max":721,"o":"m 721 254 q 688 125 721 185 q 586 28 654 65 q 418 -10 518 -10 q 245 26 321 -10 q 124 123 169 61 q 72 264 79 185 l 207 264 q 235 183 211 222 q 305 117 260 143 q 414 92 350 92 q 542 136 497 92 q 586 250 586 181 q 555 347 586 310 q 478 406 524 385 q 353 453 432 428 q 203 510 260 483 q 108 592 147 538 q 68 735 68 646 q 105 869 68 811 q 210 960 142 928 q 372 992 279 992 q 601 922 517 992 q 700 743 686 851 l 564 743 q 504 846 553 801 q 372 890 456 890 q 250 851 296 890 q 204 739 204 811 q 234 647 204 682 q 308 591 264 611 q 431 546 353 571 q 583 488 525 515 q 681 403 640 460 q 721 254 721 347 m 492 -69 q 506 -164 506 -115 q 470 -287 506 -246 q 367 -328 435 -328 l 367 -274 q 432 -189 432 -274 l 432 -176 l 369 -176 l 369 -69 l 492 -69 z "},"ș":{"ha":718,"x_min":69,"x_max":650,"o":"m 340 772 q 548 705 469 772 q 643 524 626 638 l 522 524 q 466 635 514 592 q 338 679 418 679 q 231 647 269 679 q 193 558 193 614 q 219 491 193 517 q 283 452 244 465 q 388 424 321 439 q 524 384 472 404 q 613 319 576 364 q 650 200 650 275 q 580 49 650 107 q 393 -10 510 -10 q 171 56 257 -10 q 69 238 85 121 l 192 238 q 252 125 199 168 q 393 82 306 82 q 495 115 458 82 q 532 203 532 149 q 506 274 532 247 q 440 314 479 300 q 333 343 401 328 q 198 382 249 363 q 112 444 147 401 q 76 558 76 486 q 147 713 76 654 q 340 772 218 772 m 438 -69 q 451 -164 451 -115 q 415 -287 451 -246 q 313 -328 379 -328 l 313 -274 q 378 -189 378 -274 l 378 -176 l 315 -176 l 315 -69 l 438 -69 z "},"Ț":{"ha":725,"x_min":22,"x_max":701,"o":"m 701 979 l 701 876 l 425 876 l 425 0 l 299 0 l 299 876 l 22 876 l 22 979 l 701 979 m 421 -69 q 435 -164 435 -115 q 399 -287 435 -246 q 296 -328 363 -328 l 296 -274 q 361 -189 361 -274 l 361 -176 l 299 -176 l 299 -69 l 421 -69 z "},"ț":{"ha":518,"x_min":25,"x_max":465,"o":"m 465 111 l 465 0 l 371 0 q 197 56 254 0 q 139 242 139 111 l 139 653 l 25 653 l 25 763 l 139 763 l 139 953 l 267 953 l 267 763 l 464 763 l 464 653 l 267 653 l 267 239 q 294 138 267 165 q 388 111 321 111 l 465 111 m 354 -69 q 368 -164 368 -115 q 332 -287 368 -246 q 229 -328 296 -328 l 229 -274 q 294 -189 294 -274 l 294 -176 l 231 -176 l 231 -69 l 354 -69 z "},"ʼ":{"ha":247,"x_min":53,"x_max":196,"o":"m 181 1094 q 196 967 196 1028 q 160 849 196 889 q 56 810 125 810 l 56 867 q 107 885 92 867 q 122 943 122 904 l 122 975 l 53 975 l 53 1094 l 181 1094 z "},"ˆ":{"ha":467,"x_min":40,"x_max":425,"o":"m 233 964 l 40 847 l 40 936 l 233 1051 l 425 936 l 425 847 l 233 964 z "},"ˇ":{"ha":467,"x_min":40,"x_max":425,"o":"m 425 960 l 233 844 l 40 960 l 40 1049 l 233 932 l 425 1049 l 425 960 z "},"ˉ":{"ha":571,"x_min":40,"x_max":531,"o":"m 531 986 l 531 897 l 40 897 l 40 986 l 531 986 z "},"˘":{"ha":478,"x_min":40,"x_max":438,"o":"m 239 847 q 93 901 146 847 q 40 1040 40 956 l 40 1053 l 110 1053 q 142 970 110 999 q 239 942 174 942 q 337 970 304 942 q 369 1053 369 999 l 438 1053 l 438 1040 q 385 901 438 956 q 239 847 332 847 z "},"˙":{"ha":232,"x_min":47,"x_max":186,"o":"m 47 936 q 67 985 47 965 q 115 1006 88 1006 q 165 985 144 1006 q 186 936 186 965 q 165 888 186 908 q 115 868 144 868 q 67 888 88 868 q 47 936 47 908 z "},"˚":{"ha":372,"x_min":40,"x_max":332,"o":"m 186 1135 q 290 1095 249 1135 q 332 989 332 1056 q 290 883 332 922 q 186 843 249 843 q 83 883 125 843 q 40 989 40 924 q 83 1094 40 1054 q 186 1135 125 1135 m 186 1076 q 125 1053 149 1076 q 101 989 101 1029 q 125 925 101 949 q 186 901 149 901 q 248 925 224 901 q 272 989 272 949 q 248 1053 272 1029 q 186 1076 224 1076 z "},"˛":{"ha":393,"x_min":36,"x_max":357,"o":"m 299 -19 l 299 -87 l 224 -87 q 153 -107 179 -87 q 126 -161 126 -126 q 153 -217 126 -196 q 224 -237 179 -237 l 357 -237 l 357 -311 l 213 -311 q 85 -273 135 -311 q 36 -165 36 -235 q 83 -58 36 -97 q 203 -19 131 -19 l 299 -19 z "},"˜":{"ha":504,"x_min":36,"x_max":468,"o":"m 169 989 q 217 979 196 989 q 263 951 238 969 q 302 928 288 935 q 336 921 317 921 q 377 938 361 921 q 397 986 393 954 l 468 986 q 423 879 458 917 q 333 842 388 842 q 283 851 304 842 q 235 879 261 861 q 199 901 214 894 q 165 908 183 908 q 106 843 114 908 l 36 843 q 81 953 47 917 q 169 989 115 989 z "},"˝":{"ha":504,"x_min":40,"x_max":463,"o":"m 124 835 l 40 835 l 133 1049 l 238 1049 l 124 835 m 333 835 l 250 835 l 360 1049 l 463 1049 l 333 835 z "},"π":{"ha":994,"x_min":63,"x_max":935,"o":"m 935 763 l 935 664 l 824 664 l 824 0 l 697 0 l 697 664 l 300 664 l 300 0 l 174 0 l 174 664 l 63 664 l 63 763 l 935 763 z "},"Ẁ":{"ha":1353,"x_min":46,"x_max":1306,"o":"m 1306 979 l 1057 0 l 903 0 l 676 800 l 450 0 l 296 0 l 46 979 l 186 979 l 374 147 l 606 979 l 746 979 l 978 150 l 1167 979 l 1306 979 m 735 1131 l 735 1040 l 439 1203 l 439 1306 l 735 1131 z "},"ẁ":{"ha":1165,"x_min":18,"x_max":1149,"o":"m 1149 763 l 929 0 l 793 0 l 583 621 l 372 0 l 235 0 l 18 763 l 146 763 l 308 121 l 519 763 l 651 763 l 864 122 l 1028 763 l 1149 763 m 640 913 l 640 822 l 344 985 l 344 1088 l 640 913 z "},"Ẃ":{"ha":1353,"x_min":46,"x_max":1306,"o":"m 1306 979 l 1057 0 l 903 0 l 676 800 l 450 0 l 296 0 l 46 979 l 186 979 l 374 147 l 606 979 l 746 979 l 978 150 l 1167 979 l 1306 979 m 906 1203 l 610 1040 l 610 1131 l 906 1306 l 906 1203 z "},"ẃ":{"ha":1165,"x_min":18,"x_max":1149,"o":"m 1149 763 l 929 0 l 793 0 l 583 621 l 372 0 l 235 0 l 18 763 l 146 763 l 308 121 l 519 763 l 651 763 l 864 122 l 1028 763 l 1149 763 m 811 985 l 515 822 l 515 913 l 811 1088 l 811 985 z "},"Ẅ":{"ha":1353,"x_min":46,"x_max":1306,"o":"m 1306 979 l 1057 0 l 903 0 l 676 800 l 450 0 l 296 0 l 46 979 l 186 979 l 374 147 l 606 979 l 746 979 l 978 150 l 1167 979 l 1306 979 m 492 1154 q 512 1203 492 1183 q 561 1224 532 1224 q 610 1203 590 1224 q 631 1154 631 1183 q 610 1106 631 1126 q 561 1086 590 1086 q 512 1106 532 1086 q 492 1154 492 1126 m 722 1154 q 742 1203 722 1183 q 792 1224 763 1224 q 841 1203 821 1224 q 861 1154 861 1183 q 841 1106 861 1126 q 792 1086 821 1086 q 742 1106 763 1086 q 722 1154 722 1126 z "},"ẅ":{"ha":1165,"x_min":18,"x_max":1149,"o":"m 1149 763 l 929 0 l 793 0 l 583 621 l 372 0 l 235 0 l 18 763 l 146 763 l 308 121 l 519 763 l 651 763 l 864 122 l 1028 763 l 1149 763 m 399 936 q 419 985 399 965 q 468 1006 439 1006 q 517 985 497 1006 q 538 936 538 965 q 517 888 538 908 q 468 868 497 868 q 419 888 439 868 q 399 936 399 908 m 629 936 q 649 985 629 965 q 699 1006 669 1006 q 748 985 728 1006 q 768 936 768 965 q 748 888 768 908 q 699 868 728 868 q 649 888 669 868 q 629 936 629 908 z "},"Ẽ":{"ha":703,"x_min":101,"x_max":642,"o":"m 228 876 l 228 542 l 600 542 l 600 444 l 228 444 l 228 103 l 642 103 l 642 0 l 101 0 l 101 979 l 642 979 l 642 876 l 228 876 m 289 1207 q 336 1197 315 1207 q 382 1169 357 1188 q 422 1146 407 1153 q 456 1139 436 1139 q 497 1156 481 1139 q 517 1204 513 1172 l 588 1204 q 542 1097 578 1135 q 453 1060 507 1060 q 402 1069 424 1060 q 354 1097 381 1079 q 318 1119 333 1113 q 285 1126 303 1126 q 225 1061 233 1126 l 156 1061 q 201 1171 167 1135 q 289 1207 235 1207 z "},"ẽ":{"ha":867,"x_min":64,"x_max":803,"o":"m 803 424 q 797 354 803 383 l 188 354 q 262 158 192 224 q 433 93 332 93 q 587 140 525 93 q 663 264 649 186 l 797 264 q 735 122 783 185 q 611 25 688 60 q 439 -10 535 -10 q 244 38 329 -10 q 112 173 160 85 q 64 381 64 261 q 112 589 64 500 q 244 725 160 678 q 439 772 329 772 q 633 725 550 772 q 759 599 715 678 q 803 424 803 519 m 675 415 q 647 557 679 500 q 560 642 615 614 q 439 669 504 669 q 264 605 335 669 q 188 415 193 540 l 675 415 m 351 989 q 399 979 378 989 q 444 951 419 969 q 484 928 469 935 q 518 921 499 921 q 559 938 543 921 q 579 986 575 954 l 650 986 q 605 879 640 917 q 515 842 569 842 q 465 851 486 842 q 417 879 443 861 q 381 901 396 894 q 347 908 365 908 q 288 843 296 908 l 218 843 q 263 953 229 917 q 351 989 297 989 z "},"Ỳ":{"ha":824,"x_min":26,"x_max":797,"o":"m 797 979 l 476 371 l 476 0 l 349 0 l 349 371 l 26 979 l 174 979 l 414 506 l 653 979 l 797 979 m 471 1131 l 471 1040 l 175 1203 l 175 1306 l 471 1131 z "},"ỳ":{"ha":785,"x_min":13,"x_max":771,"o":"m 154 763 l 401 163 l 631 763 l 771 763 l 318 -361 l 175 -361 l 333 13 l 13 763 l 154 763 m 450 913 l 450 822 l 154 985 l 154 1088 l 450 913 z "},"Ỹ":{"ha":824,"x_min":26,"x_max":797,"o":"m 797 979 l 476 371 l 476 0 l 349 0 l 349 371 l 26 979 l 174 979 l 414 506 l 653 979 l 797 979 m 329 1207 q 376 1197 356 1207 q 422 1169 397 1188 q 462 1146 447 1153 q 496 1139 476 1139 q 537 1156 521 1139 q 557 1204 553 1172 l 628 1204 q 583 1097 618 1135 q 493 1060 547 1060 q 442 1069 464 1060 q 394 1097 421 1079 q 358 1119 374 1113 q 325 1126 343 1126 q 265 1061 274 1126 l 196 1061 q 241 1171 207 1135 q 329 1207 275 1207 z "},"ỹ":{"ha":785,"x_min":13,"x_max":771,"o":"m 154 763 l 401 163 l 631 763 l 771 763 l 318 -361 l 175 -361 l 333 13 l 13 763 l 154 763 m 310 989 q 357 979 336 989 q 403 951 378 969 q 442 928 428 935 q 476 921 457 921 q 517 938 501 921 q 538 986 533 954 l 608 986 q 563 879 599 917 q 474 842 528 842 q 423 851 444 842 q 375 879 401 861 q 339 901 354 894 q 306 908 324 908 q 246 843 254 908 l 176 843 q 222 953 188 917 q 310 989 256 989 z "},"–":{"ha":857,"x_min":63,"x_max":794,"o":"m 794 563 l 794 456 l 63 456 l 63 563 l 794 563 z "},"—":{"ha":1146,"x_min":63,"x_max":1083,"o":"m 1083 563 l 1083 456 l 63 456 l 63 563 l 1083 563 z "},"‘":{"ha":247,"x_min":51,"x_max":194,"o":"m 68 810 q 51 938 51 883 q 88 1055 51 1015 q 193 1094 124 1094 l 193 1039 q 141 1019 157 1039 q 125 961 125 1000 l 125 929 l 194 929 l 194 810 l 68 810 z "},"’":{"ha":247,"x_min":53,"x_max":196,"o":"m 181 1094 q 196 967 196 1028 q 160 849 196 889 q 56 810 125 810 l 56 867 q 107 885 92 867 q 122 943 122 904 l 122 975 l 53 975 l 53 1094 l 181 1094 z "},"‚":{"ha":260,"x_min":46,"x_max":194,"o":"m 175 93 q 194 -21 194 32 q 158 -137 194 -93 q 50 -181 122 -181 l 50 -126 q 101 -108 85 -126 q 117 -49 117 -89 l 117 -36 l 46 -36 l 46 93 l 175 93 z "},"“":{"ha":436,"x_min":51,"x_max":382,"o":"m 68 810 q 51 938 51 883 q 88 1055 51 1015 q 193 1094 124 1094 l 193 1039 q 141 1019 157 1039 q 125 961 125 1000 l 125 929 l 194 929 l 194 810 l 68 810 m 256 810 q 239 938 239 883 q 275 1055 239 1015 q 381 1094 311 1094 l 381 1039 q 328 1019 344 1039 q 313 961 313 1000 l 313 929 l 382 929 l 382 810 l 256 810 z "},"”":{"ha":436,"x_min":53,"x_max":385,"o":"m 181 1094 q 196 967 196 1028 q 160 849 196 889 q 56 810 125 810 l 56 867 q 107 885 92 867 q 122 943 122 904 l 122 975 l 53 975 l 53 1094 l 181 1094 m 368 1094 q 385 967 385 1022 q 349 849 385 889 q 243 810 313 810 l 243 867 q 294 885 279 867 q 310 943 310 904 l 310 975 l 240 975 l 240 1094 l 368 1094 z "},"„":{"ha":436,"x_min":53,"x_max":385,"o":"m 181 119 q 196 -8 196 53 q 160 -126 196 -86 q 56 -165 125 -165 l 56 -108 q 107 -90 92 -108 q 122 -32 122 -71 l 122 0 l 53 0 l 53 119 l 181 119 m 368 119 q 385 -8 385 47 q 349 -126 385 -86 q 243 -165 313 -165 l 243 -108 q 294 -90 279 -108 q 310 -32 310 -71 l 310 0 l 240 0 l 240 119 l 368 119 z "},"†":{"ha":738,"x_min":51,"x_max":686,"o":"m 686 663 l 419 672 l 432 -361 l 307 -361 l 318 672 l 51 663 l 51 763 l 318 751 l 307 1085 l 432 1085 l 419 751 l 686 763 l 686 663 z "},"‡":{"ha":739,"x_min":51,"x_max":686,"o":"m 421 672 l 421 51 l 686 64 l 686 -37 l 421 -28 l 432 -361 l 306 -361 l 318 -28 l 51 -37 l 51 64 l 318 51 l 318 672 l 51 663 l 51 763 l 318 751 l 306 1085 l 432 1085 l 421 751 l 686 763 l 686 663 l 421 672 z "},"•":{"ha":493,"x_min":76,"x_max":418,"o":"m 76 463 q 126 585 76 535 q 247 635 176 635 q 369 585 319 635 q 418 463 418 535 q 369 342 418 392 q 247 293 319 293 q 126 342 176 293 q 76 463 76 392 z "},"…":{"ha":769,"x_min":42,"x_max":725,"o":"m 460 149 l 460 0 l 307 0 l 307 149 l 460 149 m 725 149 l 725 0 l 572 0 l 572 149 l 725 149 m 194 149 l 194 0 l 42 0 l 42 149 l 194 149 z "},"‰":{"ha":1376,"x_min":46,"x_max":1331,"o":"m 249 993 q 394 937 336 993 q 451 788 451 881 q 394 639 451 694 q 249 583 338 583 q 103 639 160 583 q 46 788 46 694 q 103 937 46 881 q 249 993 160 993 m 801 981 l 239 0 l 114 0 l 676 981 l 801 981 m 135 788 q 166 697 135 732 q 247 663 197 663 q 331 697 299 663 q 363 788 363 732 q 331 878 363 843 q 247 913 299 913 q 166 878 197 913 q 135 788 135 843 m 668 397 q 813 342 757 397 q 869 193 869 286 q 813 44 869 100 q 668 -12 757 -12 q 523 44 581 -12 q 465 193 465 100 q 522 342 465 286 q 668 397 579 397 m 1128 397 q 1274 342 1217 397 q 1331 193 1331 286 q 1273 44 1331 100 q 1128 -12 1215 -12 q 983 44 1040 -12 q 925 193 925 100 q 982 342 925 286 q 1128 397 1039 397 m 554 193 q 585 103 554 138 q 668 68 617 68 q 749 103 718 68 q 781 193 781 138 q 749 283 781 249 q 668 318 718 318 q 585 283 617 318 q 554 193 554 249 m 1014 193 q 1045 103 1014 138 q 1126 68 1076 68 q 1210 103 1178 68 q 1242 193 1242 138 q 1210 283 1242 249 q 1126 318 1178 318 q 1045 283 1076 318 q 1014 193 1014 249 z "},"‹":{"ha":389,"x_min":63,"x_max":319,"o":"m 196 167 l 63 410 l 196 653 l 319 653 l 183 410 l 319 167 l 196 167 z "},"›":{"ha":389,"x_min":69,"x_max":326,"o":"m 207 410 l 69 653 l 194 653 l 326 410 l 194 167 l 69 167 l 207 410 z "},"⁄":{"ha":460,"x_min":-121,"x_max":568,"o":"m 568 981 l 6 0 l -121 0 l 442 981 l 568 981 z "},"€":{"ha":1139,"x_min":25,"x_max":1071,"o":"m 613 108 q 817 166 733 108 q 938 321 900 224 l 1071 321 q 910 80 1026 168 q 614 -8 793 -8 q 322 88 443 -8 q 164 347 201 185 l 25 347 l 25 413 l 151 413 q 147 489 147 450 q 150 553 147 511 l 25 553 l 25 618 l 160 618 q 246 813 183 729 q 403 943 308 897 q 614 989 499 989 q 910 901 793 989 q 1071 660 1026 813 l 938 660 q 817 815 900 757 q 613 872 733 872 q 411 805 497 872 q 294 618 325 738 l 633 618 l 633 553 l 282 553 q 278 489 278 522 q 283 413 278 444 l 633 413 l 633 347 l 297 347 q 416 172 332 235 q 613 108 500 108 z "},"₺":{"ha":1093,"x_min":63,"x_max":1029,"o":"m 1029 579 q 908 126 1029 275 q 525 -24 788 -24 q 289 3 421 -24 l 289 347 l 63 294 l 63 376 l 289 429 l 289 579 l 63 524 l 63 603 l 289 658 l 289 982 l 417 982 l 417 690 l 668 753 l 668 671 l 417 610 l 417 460 l 669 519 l 669 438 l 417 378 l 417 106 q 524 94 465 94 q 813 219 724 94 q 901 579 901 343 l 1029 579 z "},"₽":{"ha":876,"x_min":63,"x_max":831,"o":"m 311 414 l 311 271 l 613 271 l 613 172 l 311 172 l 311 0 l 185 0 l 185 172 l 63 172 l 63 271 l 185 271 l 185 414 l 63 414 l 63 515 l 185 515 l 185 979 l 496 979 q 747 903 664 979 q 831 696 831 828 q 745 487 831 560 q 496 414 660 414 l 311 414 m 311 515 l 489 515 q 701 697 701 515 q 489 881 701 881 l 311 881 l 311 515 z "},"ℓ":{"ha":336,"x_min":101,"x_max":228,"o":"m 228 1028 l 228 0 l 101 0 l 101 1028 l 228 1028 z "},"™":{"ha":1085,"x_min":42,"x_max":1033,"o":"m 42 979 l 408 979 l 408 899 l 272 899 l 272 492 l 179 492 l 179 899 l 42 899 l 42 979 m 1033 979 l 1033 492 l 946 492 l 943 847 l 786 492 l 718 492 l 560 860 l 560 492 l 476 492 l 476 979 l 599 979 l 754 601 l 921 979 l 1033 979 z "},"Ω":{"ha":1101,"x_min":61,"x_max":1040,"o":"m 1040 506 q 984 261 1040 368 q 817 99 928 154 l 1022 99 l 1022 0 l 642 0 l 642 104 q 838 239 764 138 q 911 490 911 340 q 865 693 911 606 q 736 828 818 781 q 551 875 654 875 q 365 826 447 875 q 235 690 282 778 q 189 490 189 603 q 265 240 190 342 q 460 104 339 138 l 460 0 l 78 0 l 78 99 l 285 99 q 118 261 175 154 q 61 506 61 368 q 126 761 61 650 q 302 932 190 872 q 551 992 414 992 q 799 931 688 992 q 975 760 910 871 q 1040 506 1040 650 z "},"℮":{"ha":1057,"x_min":65,"x_max":992,"o":"m 540 -10 q 295 45 403 -10 q 126 206 188 100 q 65 460 65 313 q 119 721 65 604 q 278 905 174 838 q 528 972 383 972 q 776 910 671 972 q 937 744 882 847 q 992 522 992 640 l 992 438 l 253 438 l 253 206 q 376 107 307 139 q 540 75 444 75 q 722 119 640 75 q 896 251 804 163 l 953 190 q 540 -10 767 -10 m 792 771 q 680 858 747 828 q 528 889 613 889 q 370 856 440 889 q 253 757 300 824 l 253 526 l 792 526 l 792 771 z "},"∂":{"ha":792,"x_min":53,"x_max":738,"o":"m 417 771 q 622 571 596 771 q 564 852 619 753 q 374 951 508 951 q 272 938 331 951 l 272 1008 q 414 1028 344 1028 q 654 915 571 1028 q 738 574 738 803 q 689 261 738 393 q 549 58 640 129 q 335 -14 458 -14 q 192 22 256 -14 q 90 131 128 58 q 53 310 53 203 q 97 540 53 435 q 224 708 142 646 q 417 771 307 771 m 428 664 q 298 617 354 664 q 212 490 242 571 q 182 310 182 410 q 228 151 182 204 q 344 99 274 99 q 478 147 421 99 q 565 275 535 194 q 594 453 594 356 q 551 613 594 561 q 428 664 507 664 z "},"∆":{"ha":946,"x_min":28,"x_max":918,"o":"m 525 963 l 918 99 l 918 0 l 28 0 l 28 99 l 419 963 l 525 963 m 158 99 l 788 99 l 472 818 l 158 99 z "},"∏":{"ha":1026,"x_min":63,"x_max":963,"o":"m 963 981 l 963 883 l 853 883 l 853 0 l 725 0 l 725 883 l 300 883 l 300 0 l 174 0 l 174 883 l 63 883 l 63 981 l 963 981 z "},"∑":{"ha":635,"x_min":56,"x_max":624,"o":"m 624 864 l 161 864 l 532 492 l 532 392 l 160 1 l 624 1 l 624 -97 l 56 -97 l 56 49 l 413 438 l 56 817 l 56 963 l 624 963 l 624 864 z "},"−":{"ha":647,"x_min":46,"x_max":601,"o":"m 601 563 l 601 456 l 46 456 l 46 563 l 601 563 z "},"∕":{"ha":518,"x_min":10,"x_max":513,"o":"m 513 1308 l 132 -237 l 10 -237 l 389 1308 l 513 1308 z "},"∙":{"ha":253,"x_min":49,"x_max":201,"o":"m 201 544 l 201 396 l 49 396 l 49 544 l 201 544 z "},"√":{"ha":1094,"x_min":22,"x_max":1063,"o":"m 1063 1207 l 382 -61 l 326 -61 l 153 244 l 61 193 l 22 258 l 225 374 l 386 88 l 983 1207 l 1063 1207 z "},"∞":{"ha":932,"x_min":29,"x_max":932,"o":"m 715 689 q 874 635 817 689 q 932 483 932 582 q 871 332 932 388 q 717 276 810 276 q 580 313 638 276 q 471 414 522 350 q 376 315 433 353 q 246 276 319 276 q 88 331 146 276 q 29 482 29 385 q 90 633 29 578 q 244 689 151 689 q 378 651 325 689 q 485 542 432 613 q 581 647 522 606 q 715 689 639 689 m 251 364 q 422 479 350 364 q 340 572 376 540 q 254 603 303 603 q 165 569 197 603 q 132 482 132 536 q 163 396 132 428 q 251 364 194 364 m 707 363 q 797 396 764 363 q 829 483 829 429 q 798 569 829 538 q 710 601 767 601 q 613 569 657 601 q 533 476 568 536 q 615 392 575 421 q 707 363 654 363 z "},"∫":{"ha":364,"x_min":-54,"x_max":429,"o":"m 188 1088 q 253 1231 199 1186 q 400 1275 307 1275 l 429 1275 l 418 1165 l 389 1165 q 338 1148 357 1165 q 314 1088 319 1131 l 186 -79 q 125 -228 176 -182 q -22 -275 74 -275 l -54 -275 l -43 -165 l -10 -165 q 40 -148 26 -165 q 61 -79 54 -131 l 188 1088 z "},"≈":{"ha":719,"x_min":46,"x_max":674,"o":"m 242 483 q 309 470 279 483 q 381 432 339 457 q 439 401 417 411 q 486 390 461 390 q 544 415 521 390 q 574 483 567 440 l 674 483 q 606 328 657 381 q 478 275 556 275 q 409 288 440 275 q 339 326 378 301 q 280 358 301 349 q 233 368 258 368 q 175 342 199 368 q 144 274 151 317 l 46 274 q 114 430 64 376 q 242 483 164 483 m 242 776 q 309 763 279 776 q 381 725 339 750 q 439 694 417 704 q 486 683 461 683 q 544 708 521 683 q 574 776 567 733 l 674 776 q 606 621 657 674 q 478 568 556 568 q 409 581 440 568 q 339 619 378 594 q 280 651 301 642 q 233 661 258 661 q 175 635 199 661 q 144 567 151 610 l 46 567 q 114 723 64 669 q 242 776 164 776 z "},"≠":{"ha":814,"x_min":46,"x_max":768,"o":"m 511 599 l 378 418 l 768 418 l 768 303 l 292 303 l 182 154 l 108 154 l 218 303 l 46 303 l 46 418 l 303 418 l 438 599 l 46 599 l 46 714 l 522 714 l 632 863 l 707 863 l 597 714 l 768 714 l 768 599 l 511 599 z "},"≤":{"ha":594,"x_min":46,"x_max":549,"o":"m 383 296 l 46 561 l 383 828 l 543 828 l 210 561 l 543 296 l 383 296 m 549 226 l 549 125 l 61 125 l 61 226 l 549 226 z "},"≥":{"ha":594,"x_min":46,"x_max":549,"o":"m 51 296 l 385 561 l 51 828 l 210 828 l 549 561 l 210 296 l 51 296 m 46 226 l 532 226 l 532 125 l 46 125 l 46 226 z "},"◊":{"ha":769,"x_min":50,"x_max":719,"o":"m 719 486 l 385 151 l 50 486 l 386 821 l 719 486 m 186 486 l 385 286 l 585 486 l 386 686 l 186 486 z "},"ﬁ":{"ha":793,"x_min":25,"x_max":713,"o":"m 258 763 l 689 763 l 689 0 l 563 0 l 563 651 l 258 651 l 258 0 l 132 0 l 132 651 l 25 651 l 25 763 l 132 763 l 132 793 q 205 993 132 926 q 432 1054 278 1060 l 432 943 q 297 908 335 944 q 258 783 258 872 l 258 763 m 628 1050 q 689 1029 665 1050 q 713 974 713 1008 q 689 918 713 939 q 628 897 665 897 q 565 918 589 897 q 540 974 540 939 q 565 1029 540 1008 q 628 1050 589 1050 z "},"ﬂ":{"ha":779,"x_min":22,"x_max":696,"o":"m 439 943 q 298 908 338 944 q 258 783 258 872 l 258 763 l 439 763 l 439 651 l 258 651 l 258 0 l 132 0 l 132 651 l 22 651 l 22 763 l 132 763 l 132 793 q 439 1054 132 1067 l 439 943 m 696 1028 l 696 0 l 569 0 l 569 1028 l 696 1028 z "}}}
